# MagicaVoxel @ Ephtracy

# group
o 

# material
mtllib Block-04.mtl
usemtl palette

# normals
vn -1 0 0
vn 1 0 0
vn 0 0 1
vn 0 0 -1
vn 0 -1 0
vn 0 1 0

# texcoords
vt 0.919922 0.5
vt 0.951172 0.5
vt 0.982422 0.5

# verts
v -2 0 2
v -2 0 -2
v -2 0.1 2
v -2 0.1 -2
v -2 0.4 2
v -2 0.4 -2
v -2 0.5 2
v -2 0.5 -2
v -2 0.6 2
v -2 0.6 0.7
v -2 0.6 0.6
v -2 0.6 -0.7
v -2 0.6 -0.8
v -2 0.6 -2
v -2 0.9 2
v -2 0.9 0.7
v -2 0.9 0.6
v -2 0.9 -0.7
v -2 0.9 -0.8
v -2 0.9 -2
v -2 1 2
v -2 1 0.7
v -2 1 0.6
v -2 1 -0.7
v -2 1 -0.8
v -2 1 -2
v -2 1.1 2
v -2 1.1 -2
v -2 1.4 2
v -2 1.4 -2
v -2 1.5 2
v -2 1.5 -2
v -2 1.6 2
v -2 1.6 0.7
v -2 1.6 0.6
v -2 1.6 -0.7
v -2 1.6 -0.8
v -2 1.6 -2
v -2 1.9 2
v -2 1.9 0.7
v -2 1.9 0.6
v -2 1.9 -0.7
v -2 1.9 -0.8
v -2 1.9 -2
v -2 2 2
v -2 2 0.7
v -2 2 0.6
v -2 2 -0.7
v -2 2 -0.8
v -2 2 -2
v -2 2.1 2
v -2 2.1 -2
v -2 2.4 2
v -2 2.4 -2
v -2 2.5 2
v -2 2.5 -2
v -2 2.6 2
v -2 2.6 0.7
v -2 2.6 0.6
v -2 2.6 -0.7
v -2 2.6 -0.8
v -2 2.6 -2
v -2 2.9 2
v -2 2.9 0.7
v -2 2.9 0.6
v -2 2.9 -0.7
v -2 2.9 -0.8
v -2 2.9 -2
v -2 3 2
v -2 3 0.7
v -2 3 0.6
v -2 3 -0.7
v -2 3 -0.8
v -2 3 -2
v -2 3.1 2
v -2 3.1 -2
v -2 3.4 2
v -2 3.4 -2
v -2 3.5 2
v -2 3.5 -2
v -2 3.6 2
v -2 3.6 0.7
v -2 3.6 0.6
v -2 3.6 -0.7
v -2 3.6 -0.8
v -2 3.6 -2
v -2 3.9 2
v -2 3.9 0.7
v -2 3.9 0.6
v -2 3.9 -0.7
v -2 3.9 -0.8
v -2 3.9 -2
v -2 4 2
v -2 4 0.7
v -2 4 0.6
v -2 4 -0.7
v -2 4 -0.8
v -2 4 -2
v 2 0 2
v 2 0 -2
v 2 0.1 2
v 2 0.1 -2
v 2 0.4 2
v 2 0.4 -2
v 2 0.5 2
v 2 0.5 -2
v 2 0.6 2
v 2 0.6 0.7
v 2 0.6 0.6
v 2 0.6 -0.7
v 2 0.6 -0.8
v 2 0.6 -2
v 2 0.9 2
v 2 0.9 0.7
v 2 0.9 0.6
v 2 0.9 -0.7
v 2 0.9 -0.8
v 2 0.9 -2
v 2 1 2
v 2 1 0.7
v 2 1 0.6
v 2 1 -0.7
v 2 1 -0.8
v 2 1 -2
v 2 1.1 2
v 2 1.1 -2
v 2 1.4 2
v 2 1.4 -2
v 2 1.5 2
v 2 1.5 -2
v 2 1.6 2
v 2 1.6 0.7
v 2 1.6 0.6
v 2 1.6 -0.7
v 2 1.6 -0.8
v 2 1.6 -2
v 2 1.9 2
v 2 1.9 0.7
v 2 1.9 0.6
v 2 1.9 -0.7
v 2 1.9 -0.8
v 2 1.9 -2
v 2 2 2
v 2 2 0.7
v 2 2 0.6
v 2 2 -0.7
v 2 2 -0.8
v 2 2 -2
v 2 2.1 2
v 2 2.1 -2
v 2 2.4 2
v 2 2.4 -2
v 2 2.5 2
v 2 2.5 -2
v 2 2.6 2
v 2 2.6 0.7
v 2 2.6 0.6
v 2 2.6 -0.7
v 2 2.6 -0.8
v 2 2.6 -2
v 2 2.9 2
v 2 2.9 0.7
v 2 2.9 0.6
v 2 2.9 -0.7
v 2 2.9 -0.8
v 2 2.9 -2
v 2 3 2
v 2 3 0.7
v 2 3 0.6
v 2 3 -0.7
v 2 3 -0.8
v 2 3 -2
v 2 3.1 2
v 2 3.1 -2
v 2 3.4 2
v 2 3.4 -2
v 2 3.5 2
v 2 3.5 -2
v 2 3.6 2
v 2 3.6 0.7
v 2 3.6 0.6
v 2 3.6 -0.7
v 2 3.6 -0.8
v 2 3.6 -2
v 2 3.9 2
v 2 3.9 0.7
v 2 3.9 0.6
v 2 3.9 -0.7
v 2 3.9 -0.8
v 2 3.9 -2
v 2 4 2
v 2 4 0.7
v 2 4 0.6
v 2 4 -0.7
v 2 4 -0.8
v 2 4 -2
v -2 0 2
v -2 0.1 2
v -2 0.4 2
v -2 0.5 2
v -2 0.6 2
v -2 0.9 2
v -2 1 2
v -2 1.1 2
v -2 1.4 2
v -2 1.5 2
v -2 1.6 2
v -2 1.9 2
v -2 2 2
v -2 2.1 2
v -2 2.4 2
v -2 2.5 2
v -2 2.6 2
v -2 2.9 2
v -2 3 2
v -2 3.1 2
v -2 3.4 2
v -2 3.5 2
v -2 3.6 2
v -2 3.9 2
v -2 4 2
v -0.7 0.1 2
v -0.7 0.4 2
v -0.7 0.5 2
v -0.7 1.1 2
v -0.7 1.4 2
v -0.7 1.5 2
v -0.7 2.1 2
v -0.7 2.4 2
v -0.7 2.5 2
v -0.7 3.1 2
v -0.7 3.4 2
v -0.7 3.5 2
v -0.6 0.1 2
v -0.6 0.4 2
v -0.6 0.5 2
v -0.6 1.1 2
v -0.6 1.4 2
v -0.6 1.5 2
v -0.6 2.1 2
v -0.6 2.4 2
v -0.6 2.5 2
v -0.6 3.1 2
v -0.6 3.4 2
v -0.6 3.5 2
v 0.7 0.1 2
v 0.7 0.4 2
v 0.7 0.5 2
v 0.7 1.1 2
v 0.7 1.4 2
v 0.7 1.5 2
v 0.7 2.1 2
v 0.7 2.4 2
v 0.7 2.5 2
v 0.7 3.1 2
v 0.7 3.4 2
v 0.7 3.5 2
v 0.8 0.1 2
v 0.8 0.4 2
v 0.8 0.5 2
v 0.8 1.1 2
v 0.8 1.4 2
v 0.8 1.5 2
v 0.8 2.1 2
v 0.8 2.4 2
v 0.8 2.5 2
v 0.8 3.1 2
v 0.8 3.4 2
v 0.8 3.5 2
v 2 0 2
v 2 0.1 2
v 2 0.4 2
v 2 0.5 2
v 2 0.6 2
v 2 0.9 2
v 2 1 2
v 2 1.1 2
v 2 1.4 2
v 2 1.5 2
v 2 1.6 2
v 2 1.9 2
v 2 2 2
v 2 2.1 2
v 2 2.4 2
v 2 2.5 2
v 2 2.6 2
v 2 2.9 2
v 2 3 2
v 2 3.1 2
v 2 3.4 2
v 2 3.5 2
v 2 3.6 2
v 2 3.9 2
v 2 4 2
v -2 0 -2
v -2 0.1 -2
v -2 0.4 -2
v -2 0.5 -2
v -2 0.6 -2
v -2 0.9 -2
v -2 1 -2
v -2 1.1 -2
v -2 1.4 -2
v -2 1.5 -2
v -2 1.6 -2
v -2 1.9 -2
v -2 2 -2
v -2 2.1 -2
v -2 2.4 -2
v -2 2.5 -2
v -2 2.6 -2
v -2 2.9 -2
v -2 3 -2
v -2 3.1 -2
v -2 3.4 -2
v -2 3.5 -2
v -2 3.6 -2
v -2 3.9 -2
v -2 4 -2
v -0.7 0.1 -2
v -0.7 0.4 -2
v -0.7 0.5 -2
v -0.7 1.1 -2
v -0.7 1.4 -2
v -0.7 1.5 -2
v -0.7 2.1 -2
v -0.7 2.4 -2
v -0.7 2.5 -2
v -0.7 3.1 -2
v -0.7 3.4 -2
v -0.7 3.5 -2
v -0.6 0.1 -2
v -0.6 0.4 -2
v -0.6 0.5 -2
v -0.6 1.1 -2
v -0.6 1.4 -2
v -0.6 1.5 -2
v -0.6 2.1 -2
v -0.6 2.4 -2
v -0.6 2.5 -2
v -0.6 3.1 -2
v -0.6 3.4 -2
v -0.6 3.5 -2
v 0.7 0.1 -2
v 0.7 0.4 -2
v 0.7 0.5 -2
v 0.7 1.1 -2
v 0.7 1.4 -2
v 0.7 1.5 -2
v 0.7 2.1 -2
v 0.7 2.4 -2
v 0.7 2.5 -2
v 0.7 3.1 -2
v 0.7 3.4 -2
v 0.7 3.5 -2
v 0.8 0.1 -2
v 0.8 0.4 -2
v 0.8 0.5 -2
v 0.8 1.1 -2
v 0.8 1.4 -2
v 0.8 1.5 -2
v 0.8 2.1 -2
v 0.8 2.4 -2
v 0.8 2.5 -2
v 0.8 3.1 -2
v 0.8 3.4 -2
v 0.8 3.5 -2
v 2 0 -2
v 2 0.1 -2
v 2 0.4 -2
v 2 0.5 -2
v 2 0.6 -2
v 2 0.9 -2
v 2 1 -2
v 2 1.1 -2
v 2 1.4 -2
v 2 1.5 -2
v 2 1.6 -2
v 2 1.9 -2
v 2 2 -2
v 2 2.1 -2
v 2 2.4 -2
v 2 2.5 -2
v 2 2.6 -2
v 2 2.9 -2
v 2 3 -2
v 2 3.1 -2
v 2 3.4 -2
v 2 3.5 -2
v 2 3.6 -2
v 2 3.9 -2
v 2 4 -2
v -2 0 2
v 2 0 2
v -1.9 0 1.9
v -0.7 0 1.9
v -0.6 0 1.9
v 0.7 0 1.9
v 0.8 0 1.9
v 1.9 0 1.9
v -1.9 0 -1.9
v -0.7 0 -1.9
v -0.6 0 -1.9
v 0.7 0 -1.9
v 0.8 0 -1.9
v 1.9 0 -1.9
v -2 0 -2
v 2 0 -2
v -2 4 2
v 2 4 2
v -1.9 4 1.9
v 1.9 4 1.9
v 0.7 4 1.6
v 1.3 4 1.6
v 1.7 4 1.6
v 1.9 4 1.6
v 0.7 4 1.5
v 1.3 4 1.5
v 1.7 4 1.5
v 1.9 4 1.5
v -1.9 4 1.2
v -1.1 4 1.2
v -0.9 4 1.2
v -0.8 4 1.2
v -1.9 4 1.1
v -1.1 4 1.1
v -0.9 4 1.1
v -0.8 4 1.1
v -1.9 4 0.8
v 1.9 4 0.8
v -2 4 0.7
v 2 4 0.7
v -2 4 0.6
v 2 4 0.6
v -1.9 4 0.5
v 1.9 4 0.5
v 1.8 4 -2.38419e-07
v 1.9 4 -2.38419e-07
v 1.8 4 -0.1
v 1.9 4 -0.1
v 0.8 4 -0.2
v 0.9 4 -0.2
v 1.4 4 -0.2
v 1.9 4 -0.2
v 0.8 4 -0.3
v 0.9 4 -0.3
v 1.4 4 -0.3
v 1.9 4 -0.3
v -1.9 4 -0.6
v 1.9 4 -0.6
v -2 4 -0.7
v 2 4 -0.7
v -2 4 -0.8
v 2 4 -0.8
v -1.9 4 -0.9
v 1.9 4 -0.9
v -1.9 4 -1.1
v -1.7 4 -1.1
v -1.9 4 -1.2
v -1.7 4 -1.2
v -1.9 4 -1.3
v -1 4 -1.3
v -0.2 4 -1.3
v 2.38419e-07 4 -1.3
v -1.9 4 -1.4
v -1 4 -1.4
v -0.2 4 -1.4
v 2.38419e-07 4 -1.4
v 1.7 4 -1.6
v 1.9 4 -1.6
v 1.7 4 -1.7
v 1.9 4 -1.7
v -1.9 4 -1.9
v 1.9 4 -1.9
v -2 4 -2
v 2 4 -2

# faces
f 3/1/1 2/1/1 1/1/1
f 4/1/1 2/1/1 3/1/1
f 5/2/1 4/2/1 3/2/1
f 6/2/1 4/2/1 5/2/1
f 7/3/1 6/3/1 5/3/1
f 8/3/1 6/3/1 7/3/1
f 9/1/1 8/1/1 7/1/1
f 10/1/1 8/1/1 9/1/1
f 11/1/1 8/1/1 10/1/1
f 12/1/1 8/1/1 11/1/1
f 13/1/1 8/1/1 12/1/1
f 14/1/1 8/1/1 13/1/1
f 15/2/1 10/2/1 9/2/1
f 16/1/1 11/1/1 10/1/1
f 16/2/1 10/2/1 15/2/1
f 17/2/1 12/2/1 11/2/1
f 17/1/1 11/1/1 16/1/1
f 18/1/1 13/1/1 12/1/1
f 18/2/1 12/2/1 17/2/1
f 19/2/1 14/2/1 13/2/1
f 19/1/1 13/1/1 18/1/1
f 20/2/1 14/2/1 19/2/1
f 21/3/1 16/3/1 15/3/1
f 22/1/1 17/1/1 16/1/1
f 22/3/1 16/3/1 21/3/1
f 23/3/1 18/3/1 17/3/1
f 23/1/1 17/1/1 22/1/1
f 24/1/1 19/1/1 18/1/1
f 24/3/1 18/3/1 23/3/1
f 25/3/1 20/3/1 19/3/1
f 25/1/1 19/1/1 24/1/1
f 26/3/1 20/3/1 25/3/1
f 27/1/1 22/1/1 21/1/1
f 27/1/1 23/1/1 22/1/1
f 27/1/1 26/1/1 25/1/1
f 27/1/1 25/1/1 24/1/1
f 27/1/1 24/1/1 23/1/1
f 28/1/1 26/1/1 27/1/1
f 29/2/1 28/2/1 27/2/1
f 30/2/1 28/2/1 29/2/1
f 31/3/1 30/3/1 29/3/1
f 32/3/1 30/3/1 31/3/1
f 33/1/1 32/1/1 31/1/1
f 34/1/1 32/1/1 33/1/1
f 35/1/1 32/1/1 34/1/1
f 36/1/1 32/1/1 35/1/1
f 37/1/1 32/1/1 36/1/1
f 38/1/1 32/1/1 37/1/1
f 39/2/1 34/2/1 33/2/1
f 40/1/1 35/1/1 34/1/1
f 40/2/1 34/2/1 39/2/1
f 41/2/1 36/2/1 35/2/1
f 41/1/1 35/1/1 40/1/1
f 42/1/1 37/1/1 36/1/1
f 42/2/1 36/2/1 41/2/1
f 43/2/1 38/2/1 37/2/1
f 43/1/1 37/1/1 42/1/1
f 44/2/1 38/2/1 43/2/1
f 45/3/1 40/3/1 39/3/1
f 46/1/1 41/1/1 40/1/1
f 46/3/1 40/3/1 45/3/1
f 47/3/1 42/3/1 41/3/1
f 47/1/1 41/1/1 46/1/1
f 48/1/1 43/1/1 42/1/1
f 48/3/1 42/3/1 47/3/1
f 49/3/1 44/3/1 43/3/1
f 49/1/1 43/1/1 48/1/1
f 50/3/1 44/3/1 49/3/1
f 51/1/1 46/1/1 45/1/1
f 51/1/1 47/1/1 46/1/1
f 51/1/1 50/1/1 49/1/1
f 51/1/1 49/1/1 48/1/1
f 51/1/1 48/1/1 47/1/1
f 52/1/1 50/1/1 51/1/1
f 53/2/1 52/2/1 51/2/1
f 54/2/1 52/2/1 53/2/1
f 55/3/1 54/3/1 53/3/1
f 56/3/1 54/3/1 55/3/1
f 57/1/1 56/1/1 55/1/1
f 58/1/1 56/1/1 57/1/1
f 59/1/1 56/1/1 58/1/1
f 60/1/1 56/1/1 59/1/1
f 61/1/1 56/1/1 60/1/1
f 62/1/1 56/1/1 61/1/1
f 63/2/1 58/2/1 57/2/1
f 64/1/1 59/1/1 58/1/1
f 64/2/1 58/2/1 63/2/1
f 65/2/1 60/2/1 59/2/1
f 65/1/1 59/1/1 64/1/1
f 66/1/1 61/1/1 60/1/1
f 66/2/1 60/2/1 65/2/1
f 67/2/1 62/2/1 61/2/1
f 67/1/1 61/1/1 66/1/1
f 68/2/1 62/2/1 67/2/1
f 69/3/1 64/3/1 63/3/1
f 70/1/1 65/1/1 64/1/1
f 70/3/1 64/3/1 69/3/1
f 71/3/1 66/3/1 65/3/1
f 71/1/1 65/1/1 70/1/1
f 72/1/1 67/1/1 66/1/1
f 72/3/1 66/3/1 71/3/1
f 73/3/1 68/3/1 67/3/1
f 73/1/1 67/1/1 72/1/1
f 74/3/1 68/3/1 73/3/1
f 75/1/1 70/1/1 69/1/1
f 75/1/1 71/1/1 70/1/1
f 75/1/1 74/1/1 73/1/1
f 75/1/1 73/1/1 72/1/1
f 75/1/1 72/1/1 71/1/1
f 76/1/1 74/1/1 75/1/1
f 77/2/1 76/2/1 75/2/1
f 78/2/1 76/2/1 77/2/1
f 79/3/1 78/3/1 77/3/1
f 80/3/1 78/3/1 79/3/1
f 81/1/1 80/1/1 79/1/1
f 82/1/1 80/1/1 81/1/1
f 83/1/1 80/1/1 82/1/1
f 84/1/1 80/1/1 83/1/1
f 85/1/1 80/1/1 84/1/1
f 86/1/1 80/1/1 85/1/1
f 87/2/1 82/2/1 81/2/1
f 88/1/1 83/1/1 82/1/1
f 88/2/1 82/2/1 87/2/1
f 89/2/1 84/2/1 83/2/1
f 89/1/1 83/1/1 88/1/1
f 90/1/1 85/1/1 84/1/1
f 90/2/1 84/2/1 89/2/1
f 91/2/1 86/2/1 85/2/1
f 91/1/1 85/1/1 90/1/1
f 92/2/1 86/2/1 91/2/1
f 93/3/1 88/3/1 87/3/1
f 94/1/1 89/1/1 88/1/1
f 94/3/1 88/3/1 93/3/1
f 95/3/1 90/3/1 89/3/1
f 95/1/1 89/1/1 94/1/1
f 96/1/1 91/1/1 90/1/1
f 96/3/1 90/3/1 95/3/1
f 97/3/1 92/3/1 91/3/1
f 97/1/1 91/1/1 96/1/1
f 98/3/1 92/3/1 97/3/1
f 99/1/2 100/1/2 101/1/2
f 101/1/2 100/1/2 102/1/2
f 101/2/2 102/2/2 103/2/2
f 103/2/2 102/2/2 104/2/2
f 103/3/2 104/3/2 105/3/2
f 105/3/2 104/3/2 106/3/2
f 105/1/2 106/1/2 107/1/2
f 107/1/2 106/1/2 108/1/2
f 108/1/2 106/1/2 109/1/2
f 109/1/2 106/1/2 110/1/2
f 110/1/2 106/1/2 111/1/2
f 111/1/2 106/1/2 112/1/2
f 107/2/2 108/2/2 113/2/2
f 108/1/2 109/1/2 114/1/2
f 113/2/2 108/2/2 114/2/2
f 109/2/2 110/2/2 115/2/2
f 114/1/2 109/1/2 115/1/2
f 110/1/2 111/1/2 116/1/2
f 115/2/2 110/2/2 116/2/2
f 111/2/2 112/2/2 117/2/2
f 116/1/2 111/1/2 117/1/2
f 117/2/2 112/2/2 118/2/2
f 113/3/2 114/3/2 119/3/2
f 114/1/2 115/1/2 120/1/2
f 119/3/2 114/3/2 120/3/2
f 115/3/2 116/3/2 121/3/2
f 120/1/2 115/1/2 121/1/2
f 116/1/2 117/1/2 122/1/2
f 121/3/2 116/3/2 122/3/2
f 117/3/2 118/3/2 123/3/2
f 122/1/2 117/1/2 123/1/2
f 123/3/2 118/3/2 124/3/2
f 119/1/2 120/1/2 125/1/2
f 120/1/2 121/1/2 125/1/2
f 123/1/2 124/1/2 125/1/2
f 122/1/2 123/1/2 125/1/2
f 121/1/2 122/1/2 125/1/2
f 125/1/2 124/1/2 126/1/2
f 125/2/2 126/2/2 127/2/2
f 127/2/2 126/2/2 128/2/2
f 127/3/2 128/3/2 129/3/2
f 129/3/2 128/3/2 130/3/2
f 129/1/2 130/1/2 131/1/2
f 131/1/2 130/1/2 132/1/2
f 132/1/2 130/1/2 133/1/2
f 133/1/2 130/1/2 134/1/2
f 134/1/2 130/1/2 135/1/2
f 135/1/2 130/1/2 136/1/2
f 131/2/2 132/2/2 137/2/2
f 132/1/2 133/1/2 138/1/2
f 137/2/2 132/2/2 138/2/2
f 133/2/2 134/2/2 139/2/2
f 138/1/2 133/1/2 139/1/2
f 134/1/2 135/1/2 140/1/2
f 139/2/2 134/2/2 140/2/2
f 135/2/2 136/2/2 141/2/2
f 140/1/2 135/1/2 141/1/2
f 141/2/2 136/2/2 142/2/2
f 137/3/2 138/3/2 143/3/2
f 138/1/2 139/1/2 144/1/2
f 143/3/2 138/3/2 144/3/2
f 139/3/2 140/3/2 145/3/2
f 144/1/2 139/1/2 145/1/2
f 140/1/2 141/1/2 146/1/2
f 145/3/2 140/3/2 146/3/2
f 141/3/2 142/3/2 147/3/2
f 146/1/2 141/1/2 147/1/2
f 147/3/2 142/3/2 148/3/2
f 143/1/2 144/1/2 149/1/2
f 144/1/2 145/1/2 149/1/2
f 147/1/2 148/1/2 149/1/2
f 146/1/2 147/1/2 149/1/2
f 145/1/2 146/1/2 149/1/2
f 149/1/2 148/1/2 150/1/2
f 149/2/2 150/2/2 151/2/2
f 151/2/2 150/2/2 152/2/2
f 151/3/2 152/3/2 153/3/2
f 153/3/2 152/3/2 154/3/2
f 153/1/2 154/1/2 155/1/2
f 155/1/2 154/1/2 156/1/2
f 156/1/2 154/1/2 157/1/2
f 157/1/2 154/1/2 158/1/2
f 158/1/2 154/1/2 159/1/2
f 159/1/2 154/1/2 160/1/2
f 155/2/2 156/2/2 161/2/2
f 156/1/2 157/1/2 162/1/2
f 161/2/2 156/2/2 162/2/2
f 157/2/2 158/2/2 163/2/2
f 162/1/2 157/1/2 163/1/2
f 158/1/2 159/1/2 164/1/2
f 163/2/2 158/2/2 164/2/2
f 159/2/2 160/2/2 165/2/2
f 164/1/2 159/1/2 165/1/2
f 165/2/2 160/2/2 166/2/2
f 161/3/2 162/3/2 167/3/2
f 162/1/2 163/1/2 168/1/2
f 167/3/2 162/3/2 168/3/2
f 163/3/2 164/3/2 169/3/2
f 168/1/2 163/1/2 169/1/2
f 164/1/2 165/1/2 170/1/2
f 169/3/2 164/3/2 170/3/2
f 165/3/2 166/3/2 171/3/2
f 170/1/2 165/1/2 171/1/2
f 171/3/2 166/3/2 172/3/2
f 167/1/2 168/1/2 173/1/2
f 168/1/2 169/1/2 173/1/2
f 171/1/2 172/1/2 173/1/2
f 170/1/2 171/1/2 173/1/2
f 169/1/2 170/1/2 173/1/2
f 173/1/2 172/1/2 174/1/2
f 173/2/2 174/2/2 175/2/2
f 175/2/2 174/2/2 176/2/2
f 175/3/2 176/3/2 177/3/2
f 177/3/2 176/3/2 178/3/2
f 177/1/2 178/1/2 179/1/2
f 179/1/2 178/1/2 180/1/2
f 180/1/2 178/1/2 181/1/2
f 181/1/2 178/1/2 182/1/2
f 182/1/2 178/1/2 183/1/2
f 183/1/2 178/1/2 184/1/2
f 179/2/2 180/2/2 185/2/2
f 180/1/2 181/1/2 186/1/2
f 185/2/2 180/2/2 186/2/2
f 181/2/2 182/2/2 187/2/2
f 186/1/2 181/1/2 187/1/2
f 182/1/2 183/1/2 188/1/2
f 187/2/2 182/2/2 188/2/2
f 183/2/2 184/2/2 189/2/2
f 188/1/2 183/1/2 189/1/2
f 189/2/2 184/2/2 190/2/2
f 185/3/2 186/3/2 191/3/2
f 186/1/2 187/1/2 192/1/2
f 191/3/2 186/3/2 192/3/2
f 187/3/2 188/3/2 193/3/2
f 192/1/2 187/1/2 193/1/2
f 188/1/2 189/1/2 194/1/2
f 193/3/2 188/3/2 194/3/2
f 189/3/2 190/3/2 195/3/2
f 194/1/2 189/1/2 195/1/2
f 195/3/2 190/3/2 196/3/2
f 222/1/3 198/1/3 197/1/3
f 222/2/3 199/2/3 198/2/3
f 223/3/3 200/3/3 199/3/3
f 223/2/3 199/2/3 222/2/3
f 224/1/3 201/1/3 200/1/3
f 224/3/3 200/3/3 223/3/3
f 225/1/3 204/1/3 203/1/3
f 225/2/3 205/2/3 204/2/3
f 226/3/3 206/3/3 205/3/3
f 226/2/3 205/2/3 225/2/3
f 227/1/3 207/1/3 206/1/3
f 227/3/3 206/3/3 226/3/3
f 228/1/3 210/1/3 209/1/3
f 228/2/3 211/2/3 210/2/3
f 229/3/3 212/3/3 211/3/3
f 229/2/3 211/2/3 228/2/3
f 230/1/3 213/1/3 212/1/3
f 230/3/3 212/3/3 229/3/3
f 231/1/3 216/1/3 215/1/3
f 231/2/3 217/2/3 216/2/3
f 232/3/3 218/3/3 217/3/3
f 232/2/3 217/2/3 231/2/3
f 233/1/3 219/1/3 218/1/3
f 233/3/3 218/3/3 232/3/3
f 234/1/3 222/1/3 197/1/3
f 234/1/3 223/1/3 222/1/3
f 234/1/3 224/1/3 223/1/3
f 235/1/3 224/1/3 234/1/3
f 236/1/3 201/1/3 224/1/3
f 236/1/3 224/1/3 235/1/3
f 237/1/3 225/1/3 203/1/3
f 237/1/3 226/1/3 225/1/3
f 237/1/3 227/1/3 226/1/3
f 238/1/3 227/1/3 237/1/3
f 239/1/3 207/1/3 227/1/3
f 239/1/3 227/1/3 238/1/3
f 240/1/3 228/1/3 209/1/3
f 240/1/3 229/1/3 228/1/3
f 240/1/3 230/1/3 229/1/3
f 241/1/3 230/1/3 240/1/3
f 242/1/3 213/1/3 230/1/3
f 242/1/3 230/1/3 241/1/3
f 243/1/3 233/1/3 232/1/3
f 243/1/3 232/1/3 231/1/3
f 243/1/3 231/1/3 215/1/3
f 244/1/3 233/1/3 243/1/3
f 245/1/3 219/1/3 233/1/3
f 245/1/3 233/1/3 244/1/3
f 246/2/3 235/2/3 234/2/3
f 246/1/3 234/1/3 197/1/3
f 247/3/3 236/3/3 235/3/3
f 247/2/3 235/2/3 246/2/3
f 248/1/3 201/1/3 236/1/3
f 248/3/3 236/3/3 247/3/3
f 249/2/3 238/2/3 237/2/3
f 249/1/3 237/1/3 203/1/3
f 250/3/3 239/3/3 238/3/3
f 250/2/3 238/2/3 249/2/3
f 251/1/3 207/1/3 239/1/3
f 251/3/3 239/3/3 250/3/3
f 252/2/3 241/2/3 240/2/3
f 252/1/3 240/1/3 209/1/3
f 253/3/3 242/3/3 241/3/3
f 253/2/3 241/2/3 252/2/3
f 254/1/3 213/1/3 242/1/3
f 254/3/3 242/3/3 253/3/3
f 255/2/3 244/2/3 243/2/3
f 255/1/3 243/1/3 215/1/3
f 256/3/3 245/3/3 244/3/3
f 256/2/3 244/2/3 255/2/3
f 257/1/3 219/1/3 245/1/3
f 257/3/3 245/3/3 256/3/3
f 258/1/3 247/1/3 246/1/3
f 258/1/3 246/1/3 197/1/3
f 258/1/3 248/1/3 247/1/3
f 259/1/3 248/1/3 258/1/3
f 260/1/3 201/1/3 248/1/3
f 260/1/3 248/1/3 259/1/3
f 261/1/3 250/1/3 249/1/3
f 261/1/3 249/1/3 203/1/3
f 261/1/3 251/1/3 250/1/3
f 262/1/3 251/1/3 261/1/3
f 263/1/3 207/1/3 251/1/3
f 263/1/3 251/1/3 262/1/3
f 264/1/3 253/1/3 252/1/3
f 264/1/3 252/1/3 209/1/3
f 264/1/3 254/1/3 253/1/3
f 265/1/3 254/1/3 264/1/3
f 266/1/3 213/1/3 254/1/3
f 266/1/3 254/1/3 265/1/3
f 267/1/3 256/1/3 255/1/3
f 267/1/3 257/1/3 256/1/3
f 267/1/3 255/1/3 215/1/3
f 268/1/3 257/1/3 267/1/3
f 269/1/3 219/1/3 257/1/3
f 269/1/3 257/1/3 268/1/3
f 270/1/3 258/1/3 197/1/3
f 271/2/3 259/2/3 258/2/3
f 271/1/3 258/1/3 270/1/3
f 272/3/3 260/3/3 259/3/3
f 272/2/3 259/2/3 271/2/3
f 273/1/3 201/1/3 260/1/3
f 273/3/3 260/3/3 272/3/3
f 274/2/3 202/2/3 201/2/3
f 274/1/3 201/1/3 273/1/3
f 275/3/3 203/3/3 202/3/3
f 275/2/3 202/2/3 274/2/3
f 276/1/3 261/1/3 203/1/3
f 276/3/3 203/3/3 275/3/3
f 277/2/3 262/2/3 261/2/3
f 277/1/3 261/1/3 276/1/3
f 278/3/3 263/3/3 262/3/3
f 278/2/3 262/2/3 277/2/3
f 279/1/3 207/1/3 263/1/3
f 279/3/3 263/3/3 278/3/3
f 280/2/3 208/2/3 207/2/3
f 280/1/3 207/1/3 279/1/3
f 281/3/3 209/3/3 208/3/3
f 281/2/3 208/2/3 280/2/3
f 282/1/3 264/1/3 209/1/3
f 282/3/3 209/3/3 281/3/3
f 283/2/3 265/2/3 264/2/3
f 283/1/3 264/1/3 282/1/3
f 284/3/3 266/3/3 265/3/3
f 284/2/3 265/2/3 283/2/3
f 285/1/3 213/1/3 266/1/3
f 285/3/3 266/3/3 284/3/3
f 286/2/3 214/2/3 213/2/3
f 286/1/3 213/1/3 285/1/3
f 287/3/3 215/3/3 214/3/3
f 287/2/3 214/2/3 286/2/3
f 288/1/3 267/1/3 215/1/3
f 288/3/3 215/3/3 287/3/3
f 289/2/3 268/2/3 267/2/3
f 289/1/3 267/1/3 288/1/3
f 290/3/3 269/3/3 268/3/3
f 290/2/3 268/2/3 289/2/3
f 291/1/3 219/1/3 269/1/3
f 291/3/3 269/3/3 290/3/3
f 292/2/3 220/2/3 219/2/3
f 292/1/3 219/1/3 291/1/3
f 293/3/3 221/3/3 220/3/3
f 293/2/3 220/2/3 292/2/3
f 294/3/3 221/3/3 293/3/3
f 295/1/4 296/1/4 320/1/4
f 296/2/4 297/2/4 320/2/4
f 297/3/4 298/3/4 321/3/4
f 320/2/4 297/2/4 321/2/4
f 298/1/4 299/1/4 322/1/4
f 321/3/4 298/3/4 322/3/4
f 301/1/4 302/1/4 323/1/4
f 302/2/4 303/2/4 323/2/4
f 303/3/4 304/3/4 324/3/4
f 323/2/4 303/2/4 324/2/4
f 304/1/4 305/1/4 325/1/4
f 324/3/4 304/3/4 325/3/4
f 307/1/4 308/1/4 326/1/4
f 308/2/4 309/2/4 326/2/4
f 309/3/4 310/3/4 327/3/4
f 326/2/4 309/2/4 327/2/4
f 310/1/4 311/1/4 328/1/4
f 327/3/4 310/3/4 328/3/4
f 313/1/4 314/1/4 329/1/4
f 314/2/4 315/2/4 329/2/4
f 315/3/4 316/3/4 330/3/4
f 329/2/4 315/2/4 330/2/4
f 316/1/4 317/1/4 331/1/4
f 330/3/4 316/3/4 331/3/4
f 295/1/4 320/1/4 332/1/4
f 320/1/4 321/1/4 332/1/4
f 321/1/4 322/1/4 332/1/4
f 332/1/4 322/1/4 333/1/4
f 322/1/4 299/1/4 334/1/4
f 333/1/4 322/1/4 334/1/4
f 301/1/4 323/1/4 335/1/4
f 323/1/4 324/1/4 335/1/4
f 324/1/4 325/1/4 335/1/4
f 335/1/4 325/1/4 336/1/4
f 325/1/4 305/1/4 337/1/4
f 336/1/4 325/1/4 337/1/4
f 307/1/4 326/1/4 338/1/4
f 326/1/4 327/1/4 338/1/4
f 327/1/4 328/1/4 338/1/4
f 338/1/4 328/1/4 339/1/4
f 328/1/4 311/1/4 340/1/4
f 339/1/4 328/1/4 340/1/4
f 330/1/4 331/1/4 341/1/4
f 329/1/4 330/1/4 341/1/4
f 313/1/4 329/1/4 341/1/4
f 341/1/4 331/1/4 342/1/4
f 331/1/4 317/1/4 343/1/4
f 342/1/4 331/1/4 343/1/4
f 332/2/4 333/2/4 344/2/4
f 295/1/4 332/1/4 344/1/4
f 333/3/4 334/3/4 345/3/4
f 344/2/4 333/2/4 345/2/4
f 334/1/4 299/1/4 346/1/4
f 345/3/4 334/3/4 346/3/4
f 335/2/4 336/2/4 347/2/4
f 301/1/4 335/1/4 347/1/4
f 336/3/4 337/3/4 348/3/4
f 347/2/4 336/2/4 348/2/4
f 337/1/4 305/1/4 349/1/4
f 348/3/4 337/3/4 349/3/4
f 338/2/4 339/2/4 350/2/4
f 307/1/4 338/1/4 350/1/4
f 339/3/4 340/3/4 351/3/4
f 350/2/4 339/2/4 351/2/4
f 340/1/4 311/1/4 352/1/4
f 351/3/4 340/3/4 352/3/4
f 341/2/4 342/2/4 353/2/4
f 313/1/4 341/1/4 353/1/4
f 342/3/4 343/3/4 354/3/4
f 353/2/4 342/2/4 354/2/4
f 343/1/4 317/1/4 355/1/4
f 354/3/4 343/3/4 355/3/4
f 344/1/4 345/1/4 356/1/4
f 295/1/4 344/1/4 356/1/4
f 345/1/4 346/1/4 356/1/4
f 356/1/4 346/1/4 357/1/4
f 346/1/4 299/1/4 358/1/4
f 357/1/4 346/1/4 358/1/4
f 347/1/4 348/1/4 359/1/4
f 301/1/4 347/1/4 359/1/4
f 348/1/4 349/1/4 359/1/4
f 359/1/4 349/1/4 360/1/4
f 349/1/4 305/1/4 361/1/4
f 360/1/4 349/1/4 361/1/4
f 350/1/4 351/1/4 362/1/4
f 307/1/4 350/1/4 362/1/4
f 351/1/4 352/1/4 362/1/4
f 362/1/4 352/1/4 363/1/4
f 352/1/4 311/1/4 364/1/4
f 363/1/4 352/1/4 364/1/4
f 353/1/4 354/1/4 365/1/4
f 354/1/4 355/1/4 365/1/4
f 313/1/4 353/1/4 365/1/4
f 365/1/4 355/1/4 366/1/4
f 355/1/4 317/1/4 367/1/4
f 366/1/4 355/1/4 367/1/4
f 295/1/4 356/1/4 368/1/4
f 356/2/4 357/2/4 369/2/4
f 368/1/4 356/1/4 369/1/4
f 357/3/4 358/3/4 370/3/4
f 369/2/4 357/2/4 370/2/4
f 358/1/4 299/1/4 371/1/4
f 370/3/4 358/3/4 371/3/4
f 299/2/4 300/2/4 372/2/4
f 371/1/4 299/1/4 372/1/4
f 300/3/4 301/3/4 373/3/4
f 372/2/4 300/2/4 373/2/4
f 301/1/4 359/1/4 374/1/4
f 373/3/4 301/3/4 374/3/4
f 359/2/4 360/2/4 375/2/4
f 374/1/4 359/1/4 375/1/4
f 360/3/4 361/3/4 376/3/4
f 375/2/4 360/2/4 376/2/4
f 361/1/4 305/1/4 377/1/4
f 376/3/4 361/3/4 377/3/4
f 305/2/4 306/2/4 378/2/4
f 377/1/4 305/1/4 378/1/4
f 306/3/4 307/3/4 379/3/4
f 378/2/4 306/2/4 379/2/4
f 307/1/4 362/1/4 380/1/4
f 379/3/4 307/3/4 380/3/4
f 362/2/4 363/2/4 381/2/4
f 380/1/4 362/1/4 381/1/4
f 363/3/4 364/3/4 382/3/4
f 381/2/4 363/2/4 382/2/4
f 364/1/4 311/1/4 383/1/4
f 382/3/4 364/3/4 383/3/4
f 311/2/4 312/2/4 384/2/4
f 383/1/4 311/1/4 384/1/4
f 312/3/4 313/3/4 385/3/4
f 384/2/4 312/2/4 385/2/4
f 313/1/4 365/1/4 386/1/4
f 385/3/4 313/3/4 386/3/4
f 365/2/4 366/2/4 387/2/4
f 386/1/4 365/1/4 387/1/4
f 366/3/4 367/3/4 388/3/4
f 387/2/4 366/2/4 388/2/4
f 367/1/4 317/1/4 389/1/4
f 388/3/4 367/3/4 389/3/4
f 317/2/4 318/2/4 390/2/4
f 389/1/4 317/1/4 390/1/4
f 318/3/4 319/3/4 391/3/4
f 390/2/4 318/2/4 391/2/4
f 391/3/4 319/3/4 392/3/4
f 395/1/5 394/1/5 393/1/5
f 396/1/5 394/1/5 395/1/5
f 397/1/5 394/1/5 396/1/5
f 398/1/5 394/1/5 397/1/5
f 399/1/5 394/1/5 398/1/5
f 400/1/5 394/1/5 399/1/5
f 401/1/5 395/1/5 393/1/5
f 401/2/5 396/2/5 395/2/5
f 402/1/5 397/1/5 396/1/5
f 402/2/5 396/2/5 401/2/5
f 403/2/5 398/2/5 397/2/5
f 403/1/5 397/1/5 402/1/5
f 404/1/5 399/1/5 398/1/5
f 404/2/5 398/2/5 403/2/5
f 405/2/5 400/2/5 399/2/5
f 405/1/5 399/1/5 404/1/5
f 406/1/5 394/1/5 400/1/5
f 406/2/5 400/2/5 405/2/5
f 407/1/5 405/1/5 404/1/5
f 407/1/5 404/1/5 403/1/5
f 407/1/5 406/1/5 405/1/5
f 407/1/5 403/1/5 402/1/5
f 407/1/5 402/1/5 401/1/5
f 407/1/5 401/1/5 393/1/5
f 408/1/5 394/1/5 406/1/5
f 408/1/5 406/1/5 407/1/5
f 409/3/6 410/3/6 411/3/6
f 411/3/6 410/3/6 412/3/6
f 411/2/6 412/2/6 413/2/6
f 413/2/6 412/2/6 414/2/6
f 414/2/6 412/2/6 415/2/6
f 412/3/6 410/3/6 416/3/6
f 415/2/6 412/2/6 416/2/6
f 411/2/6 413/2/6 417/2/6
f 413/3/6 414/3/6 417/3/6
f 414/2/6 415/2/6 418/2/6
f 417/3/6 414/3/6 418/3/6
f 415/3/6 416/3/6 419/3/6
f 418/2/6 415/2/6 419/2/6
f 416/3/6 410/3/6 420/3/6
f 419/3/6 416/3/6 420/3/6
f 409/3/6 411/3/6 421/3/6
f 411/2/6 417/2/6 421/2/6
f 419/2/6 420/2/6 421/2/6
f 417/2/6 418/2/6 421/2/6
f 418/2/6 419/2/6 421/2/6
f 421/2/6 420/2/6 422/2/6
f 422/2/6 420/2/6 423/2/6
f 423/2/6 420/2/6 424/2/6
f 409/3/6 421/3/6 425/3/6
f 421/3/6 422/3/6 425/3/6
f 422/2/6 423/2/6 426/2/6
f 425/3/6 422/3/6 426/3/6
f 423/3/6 424/3/6 427/3/6
f 426/2/6 423/2/6 427/2/6
f 424/2/6 420/2/6 428/2/6
f 427/3/6 424/3/6 428/3/6
f 426/2/6 427/2/6 429/2/6
f 425/2/6 426/2/6 429/2/6
f 427/2/6 428/2/6 429/2/6
f 409/3/6 425/3/6 429/3/6
f 420/3/6 410/3/6 430/3/6
f 429/2/6 428/2/6 430/2/6
f 428/2/6 420/2/6 430/2/6
f 409/3/6 429/3/6 431/3/6
f 429/3/6 430/3/6 431/3/6
f 430/3/6 410/3/6 432/3/6
f 431/3/6 430/3/6 432/3/6
f 431/1/6 432/1/6 433/1/6
f 433/1/6 432/1/6 434/1/6
f 433/3/6 434/3/6 435/3/6
f 435/3/6 434/3/6 436/3/6
f 435/2/6 436/2/6 437/2/6
f 436/3/6 434/3/6 438/3/6
f 437/2/6 436/2/6 438/2/6
f 435/2/6 437/2/6 439/2/6
f 437/3/6 438/3/6 439/3/6
f 438/3/6 434/3/6 440/3/6
f 439/3/6 438/3/6 440/3/6
f 435/2/6 439/2/6 441/2/6
f 439/2/6 440/2/6 441/2/6
f 441/2/6 440/2/6 442/2/6
f 442/2/6 440/2/6 443/2/6
f 440/3/6 434/3/6 444/3/6
f 443/2/6 440/2/6 444/2/6
f 435/2/6 441/2/6 445/2/6
f 441/3/6 442/3/6 445/3/6
f 442/2/6 443/2/6 446/2/6
f 445/3/6 442/3/6 446/3/6
f 443/3/6 444/3/6 447/3/6
f 446/2/6 443/2/6 447/2/6
f 444/3/6 434/3/6 448/3/6
f 447/3/6 444/3/6 448/3/6
f 433/3/6 435/3/6 449/3/6
f 435/2/6 445/2/6 449/2/6
f 447/2/6 448/2/6 449/2/6
f 445/2/6 446/2/6 449/2/6
f 446/2/6 447/2/6 449/2/6
f 448/3/6 434/3/6 450/3/6
f 449/2/6 448/2/6 450/2/6
f 433/3/6 449/3/6 451/3/6
f 449/3/6 450/3/6 451/3/6
f 450/3/6 434/3/6 452/3/6
f 451/3/6 450/3/6 452/3/6
f 451/1/6 452/1/6 453/1/6
f 453/1/6 452/1/6 454/1/6
f 453/3/6 454/3/6 455/3/6
f 455/3/6 454/3/6 456/3/6
f 453/3/6 455/3/6 457/3/6
f 455/2/6 456/2/6 457/2/6
f 457/2/6 456/2/6 458/2/6
f 453/3/6 457/3/6 459/3/6
f 457/3/6 458/3/6 459/3/6
f 458/2/6 456/2/6 460/2/6
f 459/3/6 458/3/6 460/3/6
f 453/3/6 459/3/6 461/3/6
f 459/2/6 460/2/6 461/2/6
f 460/2/6 456/2/6 462/2/6
f 461/2/6 460/2/6 462/2/6
f 462/2/6 456/2/6 463/2/6
f 463/2/6 456/2/6 464/2/6
f 453/3/6 461/3/6 465/3/6
f 461/3/6 462/3/6 465/3/6
f 462/2/6 463/2/6 466/2/6
f 465/3/6 462/3/6 466/3/6
f 463/3/6 464/3/6 467/3/6
f 466/2/6 463/2/6 467/2/6
f 464/2/6 456/2/6 468/2/6
f 467/3/6 464/3/6 468/3/6
f 466/2/6 467/2/6 469/2/6
f 468/2/6 456/2/6 469/2/6
f 467/2/6 468/2/6 469/2/6
f 465/2/6 466/2/6 469/2/6
f 456/3/6 454/3/6 470/3/6
f 469/2/6 456/2/6 470/2/6
f 465/2/6 469/2/6 471/2/6
f 469/3/6 470/3/6 471/3/6
f 470/3/6 454/3/6 472/3/6
f 471/3/6 470/3/6 472/3/6
f 465/2/6 471/2/6 473/2/6
f 453/3/6 465/3/6 473/3/6
f 471/2/6 472/2/6 473/2/6
f 472/3/6 454/3/6 474/3/6
f 473/2/6 472/2/6 474/2/6
f 453/3/6 473/3/6 475/3/6
f 473/3/6 474/3/6 475/3/6
f 474/3/6 454/3/6 476/3/6
f 475/3/6 474/3/6 476/3/6
