# MagicaVoxel @ Ephtracy

# group
o 

# material
mtllib partten.mtl
usemtl palette

# normals
vn -1 0 0
vn 1 0 0
vn 0 0 1
vn 0 0 -1
vn 0 -1 0
vn 0 1 0

# texcoords
vt 0.0332031 0.5
vt 0.0644531 0.5
vt 0.0878906 0.5
vt 0.0917969 0.5

# verts
v -0.3 0 0.3
v -0.3 0 0.1
v -0.3 0 -0.3
v -0.3 0.1 0.3
v -0.3 0.1 0.1
v -0.3 0.1 -0.3
v 0.3 0 0.3
v 0.3 0 -0.3
v 0.3 0.1 0.3
v 0.3 0.1 -0.3
v -0.3 0 0.3
v -0.3 0.1 0.3
v -0.1 0 0.3
v -0.1 0.1 0.3
v 0 0 0.3
v 0 0.1 0.3
v 0.1 0 0.3
v 0.1 0.1 0.3
v 0.3 0 0.3
v 0.3 0.1 0.3
v -0.3 0 -0.3
v -0.3 0.1 -0.3
v 0.3 0 -0.3
v 0.3 0.1 -0.3
v -0.3 0 0.3
v -0.1 0 0.3
v 0 0 0.3
v 0.1 0 0.3
v 0.3 0 0.3
v 0 0 0.2
v 0.1 0 0.2
v -0.3 0 0.1
v -0.1 0 0.1
v 0 0 0
v 0.2 0 0
v 0 0 -0.2
v 0.2 0 -0.2
v -0.3 0 -0.3
v 0.3 0 -0.3
v -0.3 0.1 0.3
v -0.1 0.1 0.3
v 0 0.1 0.3
v 0.1 0.1 0.3
v 0.3 0.1 0.3
v 0 0.1 0.2
v 0.1 0.1 0.2
v -0.3 0.1 0.1
v -0.1 0.1 0.1
v 0 0.1 0
v 0.2 0.1 0
v 0 0.1 -0.2
v 0.2 0.1 -0.2
v -0.3 0.1 -0.3
v 0.3 0.1 -0.3

# faces
f 4/2/1 2/2/1 1/2/1
f 5/1/1 3/1/1 2/1/1
f 5/2/1 2/2/1 4/2/1
f 6/1/1 3/1/1 5/1/1
f 7/1/2 8/1/2 9/1/2
f 9/1/2 8/1/2 10/1/2
f 13/2/3 12/2/3 11/2/3
f 14/2/3 12/2/3 13/2/3
f 15/1/3 14/1/3 13/1/3
f 16/1/3 14/1/3 15/1/3
f 17/4/3 16/4/3 15/4/3
f 18/4/3 16/4/3 17/4/3
f 19/1/3 18/1/3 17/1/3
f 20/1/3 18/1/3 19/1/3
f 21/1/4 22/1/4 23/1/4
f 23/1/4 22/1/4 24/1/4
f 30/1/5 27/1/5 26/1/5
f 30/4/5 28/4/5 27/4/5
f 31/1/5 29/1/5 28/1/5
f 31/4/5 28/4/5 30/4/5
f 32/2/5 26/2/5 25/2/5
f 33/1/5 30/1/5 26/1/5
f 33/2/5 26/2/5 32/2/5
f 33/1/5 31/1/5 30/1/5
f 34/1/5 33/1/5 32/1/5
f 34/1/5 31/1/5 33/1/5
f 35/1/5 29/1/5 31/1/5
f 35/1/5 31/1/5 34/1/5
f 36/1/5 34/1/5 32/1/5
f 36/3/5 35/3/5 34/3/5
f 37/1/5 29/1/5 35/1/5
f 37/3/5 35/3/5 36/3/5
f 38/1/5 36/1/5 32/1/5
f 38/1/5 37/1/5 36/1/5
f 39/1/5 29/1/5 37/1/5
f 39/1/5 37/1/5 38/1/5
f 41/1/6 42/1/6 45/1/6
f 42/4/6 43/4/6 45/4/6
f 43/1/6 44/1/6 46/1/6
f 45/4/6 43/4/6 46/4/6
f 40/2/6 41/2/6 47/2/6
f 41/1/6 45/1/6 48/1/6
f 47/2/6 41/2/6 48/2/6
f 45/1/6 46/1/6 48/1/6
f 47/1/6 48/1/6 49/1/6
f 48/1/6 46/1/6 49/1/6
f 46/1/6 44/1/6 50/1/6
f 49/1/6 46/1/6 50/1/6
f 47/1/6 49/1/6 51/1/6
f 49/3/6 50/3/6 51/3/6
f 50/1/6 44/1/6 52/1/6
f 51/3/6 50/3/6 52/3/6
f 47/1/6 51/1/6 53/1/6
f 51/1/6 52/1/6 53/1/6
f 52/1/6 44/1/6 54/1/6
f 53/1/6 52/1/6 54/1/6
