# Created by Kenney (www.kenney.nl)

mtllib firecamp.mtl

g mergedBlocks

v -0.8027107 0 0.09009352
v -0.8027107 0 0.009093516
v -1.141111 0 0.09009352
v -1.141111 0 0.009093516
v -1.141111 0.05 0.06284034
v -1.085205 0.05 0.09009352
v -1.141111 0.05 0.09009352
v -1.141111 0.05 0.009093516
v -0.8027107 0.05 0.009093516
v -1.073502 0.05 0.009093516
v -0.8027107 0.05 0.09009352
v -0.9073433 0.05 0.09009352
v -0.8450106 0.05 0.1472588
v -0.8450106 0.05 0.2115935
v -0.8606548 0.05 0.1995582
v -1.183411 0.05 0.2115935
v -1.002125 0.05 0.1305935
v -1.183411 0.05 0.1305935
v -1.183411 0 0.1305935
v -0.8450106 0 0.1305935
v -0.8450106 0.05 0.1305935
v -0.8450106 0 0.2115935
v -1.183411 0 0.2115935
v -0.8754337 0.1 -0.2072336
v -0.8754337 0.05 -0.2072336
v -0.8632182 0.1 -0.1277489
v -0.8753834 0.05 -0.2069065
v -0.8661606 0.05 -0.1468952
v -0.8632182 0.05 -0.1277489
v -1.207503 0.05 -0.1240641
v -1.200147 0.05 -0.1259065
v -1.207503 0.1 -0.1240641
v -0.8767397 0.05 -0.2069065
v -1.195288 0.1 -0.04457939
v -0.8661606 0.05 -0.1270119
v -0.8705742 0.05 -0.1259065
v -0.9783767 0.05 -0.09890648
v -1.183411 0.05 -0.04755407
v -1.195288 0.05 -0.04457939
v -1.204561 0 -0.2069065
v -1.204561 0.05 -0.2069065
v -1.204561 0 -0.1259065
v -1.204561 0.05 -0.1259065
v -0.8661606 0.05 -0.2069065
v -0.8661606 0 -0.2069065
v -0.8661606 0 -0.1259065
v -0.8661606 0.05 -0.1259065
v -1.183411 0.05 -0.09890648
v -0.8450106 0.05 -0.09890648
v -0.8450106 0 -0.09890648
v -0.8450106 0.05 -0.01790648
v -0.8450106 0 -0.01790648
v -1.183411 0 -0.01790648
v -1.183411 0.05 -0.01790648
v -1.128889 0.05 -0.01790648
v -1.157839 0.05 -0.01790648
v -1.183411 0 -0.09890648
v -1.154155 0.05 -0.03022314
v -1.154155 0.1 -0.03022314
v -0.8380197 0.05 0.1238877
v -0.8380197 0.1 0.1238877
v -0.8606548 0.1 0.1995582
v -1.17679 0.1 0.04544742
v -1.17679 0.05 0.04544742
v -0.9029011 0 -0.2131058
v -0.8379492 0 -0.2581058
v -0.9029011 0.03 -0.2131058
v -0.8379492 0.03 -0.2581058
v -0.7879492 0.03 -0.1541828
v -0.7879492 0 -0.1541828
v -0.8529011 0 -0.1091828
v -0.8529011 0.03 -0.1091828
v -0.9481326 0 -0.01793828
v -0.9127773 0 0.02448812
v -0.9481326 0.03 -0.01793828
v -0.9127773 0.03 0.02448812
v -0.9658103 0.03 0.08812773
v -0.9658103 0 0.08812773
v -1.001166 0 0.04570133
v -1.001166 0.03 0.04570133
v -0.9742099 0 0.1265416
v -0.8443061 0 0.03654156
v -0.9742099 0.045 0.1265416
v -0.8443061 0.045 0.03654156
v -0.7943061 0.045 0.1404646
v -0.7943061 0 0.1404646
v -0.92421 0 0.2304646
v -0.92421 0.045 0.2304646
v -1.144891 0 0.1620727
v -1.182391 0 0.08413041
v -1.188192 0 0.1920727
v -1.225692 0 0.1141304
v -1.144891 0.03 0.1620727
v -1.188192 0.03 0.1920727
v -1.182391 0.03 0.08413041
v -1.225692 0.03 0.1141304
v -0.9359939 0.045 -0.229096
v -0.9359939 0 -0.229096
v -0.897171 0.045 -0.05522938
v -0.897171 0 -0.05522938
v -0.9937636 0 -0.02417109
v -1.032586 0 -0.1980377
v -0.9937636 0.045 -0.02417109
v -1.032586 0.045 -0.1980377
v -1.027198 0.045 -0.1739064
v -0.9973124 0.045 -0.04006384
v -0.9564875 0.045 -0.08905365
v -1.042319 0 -0.1307917
v -1.081874 0 -0.2410053
v -1.180086 0 -0.05959355
v -1.21964 0 -0.1698071
v -1.21964 0.045 -0.1698071
v -1.081874 0.045 -0.2410053
v -1.048583 0.045 -0.148245
v -1.042319 0.045 -0.1307917
v -1.078867 0.045 -0.1119035
v -1.180086 0.045 -0.05959355
v -0.9564875 0.09 -0.08905365
v -1.033841 0.045 0.003770425
v -1.062554 0.045 0.03822558
v -1.062554 0.09 0.03822558
v -1.133264 0.045 -0.04662724
v -1.133264 0.09 -0.04662724
v -1.027198 0.09 -0.1739064
v -1.015649 0 0.01299201
v -1.153827 0 -0.0570503
v -1.054561 0 0.1235343
v -1.192739 0 0.05349195
v -1.015649 0.045 0.01299201
v -1.054561 0.045 0.1235343
v -1.153827 0.045 -0.0570503
v -1.192739 0.045 0.05349195
v -1.118657 0 0.1891626
v -1.022064 0 0.1581043
v -1.118657 0.03 0.1891626
v -1.022064 0.03 0.1581043
v -1.002653 0.03 0.2450376
v -1.002653 0 0.2450376
v -1.099246 0.03 0.2760959
v -1.099246 0 0.2760959

vn 0 -1 0
vn 0 1 0
vn 0 0 -1
vn -1 0 0
vn 0 0 1
vn 1 0 0
vn 0.9883958 0 -0.1519005
vn -0.2429539 0 -0.9700378
vn 0.2429539 0 0.9700378
vn -0.9883958 0 0.1519005
vn 0.438191 0 -0.8988819
vn -0.9580565 0 -0.2865795
vn -0.438191 0 0.8988819
vn 0.9580565 0 0.2865795
vn -0.5694948 0 -0.821995
vn 0.9011271 0 -0.4335549
vn 0.5694948 0 0.821995
vn -0.9011271 0 0.4335549
vn 0.7682213 0 -0.6401844
vn 0.7682213 0 0.6401844
vn -0.7682213 0 0.6401844
vn -0.7682213 0 -0.6401844
vn 0.9759657 0 -0.2179243
vn 0.3061045 0 0.9519979
vn -0.9759657 0 0.2179243
vn -0.3061045 0 -0.9519979
vn -0.4591147 0 -0.888377
vn 0.9412199 0 -0.3377945
vn 0.4591147 0 0.888377
vn -0.9412199 0 0.3377945
vn 0.9432646 0 0.3320421
vn 0.4521303 0 -0.8919519
vn -0.9432646 0 -0.3320421
vn -0.4521303 0 0.8919519

vt 0.8027107 -0.09009352
vt 0.8027107 -0.009093516
vt 1.141111 -0.09009352
vt 1.141111 -0.009093516
vt 1.141111 0.06284034
vt 1.085205 0.09009352
vt 1.141111 0.09009352
vt 1.141111 0
vt 0.8027107 0
vt 1.141111 0.05
vt 0.8027107 0.05
vt -1.073502 0.05
vt -1.141111 0.05
vt -0.8027107 0.05
vt 0.009093516 0
vt 0.009093516 0.05
vt 0.09009352 0
vt 0.06284034 0.05
vt 0.09009352 0.05
vt -0.8027107 0
vt -1.141111 0
vt -0.9073433 0.05
vt -1.085205 0.05
vt -0.009093516 0.05
vt -0.009093516 0
vt -0.09009352 0.05
vt -0.09009352 0
vt 0.8450106 0.1472588
vt 0.8450106 0.2115935
vt 0.8606548 0.1995582
vt 1.183411 0.2115935
vt 1.002125 0.1305935
vt 1.183411 0.1305935
vt 1.183411 0
vt 0.8450106 0
vt 1.183411 0.05
vt 0.8450106 0.05
vt -1.002125 0.05
vt -1.183411 0.05
vt -0.8450106 0.05
vt -0.8450106 0
vt -1.183411 0
vt 0.8450106 -0.2115935
vt 0.8450106 -0.1305935
vt 1.183411 -0.2115935
vt 1.183411 -0.1305935
vt 0.1305935 0
vt 0.1305935 0.05
vt 0.2115935 0
vt 0.2115935 0.05
vt -0.1305935 0.05
vt -0.1305935 0
vt -0.1472588 0.05
vt -0.2115935 0
vt -0.2115935 0.05
vt 0.2072336 0.1
vt 0.2072336 0.05
vt 0.1277489 0.1
vt 0.2069065 0.05
vt 0.1468952 0.05
vt 0.1277489 0.05
vt 1.207503 0.05
vt 1.200147 0.05
vt 1.207503 0.1
vt 0.8767397 0.05
vt 0.8754337 0.05
vt 0.8754337 0.1
vt 0.8632181 -0.1277489
vt 1.195288 -0.04457939
vt 0.8754337 -0.2072336
vt 1.207503 -0.1240641
vt -0.8632181 0.05
vt -0.8661606 0.05
vt -0.8632181 0.1
vt -0.8705742 0.05
vt -0.9783767 0.05
vt -1.195288 0.05
vt -1.195288 0.1
vt -0.1240641 0.05
vt -0.1240641 0.1
vt -0.04457939 0.05
vt -0.04457939 0.1
vt -0.2069065 0
vt -0.2069065 0.05
vt -0.1259065 0
vt -0.1259065 0.05
vt 0.2069065 0
vt 0.1259065 0
vt 0.1270119 0.05
vt 0.1259065 0.05
vt 1.204561 0
vt 0.8661606 0
vt 1.204561 0.05
vt 0.8661606 0.05
vt -0.8767397 0.05
vt -1.204561 0.05
vt -0.8753834 0.05
vt -0.8661606 0
vt -1.204561 0
vt -1.200147 0.05
vt 0.8661606 0.1259065
vt 0.8661606 0.2069065
vt 1.204561 0.1259065
vt 1.204561 0.2069065
vt 0.8767397 -0.2069065
vt 1.200147 -0.1259065
vt 1.204561 -0.2069065
vt 1.204561 -0.1259065
vt 0.8661606 -0.2069065
vt 0.8661606 -0.1468952
vt 0.8753834 -0.2069065
vt 1.183411 0.04755407
vt 1.183411 0.09890648
vt 1.195288 0.04457939
vt 1.200147 0.1259065
vt 0.9783767 0.09890648
vt 0.8705742 0.1259065
vt 1.207503 0.1240641
vt 0.8661606 0.1270119
vt 0.8632181 0.1277489
vt 0.8661606 0.1468952
vt 0.09890648 0.05
vt 0.09890648 0
vt 0.01790648 0.05
vt 0.01790648 0
vt -1.128889 0.05
vt -1.157839 0.05
vt -0.09890648 0
vt -0.09890648 0.05
vt -0.01790648 0
vt -0.04755407 0.05
vt -0.01790648 0.05
vt 0.8450106 0.01790648
vt 0.8450106 0.09890648
vt 1.183411 0.01790648
vt 0.8450106 -0.09890648
vt 0.8450106 -0.01790648
vt 0.9783767 -0.09890648
vt 1.128889 -0.01790648
vt 1.183411 -0.04755407
vt 1.154155 -0.03022314
vt 1.157839 -0.01790648
vt 1.183411 -0.01790648
vt 1.154155 0.05
vt 1.128889 0.05
vt 1.154155 0.1
vt 1.073502 0.05
vt 0.9073433 0.05
vt 0.8380197 0.05
vt 0.8380197 0.1
vt 0.8380197 0.1238877
vt 1.17679 0.04544742
vt -0.03022314 0.05
vt -0.03022314 0.1
vt 0.04544742 0.1
vt 0.04544742 0.05
vt -0.8606548 0.05
vt -0.8606548 0.1
vt -1.17679 0.05
vt -1.17679 0.1
vt -0.1238877 0.1
vt -0.1238877 0.05
vt -0.1995582 0.1
vt -0.1995582 0.05
vt 1.141111 -0.06284034
vt 1.17679 -0.04544742
vt 1.157839 0.01790648
vt 1.128889 0.01790648
vt 1.073502 -0.009093516
vt 0.8027107 0.009093516
vt 0.8027107 0.09009352
vt 1.073502 0.009093516
vt 0.9073433 0.09009352
vt 0.9073433 -0.09009352
vt 0.8380197 -0.1238877
vt 0.8450106 -0.1472588
vt 1.002125 -0.1305935
vt 1.085205 -0.09009352
vt -0.8754337 0.05
vt 1.154155 0.03022314
vt 0.9029011 0
vt 0.8379492 0
vt 0.9029011 0.03
vt 0.8379492 0.03
vt 0.2581058 0.03
vt 0.2581058 0
vt 0.1541828 0.03
vt 0.1541828 0
vt -0.7879492 0
vt -0.8529011 0
vt -0.7879492 0.03
vt -0.8529011 0.03
vt 0.7879492 -0.1541828
vt 0.8529011 -0.1091828
vt 0.8379492 -0.2581058
vt 0.9029011 -0.2131058
vt -0.2131058 0
vt -0.2131058 0.03
vt -0.1091828 0
vt -0.1091828 0.03
vt 0.7879492 0.1541828
vt 0.8379492 0.2581058
vt 0.8529011 0.1091828
vt 0.9029011 0.2131058
vt 0.01793828 0
vt -0.02448812 0
vt 0.01793828 0.03
vt -0.02448812 0.03
vt -0.08812773 0.03
vt -0.08812773 0
vt 0.08812773 0
vt 0.04570133 0
vt 0.08812773 0.03
vt 0.04570133 0.03
vt 0.9127773 0.02448812
vt 0.9658103 0.08812773
vt 0.9481326 -0.01793828
vt 1.001166 0.04570133
vt -0.01793828 0
vt -0.01793828 0.03
vt 0.9127773 -0.02448812
vt 0.9481326 0.01793828
vt 0.9658103 -0.08812773
vt 1.001166 -0.04570133
vt 0.9742099 0
vt 0.8443061 0
vt 0.9742099 0.045
vt 0.8443061 0.045
vt -0.03654156 0.045
vt -0.03654156 0
vt -0.1404646 0.045
vt -0.1404646 0
vt 0.7943061 -0.1404646
vt 0.8443061 -0.03654156
vt 0.92421 -0.2304646
vt 0.9742099 -0.1265416
vt 0.1265416 0
vt 0.1265416 0.045
vt 0.2304646 0
vt 0.2304646 0.045
vt 0.7943061 0.1404646
vt 0.92421 0.2304646
vt 0.8443061 0.03654156
vt 0.9742099 0.1265416
vt -0.7943061 0
vt -0.92421 0
vt -0.7943061 0.045
vt -0.92421 0.045
vt 1.144891 -0.1620727
vt 1.182391 -0.08413041
vt 1.188192 -0.1920727
vt 1.225692 -0.1141304
vt 1.144891 0.1620727
vt 1.188192 0.1920727
vt 1.182391 0.08413041
vt 1.225692 0.1141304
vt -1.144891 0
vt -1.188192 0
vt -1.144891 0.03
vt -1.188192 0.03
vt -0.08413041 0.03
vt -0.08413041 0
vt -0.1620727 0.03
vt -0.1620727 0
vt 0.1141304 0
vt 0.1141304 0.03
vt 0.1920727 0
vt 0.1920727 0.03
vt 1.225692 0
vt 1.182391 0
vt 1.225692 0.03
vt 1.182391 0.03
vt 0.229096 0.045
vt 0.229096 0
vt 0.05522938 0.045
vt 0.05522938 0
vt 0.897171 0.05522938
vt 0.9359939 0.229096
vt 0.9937636 0.02417109
vt 1.032586 0.1980377
vt -0.897171 0
vt -0.9937636 0
vt -0.897171 0.045
vt -0.9937636 0.045
vt -0.1980377 0
vt -0.1980377 0.045
vt -0.02417109 0
vt -0.1739064 0.045
vt -0.04006384 0.045
vt -0.02417109 0.045
vt 1.032586 0
vt 0.9359939 0
vt 1.032586 0.045
vt 0.9359939 0.045
vt 0.9359939 -0.229096
vt 0.9564875 -0.08905365
vt 1.032586 -0.1980377
vt 1.027198 -0.1739064
vt 0.897171 -0.05522938
vt 0.9937636 -0.02417109
vt 0.9973124 -0.04006384
vt 1.042319 0.1307917
vt 1.081874 0.2410053
vt 1.180086 0.05959355
vt 1.21964 0.1698071
vt 1.21964 0
vt 1.081874 0
vt 1.21964 0.045
vt 1.081874 0.045
vt 0.2410053 0.045
vt 0.2410053 0
vt 0.148245 0.045
vt 0.1307917 0
vt 0.1307917 0.045
vt 1.048583 -0.148245
vt 1.078867 -0.1119035
vt 1.081874 -0.2410053
vt 1.180086 -0.05959355
vt 1.21964 -0.1698071
vt -1.042319 0
vt -1.180086 0
vt -1.042319 0.045
vt -1.180086 0.045
vt -1.078867 0.045
vt -0.1698071 0
vt -0.1698071 0.045
vt -0.05959355 0
vt -0.05959355 0.045
vt 0.08905365 0.045
vt 0.04006384 0.045
vt 0.08905365 0.09
vt -0.003770425 0.045
vt -0.03822558 0.045
vt -0.03822558 0.09
vt -0.04662724 0.045
vt -0.04662724 0.09
vt 0.03822558 0.045
vt 0.03822558 0.09
vt 1.062554 0.03822558
vt 1.133264 -0.04662724
vt -0.1119035 0.045
vt -0.148245 0.045
vt -0.1739064 0.09
vt 0.1739064 0.09
vt 0.1739064 0.045
vt 1.015649 -0.01299201
vt 1.153827 0.0570503
vt 1.054561 -0.1235343
vt 1.192739 -0.05349195
vt -0.01299201 0.045
vt -0.01299201 0
vt -0.1235343 0.045
vt -0.1235343 0
vt 1.153827 0
vt 1.015649 0
vt 1.153827 0.045
vt 1.015649 0.045
vt -1.133264 0.045
vt -1.153827 0.045
vt -1.015649 0.045
vt -1.033841 0.045
vt -0.0570503 0
vt -0.0570503 0.045
vt 0.05349195 0
vt 0.05349195 0.045
vt -1.054561 0
vt -1.192739 0
vt -1.054561 0.045
vt -1.192739 0.045
vt 1.015649 0.01299201
vt 1.054561 0.1235343
vt 1.033841 0.003770425
vt 1.192739 0.05349195
vt 1.153827 -0.0570503
vt 1.033841 -0.003770425
vt 1.133264 0.04662724
vt 1.078867 0.1119035
vt 1.027198 0.1739064
vt 0.9973124 0.04006384
vt 1.048583 0.148245
vt 1.118657 0
vt 1.022064 0
vt 1.118657 0.03
vt 1.022064 0.03
vt -0.1581043 0.03
vt -0.1581043 0
vt -0.2450376 0.03
vt -0.2450376 0
vt 1.002653 0.2450376
vt 1.099246 0.2760959
vt 1.022064 0.1581043
vt 1.118657 0.1891626
vt -1.002653 0
vt -1.099246 0
vt -1.002653 0.03
vt -1.099246 0.03
vt 1.002653 -0.2450376
vt 1.022064 -0.1581043
vt 1.099246 -0.2760959
vt 1.118657 -0.1891626
vt 0.1891626 0
vt 0.1891626 0.03
vt 0.2760959 0
vt 0.2760959 0.03

usemtl wood(Clone)

f 3/3/1 2/2/1 1/1/1
f 2/2/1 3/3/1 4/4/1
f 7/7/2 6/6/2 5/5/2
f 8/10/3 2/9/3 4/8/3
f 2/9/3 8/10/3 9/11/3
f 9/14/3 8/13/3 10/12/3
f 3/17/4 8/16/4 4/15/4
f 8/16/4 3/17/4 5/18/4
f 5/18/4 3/17/4 7/19/4
f 11/14/5 3/21/5 1/20/5
f 3/21/5 11/14/5 7/13/5
f 7/13/5 11/14/5 12/22/5
f 7/13/5 12/22/5 6/23/5
f 11/26/6 2/25/6 9/24/6
f 2/25/6 11/26/6 1/27/6
f 15/30/2 14/29/2 13/28/2
f 14/29/2 15/30/2 16/31/2
f 16/31/2 15/30/2 17/32/2
f 16/31/2 17/32/2 18/33/2
f 18/36/3 20/35/3 19/34/3
f 20/35/3 18/36/3 21/37/3
f 21/40/3 18/39/3 17/38/3
f 14/40/5 23/42/5 22/41/5
f 23/42/5 14/40/5 16/39/5
f 23/45/1 20/44/1 22/43/1
f 20/44/1 23/45/1 19/46/1
f 23/49/4 18/48/4 19/47/4
f 18/48/4 23/49/4 16/50/4
f 13/53/6 20/52/6 21/51/6
f 20/52/6 13/53/6 22/54/6
f 22/54/6 13/53/6 14/55/6
f 26/58/7 25/57/7 24/56/7
f 25/57/7 26/58/7 27/59/7
f 27/59/7 26/58/7 28/60/7
f 28/60/7 26/58/7 29/61/7
f 32/64/8 31/63/8 30/62/8
f 31/63/8 32/64/8 33/65/8
f 33/65/8 32/64/8 25/66/8
f 25/66/8 32/64/8 24/67/8
f 24/70/2 34/69/2 26/68/2
f 34/69/2 24/70/2 32/71/2
f 26/74/9 35/73/9 29/72/9
f 35/73/9 26/74/9 36/75/9
f 36/75/9 26/74/9 37/76/9
f 37/76/9 26/74/9 38/39/9
f 38/39/9 26/74/9 39/77/9
f 39/77/9 26/74/9 34/78/9
f 39/81/10 32/80/10 30/79/10
f 32/80/10 39/81/10 34/82/10
f 42/85/4 41/84/4 40/83/4
f 41/84/4 42/85/4 43/86/4
f 28/60/6 45/87/6 44/59/6
f 45/87/6 28/60/6 46/88/6
f 46/88/6 28/60/6 35/89/6
f 46/88/6 35/89/6 47/90/6
f 41/93/3 45/92/3 40/91/3
f 45/92/3 41/93/3 44/94/3
f 44/73/3 41/96/3 33/95/3
f 44/73/3 33/95/3 27/97/3
f 47/73/5 42/99/5 46/98/5
f 42/99/5 47/73/5 43/96/5
f 43/96/5 47/73/5 36/75/5
f 43/96/5 36/75/5 31/100/5
f 42/103/1 45/102/1 46/101/1
f 45/102/1 42/103/1 40/104/1
f 41/107/2 31/106/2 33/105/2
f 31/106/2 41/107/2 43/108/2
f 27/111/2 28/110/2 44/109/2
f 39/114/1 48/113/1 38/112/1
f 31/115/1 48/113/1 39/114/1
f 31/115/1 37/116/1 48/113/1
f 37/116/1 31/115/1 36/117/1
f 31/115/1 39/114/1 30/118/1
f 28/121/1 29/120/1 35/119/1
f 51/124/6 50/123/6 49/122/6
f 50/123/6 51/124/6 52/125/6
f 51/40/5 53/42/5 52/41/5
f 53/42/5 51/40/5 54/39/5
f 54/39/5 51/40/5 55/126/5
f 54/39/5 55/126/5 56/127/5
f 53/130/4 48/129/4 57/128/4
f 48/129/4 53/130/4 38/131/4
f 38/131/4 53/130/4 54/132/4
f 53/135/1 50/134/1 52/133/1
f 50/134/1 53/135/1 57/113/1
f 37/138/2 51/137/2 49/136/2
f 51/137/2 37/138/2 55/139/2
f 55/139/2 37/138/2 38/140/2
f 55/139/2 38/140/2 58/141/2
f 58/141/2 38/140/2 56/142/2
f 56/142/2 38/140/2 54/143/2
f 59/146/11 55/145/11 58/144/11
f 55/145/11 59/146/11 10/147/11
f 10/147/11 59/146/11 12/148/11
f 12/148/11 59/146/11 60/149/11
f 60/149/11 59/146/11 61/150/11
f 59/141/2 62/30/2 61/151/2
f 62/30/2 59/141/2 63/152/2
f 56/132/12 59/154/12 58/153/12
f 59/154/12 56/132/12 63/155/12
f 63/155/12 56/132/12 64/156/12
f 62/158/13 17/38/13 15/157/13
f 17/38/13 62/158/13 6/23/13
f 6/23/13 62/158/13 5/13/13
f 5/13/13 62/158/13 64/159/13
f 64/159/13 62/158/13 63/160/13
f 62/163/14 60/162/14 61/161/14
f 60/162/14 62/163/14 13/53/14
f 13/53/14 62/163/14 15/164/14
f 64/166/1 8/4/1 5/165/1
f 8/4/1 64/166/1 56/167/1
f 55/168/1 8/4/1 56/167/1
f 8/4/1 55/168/1 10/169/1
f 10/172/2 11/171/2 9/170/2
f 11/171/2 10/172/2 12/173/2
f 60/175/1 21/44/1 12/174/1
f 21/44/1 60/175/1 13/176/1
f 12/174/1 21/44/1 17/177/1
f 12/174/1 17/177/1 6/178/1
f 48/36/3 50/35/3 57/34/3
f 50/35/3 48/36/3 49/37/3
f 49/40/3 48/39/3 37/76/3

usemtl _defaultMat(Clone)

f 36/75/2 47/73/2 35/73/2
f 33/95/1 25/179/1 27/97/1
f 56/167/1 58/180/1 55/168/1

usemtl stone(Clone)

f 67/183/15 66/182/15 65/181/15
f 66/182/15 67/183/15 68/184/15
f 69/187/16 66/186/16 68/185/16
f 66/186/16 69/187/16 70/188/16
f 69/191/17 71/190/17 70/189/17
f 71/190/17 69/191/17 72/192/17
f 68/195/2 72/194/2 69/193/2
f 72/194/2 68/195/2 67/196/2
f 71/199/18 67/198/18 65/197/18
f 67/198/18 71/199/18 72/200/18
f 71/203/1 66/202/1 70/201/1
f 66/202/1 71/203/1 65/204/1
f 75/207/19 74/206/19 73/205/19
f 74/206/19 75/207/19 76/208/19
f 77/209/20 74/206/20 76/208/20
f 74/206/20 77/209/20 78/210/20
f 77/213/21 79/212/21 78/211/21
f 79/212/21 77/213/21 80/214/21
f 75/217/2 77/216/2 76/215/2
f 77/216/2 75/217/2 80/218/2
f 79/212/22 75/220/22 73/219/22
f 75/220/22 79/212/22 80/214/22
f 78/223/1 73/222/1 74/221/1
f 73/222/1 78/223/1 79/224/1
f 83/227/15 82/226/15 81/225/15
f 82/226/15 83/227/15 84/228/15
f 85/231/16 82/230/16 84/229/16
f 82/230/16 85/231/16 86/232/16
f 87/235/1 82/234/1 86/233/1
f 82/234/1 87/235/1 81/236/1
f 87/239/18 83/238/18 81/237/18
f 83/238/18 87/239/18 88/240/18
f 84/243/2 88/242/2 85/241/2
f 88/242/2 84/243/2 83/244/2
f 85/247/17 87/246/17 86/245/17
f 87/246/17 85/247/17 88/248/17
f 91/251/1 90/250/1 89/249/1
f 90/250/1 91/251/1 92/252/1
f 95/255/2 94/254/2 93/253/2
f 94/254/2 95/255/2 96/256/2
f 93/259/17 91/258/17 89/257/17
f 91/258/17 93/259/17 94/260/17
f 93/263/16 90/262/16 95/261/16
f 90/262/16 93/263/16 89/264/16
f 91/267/18 96/266/18 92/265/18
f 96/266/18 91/267/18 94/268/18
f 96/271/15 90/270/15 92/269/15
f 90/270/15 96/271/15 95/272/15
f 99/275/23 98/274/23 97/273/23
f 98/274/23 99/275/23 100/276/23
f 101/279/1 98/278/1 100/277/1
f 98/278/1 101/279/1 102/280/1
f 99/283/24 101/282/24 100/281/24
f 101/282/24 99/283/24 103/284/24
f 101/287/25 104/286/25 102/285/25
f 104/286/25 101/287/25 105/288/25
f 105/288/25 101/287/25 106/289/25
f 106/289/25 101/287/25 103/290/25
f 104/293/26 98/292/26 102/291/26
f 98/292/26 104/293/26 97/294/26
f 104/297/2 107/296/2 97/295/2
f 107/296/2 104/297/2 105/298/2
f 107/296/2 99/299/2 97/295/2
f 99/299/2 107/296/2 103/300/2
f 103/300/2 107/296/2 106/301/2
f 110/304/1 109/303/1 108/302/1
f 109/303/1 110/304/1 111/305/1
f 112/308/27 109/307/27 111/306/27
f 109/307/27 112/308/27 113/309/27
f 114/312/28 109/311/28 113/310/28
f 109/311/28 114/312/28 108/313/28
f 108/313/28 114/312/28 115/314/28
f 113/317/2 116/316/2 114/315/2
f 116/316/2 113/317/2 117/318/2
f 117/318/2 113/317/2 112/319/2
f 115/322/29 110/321/29 108/320/29
f 110/321/29 115/322/29 117/323/29
f 117/323/29 115/322/29 116/324/29
f 110/327/30 112/326/30 111/325/30
f 112/326/30 110/327/30 117/328/30
f 118/331/20 106/330/20 107/329/20
f 106/330/20 118/331/20 119/332/20
f 119/332/20 118/331/20 120/333/20
f 120/333/20 118/331/20 121/334/20
f 120/337/21 123/336/21 122/335/21
f 123/336/21 120/337/21 121/338/21
f 124/298/2 121/339/2 118/296/2
f 121/339/2 124/298/2 123/340/2
f 123/336/22 116/341/22 122/335/22
f 116/341/22 123/336/22 114/342/22
f 114/342/22 123/336/22 105/288/22
f 105/288/22 123/336/22 124/343/22
f 118/331/19 105/345/19 124/344/19
f 105/345/19 118/331/19 107/329/19
f 127/348/1 126/347/1 125/346/1
f 126/347/1 127/348/1 128/349/1
f 130/352/31 125/351/31 129/350/31
f 125/351/31 130/352/31 127/353/31
f 131/356/32 125/355/32 126/354/32
f 125/355/32 131/356/32 129/357/32
f 129/360/32 131/359/32 122/358/32
f 129/360/32 122/358/32 119/361/32
f 128/364/33 131/363/33 126/362/33
f 131/363/33 128/364/33 132/365/33
f 130/368/34 128/367/34 127/366/34
f 128/367/34 130/368/34 132/369/34
f 119/372/2 130/371/2 129/370/2
f 130/371/2 119/372/2 120/339/2
f 130/371/2 120/339/2 132/373/2
f 132/373/2 120/339/2 122/340/2
f 132/373/2 122/340/2 131/374/2
f 122/376/1 115/302/1 119/375/1
f 115/302/1 122/376/1 116/377/1
f 105/378/1 119/375/1 115/302/1
f 119/375/1 105/378/1 106/379/1
f 105/378/1 115/302/1 114/380/1
f 135/383/26 134/382/26 133/381/26
f 134/382/26 135/383/26 136/384/26
f 137/387/23 134/386/23 136/385/23
f 134/386/23 137/387/23 138/388/23
f 136/391/2 139/390/2 137/389/2
f 139/390/2 136/391/2 135/392/2
f 137/395/24 140/394/24 138/393/24
f 140/394/24 137/395/24 139/396/24
f 140/399/1 134/398/1 138/397/1
f 134/398/1 140/399/1 133/400/1
f 140/403/25 135/402/25 133/401/25
f 135/402/25 140/403/25 139/404/25

