# Blender v3.1.2 OBJ File: ''
# www.blender.org
mtllib Plane-block-04.mtl
o Plane-block-04
v -2.000000 2.000000 2.000000
v 2.000000 0.000000 -2.000000
v 2.000000 2.000000 -2.000000
v -2.000000 -0.000000 2.000000
v 2.000000 -0.000000 2.000000
v 2.000000 2.000000 2.000000
v -2.000000 2.000000 -2.000000
v -2.000000 0.000000 -2.000000
vt 0.468750 0.625000
vt 0.625000 0.312500
vt 0.468750 0.312500
vt 0.625000 0.312500
vt 0.312500 0.156250
vt 0.625000 0.156250
vt 0.625000 0.156250
vt 0.312500 0.000000
vt 0.312500 0.156250
vt 0.312500 0.312500
vt 0.468750 0.625000
vt 0.312500 0.625000
vt 0.312500 0.312500
vt 0.000000 0.000000
vt 0.312500 0.000000
vt 0.312500 0.625000
vt 0.000000 0.312500
vt 0.000000 0.625000
vt 0.625000 0.625000
vt 0.312500 0.312500
vt 0.625000 0.000000
vt 0.468750 0.312500
vt 0.000000 0.312500
vt 0.312500 0.312500
vn -1.0000 0.0000 0.0000
vn 0.0000 -0.0000 1.0000
vn 0.0000 0.0000 -1.0000
vn 1.0000 0.0000 0.0000
vn 0.0000 -1.0000 -0.0000
vn 0.0000 1.0000 0.0000
usemtl Plane-block-04_Material
s off
f 4/1/1 7/2/1 8/3/1
f 6/4/2 4/5/2 5/6/2
f 3/7/3 8/8/3 7/9/3
f 2/10/4 6/11/4 5/12/4
f 5/13/5 8/14/5 2/15/5
f 6/16/6 7/17/6 1/18/6
f 4/1/1 1/19/1 7/2/1
f 6/4/2 1/20/2 4/5/2
f 3/7/3 2/21/3 8/8/3
f 2/10/4 3/22/4 6/11/4
f 5/13/5 4/23/5 8/14/5
f 6/16/6 3/24/6 7/17/6
