# Blender v3.1.2 OBJ File: ''
# www.blender.org
mtllib Block-02.mtl
o Block-02
v -2.000000 4.000000 2.000001
v -2.000000 4.000000 -1.999999
v 2.000000 4.000000 2.000001
v -2.000000 -0.000000 2.000000
v 2.000000 -0.000000 2.000000
v -2.000000 0.000000 -2.000000
v 2.000000 0.000000 -2.000000
v 2.000000 4.000000 -1.999999
vt 0.625000 0.312500
vt 0.937500 0.000000
vt 0.625000 0.000000
vt 0.000000 0.312500
vt 0.312500 0.000000
vt 0.312500 0.312500
vt 0.625000 0.312500
vt 0.312500 0.000000
vt 0.312500 0.312500
vt 0.000000 0.625000
vt 0.312500 0.312500
vt 0.312500 0.625000
vt 0.312500 0.625000
vt 0.000000 0.937500
vt 0.312500 0.937500
vt 0.625000 0.625000
vt 0.312500 0.312500
vt 0.625000 0.312500
vt 0.937500 0.312500
vt 0.000000 0.000000
vt 0.625000 0.000000
vt 0.000000 0.312500
vt 0.000000 0.625000
vt 0.312500 0.625000
vn -1.0000 -0.0000 0.0000
vn 1.0000 0.0000 0.0000
vn 0.0000 0.0000 -1.0000
vn 0.0000 -0.0000 1.0000
vn 0.0000 1.0000 0.0000
vn 0.0000 -1.0000 -0.0000
usemtl Block-02_Material
s off
f 4/1/1 2/2/1 6/3/1
f 5/4/2 8/5/2 3/6/2
f 8/7/3 6/8/3 2/9/3
f 1/10/4 5/11/4 3/12/4
f 8/13/5 1/14/5 3/15/5
f 5/16/6 6/17/6 7/18/6
f 4/1/1 1/19/1 2/2/1
f 5/4/2 7/20/2 8/5/2
f 8/7/3 7/21/3 6/8/3
f 1/10/4 4/22/4 5/11/4
f 8/13/5 2/23/5 1/14/5
f 5/16/6 4/24/6 6/17/6
