# Blender v3.1.2 OBJ File: ''
# www.blender.org
mtllib Block-08.mtl
o Block-08
v -2.000000 1.000000 1.600000
v -2.000000 2.000000 2.000000
v -2.000000 2.000000 1.600000
v 1.600000 0.100000 -1.900000
v 1.600000 0.100000 -1.600000
v 1.600000 1.000000 -1.900000
v 1.600000 1.200000 -1.900000
v 1.600000 1.000000 -2.000000
v 1.900000 -0.000000 0.800000
v 1.900000 0.100000 0.600000
v 1.900000 0.100000 -1.600000
v 1.900000 0.100000 1.600000
v 1.900000 1.900000 -1.600000
v 1.900000 2.000000 0.800000
v 1.900000 2.000000 -0.600000
v -1.900000 0.100000 0.800000
v -1.900000 0.100000 0.600000
v -1.900000 0.100000 -1.600000
v -1.900000 1.000000 1.600000
v -1.900000 1.900000 -0.600000
v -1.900000 1.900000 -0.800000
v -1.900000 1.900000 -1.600000
v -1.600000 1.200000 -1.900000
v -1.600000 1.000000 -2.000000
v -1.600000 1.900000 -1.600000
v 2.000000 -0.000000 2.000000
v 2.000000 1.000000 1.600000
v 2.000000 1.200000 1.600000
v -2.000000 -0.000000 2.000000
v -1.600000 1.000000 2.000000
v 2.000000 2.000000 2.000000
v -1.900000 -0.000000 0.600000
v -1.900000 2.000000 0.600000
v -1.900000 1.900000 0.600000
v -1.900000 0.100000 -0.800000
v -1.900000 0.000000 -0.800000
v -1.900000 2.000000 -0.800000
v -1.900000 1.000000 -1.600000
v -2.000000 1.200000 -1.600000
v -2.000000 1.000000 -1.600000
v -1.900000 1.200000 -1.600000
v -1.600000 0.100000 -1.600000
v 1.600000 1.900000 -1.600000
v 1.900000 1.200000 -1.600000
v -1.600000 1.000000 -1.900000
v 1.600000 1.900000 -1.900000
v -1.600000 1.900000 1.900000
v -1.600000 0.100000 1.900000
v 1.600000 0.100000 1.900000
v 1.600000 1.000000 1.900000
v -2.000000 1.200000 1.600000
v -1.900000 1.900000 1.600000
v 1.600000 1.900000 1.600000
v 1.900000 1.900000 1.600000
v -1.900000 -0.000000 0.800000
v 1.900000 0.100000 0.800000
v 1.900000 1.900000 0.800000
v -1.900000 0.000000 -0.600000
v 1.900000 0.000000 -0.600000
v -1.900000 2.000000 -0.600000
v 1.900000 1.900000 -0.600000
v -2.000000 0.000000 -2.000000
v -2.000000 2.000000 -2.000000
v -1.600000 0.000000 -2.000000
v -1.600000 1.200000 -2.000000
v 2.000000 -0.000000 1.600000
v 1.900000 -0.000000 0.600000
v 1.900000 0.000000 -0.800000
v 2.000000 0.000000 -2.000000
v -1.600000 1.200000 1.900000
v 1.600000 1.200000 2.000000
v -1.600000 1.200000 2.000000
v 1.600000 1.200000 1.900000
v 1.900000 1.200000 1.600000
v -1.900000 1.200000 1.600000
v 2.000000 1.200000 -1.600000
v 1.600000 1.200000 -2.000000
v 1.600000 1.900000 1.900000
v -1.600000 1.900000 1.600000
v -1.900000 1.900000 0.800000
v 1.900000 1.900000 0.600000
v 1.900000 1.900000 -0.800000
v -1.600000 1.900000 -1.900000
v -1.600000 0.100000 1.600000
v 1.600000 0.100000 1.600000
v -1.900000 0.100000 1.600000
v -1.900000 0.100000 -0.600000
v 1.900000 0.100000 -0.600000
v 1.900000 0.100000 -0.800000
v -1.600000 0.100000 -1.900000
v 1.600000 1.000000 2.000000
v -1.600000 1.000000 1.900000
v 1.900000 1.000000 1.600000
v 1.900000 1.000000 -1.600000
v 2.000000 1.000000 -1.600000
v -1.900000 2.000000 0.800000
v 1.900000 2.000000 0.600000
v 1.900000 2.000000 -0.800000
v 2.000000 2.000000 -2.000000
vt 0.593750 0.562500
vt 0.625000 0.625000
vt 0.312500 0.625000
vt 0.320312 0.828125
vt 0.570312 0.828125
vt 0.593750 0.890625
vt 0.593750 0.898438
vt 0.296875 0.890625
vt 0.296875 0.898438
vt 0.312500 0.312500
vt 0.304687 0.406250
vt 0.304687 0.421875
vt 0.312500 0.156250
vt 0.593750 0.093750
vt 0.343750 0.093750
vt 0.304687 0.109375
vt 0.304687 0.093750
vt 0.312500 0.000000
vt 0.593750 0.625000
vt 0.843750 0.695312
vt 0.843750 0.625000
vt 0.632812 0.078125
vt 0.625000 0.078125
vt 0.632812 0.062500
vt 0.789062 0.367188
vt 0.796875 0.351562
vt 0.789062 0.351562
vt 0.593750 0.820312
vt 0.843750 0.765625
vt 0.593750 0.765625
vt 0.734375 0.820312
vt 0.679688 0.843750
vt 0.664062 0.843750
vt 0.812500 0.140625
vt 0.804688 0.390625
vt 0.812500 0.390625
vt 0.312500 0.281250
vt 0.000000 0.312500
vt 0.007812 0.218750
vt 0.570312 0.781250
vt 0.593750 0.718750
vt 0.320312 0.781250
vt 0.023438 0.781250
vt 0.000000 0.718750
vt 0.273438 0.781250
vt 0.875000 0.617188
vt 0.625000 0.625000
vt 0.875000 0.625000
vt 0.765625 0.617188
vt 0.710938 0.593750
vt 0.695312 0.593750
vt 0.312500 0.468750
vt 0.625000 0.468750
vt 0.343750 0.546875
vt 0.796875 0.390625
vt 0.804688 0.140625
vt 0.804688 0.390625
vt 0.593750 0.882812
vt 0.890625 0.875000
vt 0.890625 0.882812
vt 0.796875 0.140625
vt 0.796875 0.000000
vt 0.773438 0.070312
vt 0.593750 0.078125
vt 0.625000 0.156250
vt 0.625000 0.000000
vt 0.890625 0.898438
vt 0.593750 0.890625
vt 0.593750 0.898438
vt 0.828125 0.140625
vt 0.820313 0.390625
vt 0.828125 0.390625
vt 0.023438 0.828125
vt 0.000000 0.890625
vt 0.273438 0.828125
vt 0.757812 0.062500
vt 0.757812 0.078125
vt 0.703125 0.000000
vt 0.820312 0.085938
vt 0.796875 0.140625
vt 0.820312 0.070312
vt 0.703125 0.250000
vt 0.632812 0.328125
vt 0.632812 0.421875
vt 0.296875 0.898437
vt 0.000000 0.890625
vt 0.000000 0.898437
vt 0.875000 0.820312
vt 0.734375 0.820312
vt 0.804687 0.843750
vt 0.304687 0.203125
vt 0.007812 0.203125
vt 0.593750 0.867187
vt 0.890625 0.859375
vt 0.890625 0.867187
vt 0.250000 0.906250
vt 0.000000 0.898437
vt 0.250000 0.898437
vt 0.312500 0.156250
vt 0.390625 0.437500
vt 0.007812 0.406250
vt 0.000000 0.312500
vt 0.406250 0.187500
vt 0.468750 0.437500
vt 0.468750 0.156250
vt 0.796875 0.281250
vt 0.773438 0.226562
vt 0.773438 0.210937
vt 0.593750 0.875000
vt 0.890625 0.867187
vt 0.890625 0.875000
vt 0.296875 0.625000
vt 0.000000 0.718750
vt 0.000000 0.625000
vt 0.710938 0.562500
vt 0.765625 0.585937
vt 0.695312 0.562500
vt 0.625000 0.468750
vt 0.562500 0.437500
vt 0.843750 0.906250
vt 0.593750 0.898438
vt 0.843750 0.898438
vt 0.875000 0.500000
vt 0.625000 0.554688
vt 0.625000 0.500000
vt 0.593750 0.890625
vt 0.890625 0.882813
vt 0.890625 0.890625
vt 0.820313 0.390625
vt 0.812500 0.140625
vt 0.820313 0.140625
vt 0.757812 0.437500
vt 0.757812 0.421875
vt 0.703125 0.500000
vt 0.593750 0.625000
vt 0.296875 0.718750
vt 0.593750 0.718750
vt 0.500000 0.898438
vt 0.250000 0.906250
vt 0.500000 0.906250
vt 0.843750 0.765625
vt 0.593750 0.695312
vt 0.843750 0.695312
vt 0.890625 0.859375
vt 0.593750 0.851562
vt 0.593750 0.859375
vt 0.546875 0.187500
vt 0.468750 0.437500
vt 0.468750 0.156250
vt 0.593750 0.546875
vt 0.296875 0.890625
vt 0.296875 0.828125
vt 0.320312 0.804688
vt 0.570312 0.804688
vt 0.593750 0.828125
vt 0.593750 0.890625
vt 0.304687 0.515625
vt 0.304687 0.531250
vt 0.312500 0.625000
vt 0.343750 0.078125
vt 0.343750 0.000000
vt 0.312500 0.000000
vt 0.007812 0.093750
vt 0.007812 0.109375
vt 0.000000 0.000000
vt 0.031250 0.000000
vt 0.593750 0.695312
vt 0.632812 0.000000
vt 0.703125 0.000000
vt 0.703125 0.250000
vt 0.632812 0.250000
vt 0.632812 0.187500
vt 0.625000 0.187500
vt 0.625000 0.171875
vt 0.632812 0.171875
vt 0.625000 0.062500
vt 0.765625 0.281250
vt 0.765625 0.421875
vt 0.789062 0.421875
vt 0.796875 0.367188
vt 0.789062 0.281250
vt 0.843750 0.820312
vt 0.679688 0.851562
vt 0.664062 0.851562
vt 0.593750 0.843750
vt 0.593750 0.820312
vt 0.734375 0.843750
vt 0.804688 0.140625
vt 0.304687 0.218750
vt 0.312500 0.312500
vt 0.320312 0.804688
vt 0.570312 0.804688
vt 0.593750 0.781250
vt 0.296875 0.718750
vt 0.296875 0.781250
vt 0.000000 0.781250
vt 0.296875 0.718750
vt 0.296875 0.781250
vt 0.273438 0.804688
vt 0.023438 0.804688
vt 0.625000 0.617188
vt 0.710938 0.585938
vt 0.695312 0.585938
vt 0.625000 0.593750
vt 0.625000 0.617188
vt 0.765625 0.593750
vt 0.343750 0.562500
vt 0.796875 0.140625
vt 0.593750 0.875000
vt 0.765625 0.070312
vt 0.765625 0.085938
vt 0.773438 0.085938
vt 0.773438 0.140625
vt 0.773438 0.000000
vt 0.890625 0.890625
vt 0.820313 0.140625
vt 0.273438 0.804688
vt 0.023438 0.804688
vt 0.000000 0.828125
vt 0.296875 0.890625
vt 0.296875 0.828125
vt 0.757812 0.171875
vt 0.765625 0.171875
vt 0.765625 0.187500
vt 0.757812 0.187500
vt 0.757812 0.250000
vt 0.703125 0.250000
vt 0.765625 0.062500
vt 0.765625 0.078125
vt 0.757812 0.000000
vt 0.828125 0.070312
vt 0.828125 0.085938
vt 0.820312 0.140625
vt 0.796875 0.000000
vt 0.820312 0.000000
vt 0.632812 0.312500
vt 0.625000 0.312500
vt 0.625000 0.328125
vt 0.632812 0.250000
vt 0.632812 0.500000
vt 0.703125 0.500000
vt 0.632812 0.437500
vt 0.625000 0.421875
vt 0.625000 0.437500
vt 0.296875 0.890625
vt 0.804687 0.851562
vt 0.820312 0.851562
vt 0.820312 0.843750
vt 0.875000 0.843750
vt 0.734375 0.843750
vt 0.593750 0.859375
vt 0.000000 0.906250
vt 0.390625 0.187500
vt 0.468750 0.468750
vt 0.406250 0.437500
vt 0.000000 0.625000
vt 0.000000 0.593750
vt 0.007812 0.531250
vt 0.007812 0.421875
vt 0.007812 0.515625
vt 0.765625 0.226562
vt 0.765625 0.210937
vt 0.773438 0.140625
vt 0.796875 0.140625
vt 0.773438 0.281250
vt 0.593750 0.867187
vt 0.296875 0.718750
vt 0.765625 0.562500
vt 0.625000 0.585937
vt 0.625000 0.562500
vt 0.695312 0.554687
vt 0.710938 0.554687
vt 0.468750 0.468750
vt 0.546875 0.437500
vt 0.562500 0.187500
vt 0.593750 0.906250
vt 0.875000 0.554688
vt 0.593750 0.882813
vt 0.812500 0.390625
vt 0.757812 0.328125
vt 0.765625 0.328125
vt 0.765625 0.312500
vt 0.757812 0.312500
vt 0.757812 0.250000
vt 0.703125 0.250000
vt 0.765625 0.437500
vt 0.765625 0.421875
vt 0.757812 0.500000
vt 0.296875 0.625000
vt 0.250000 0.898438
vt 0.593750 0.765625
vt 0.890625 0.851562
vn 0.0000 0.0000 1.0000
vn 0.0000 -1.0000 -0.0000
vn 0.0000 0.0000 -1.0000
vn 0.0000 1.0000 0.0000
vn 1.0000 0.0000 0.0000
vn -1.0000 -0.0000 0.0000
usemtl Block-08_Material
s off
f 71/1/1 31/2/1 2/3/1
f 25/4/2 43/5/2 82/6/2
f 56/7/3 55/8/3 16/9/3
f 99/10/4 98/11/4 15/12/4
f 63/13/3 77/14/3 65/15/3
f 59/16/2 68/17/2 69/18/2
f 48/19/3 50/20/3 49/21/3
f 87/22/5 58/23/5 35/24/5
f 74/25/3 27/26/3 93/27/3
f 47/28/3 73/29/3 70/30/3
f 79/31/5 70/32/5 92/33/5
f 95/34/4 93/35/4 27/36/4
f 66/37/2 29/38/2 55/39/2
f 85/40/4 56/41/4 84/42/4
f 79/43/2 80/44/2 53/45/2
f 8/46/4 45/47/4 6/48/4
f 43/49/6 7/50/6 6/51/6
f 29/52/1 26/53/1 30/54/1
f 74/55/2 76/56/2 28/57/2
f 35/58/1 68/59/1 89/60/1
f 79/61/3 84/62/3 19/63/3
f 8/64/3 99/65/3 69/66/3
f 88/67/3 58/68/3 87/69/3
f 38/70/4 1/71/4 19/72/4
f 42/73/4 35/74/4 5/75/4
f 21/76/5 20/77/5 41/78/5
f 44/79/1 43/80/1 94/81/1
f 94/82/6 88/83/6 10/84/6
f 14/85/3 80/86/3 96/87/3
f 53/88/6 85/89/6 50/90/6
f 59/16/2 67/91/2 32/92/2
f 17/93/1 67/94/1 10/95/1
f 7/96/2 65/97/2 77/98/2
f 62/99/6 29/52/6 1/100/6
f 37/101/4 98/11/4 63/102/4
f 39/103/6 3/104/6 63/105/6
f 25/106/1 41/107/1 38/108/1
f 33/109/1 81/110/1 97/111/1
f 61/112/2 34/113/2 20/114/2
f 23/115/5 25/116/5 45/117/5
f 99/65/5 31/118/5 28/119/5
f 71/120/2 70/121/2 73/122/2
f 7/123/1 83/124/1 23/125/1
f 37/126/1 82/127/1 98/128/1
f 75/129/2 39/130/2 41/131/2
f 57/132/6 81/133/6 74/134/6
f 88/135/4 17/136/4 10/137/4
f 50/138/4 30/139/4 91/140/4
f 6/141/1 90/142/1 4/143/1
f 15/144/3 20/145/3 60/146/3
f 95/147/5 66/148/5 69/149/5
f 71/1/1 91/150/1 31/2/1
f 82/6/2 21/151/2 25/4/2
f 21/151/2 22/152/2 25/4/2
f 25/4/2 83/153/2 46/154/2
f 43/5/2 13/155/2 82/6/2
f 25/4/2 46/154/2 43/5/2
f 56/7/3 9/156/3 55/8/3
f 15/12/4 97/157/4 99/10/4
f 97/157/4 14/158/4 31/159/4
f 99/10/4 97/157/4 31/159/4
f 24/160/3 8/64/3 64/161/3
f 64/161/3 62/162/3 24/160/3
f 62/162/3 63/13/3 24/160/3
f 63/13/3 99/65/3 77/14/3
f 65/15/3 24/160/3 63/13/3
f 36/163/2 58/164/2 62/165/2
f 62/165/2 64/166/2 36/163/2
f 64/166/2 69/18/2 68/17/2
f 68/17/2 36/163/2 64/166/2
f 66/37/2 59/16/2 69/18/2
f 48/19/3 92/167/3 50/20/3
f 18/168/5 38/169/5 35/24/5
f 38/169/5 19/170/5 87/22/5
f 35/24/5 38/169/5 87/22/5
f 19/170/5 86/171/5 16/172/5
f 16/172/5 55/173/5 32/174/5
f 16/172/5 32/174/5 17/175/5
f 58/23/5 36/176/5 35/24/5
f 16/172/5 17/175/5 19/170/5
f 17/175/5 87/22/5 19/170/5
f 85/177/3 53/178/3 93/27/3
f 53/178/3 54/179/3 74/25/3
f 74/25/3 28/180/3 27/26/3
f 53/178/3 74/25/3 93/27/3
f 93/27/3 12/181/3 85/177/3
f 47/28/3 78/182/3 73/29/3
f 72/183/5 30/184/5 92/33/5
f 92/33/5 48/185/5 84/186/5
f 84/186/5 79/31/5 92/33/5
f 79/31/5 47/187/5 70/32/5
f 70/32/5 72/183/5 92/33/5
f 95/34/4 94/188/4 93/35/4
f 9/189/2 67/91/2 66/37/2
f 66/37/2 26/190/2 29/38/2
f 29/38/2 62/165/2 58/164/2
f 58/164/2 32/92/2 29/38/2
f 32/92/2 55/39/2 29/38/2
f 9/189/2 66/37/2 55/39/2
f 48/191/4 49/192/4 85/40/4
f 85/40/4 12/193/4 56/41/4
f 56/41/4 16/194/4 84/42/4
f 16/194/4 86/195/4 84/42/4
f 84/42/4 48/191/4 85/40/4
f 79/43/2 52/196/2 80/44/2
f 80/44/2 57/197/2 53/45/2
f 57/197/2 54/198/2 53/45/2
f 53/45/2 78/199/2 47/200/2
f 53/45/2 47/200/2 79/43/2
f 8/46/4 24/201/4 45/47/4
f 77/202/6 8/203/6 6/51/6
f 6/51/6 4/204/6 5/205/6
f 5/205/6 43/49/6 6/51/6
f 43/49/6 46/206/6 7/50/6
f 7/50/6 77/202/6 6/51/6
f 72/207/1 71/1/1 2/3/1
f 26/53/1 31/2/1 91/150/1
f 30/54/1 72/207/1 2/3/1
f 26/53/1 91/150/1 30/54/1
f 30/54/1 2/3/1 29/52/1
f 74/55/2 44/208/2 76/56/2
f 35/58/1 36/209/1 68/59/1
f 19/63/3 1/210/3 51/211/3
f 75/212/3 52/213/3 79/61/3
f 19/63/3 51/211/3 75/212/3
f 84/62/3 86/214/3 19/63/3
f 75/212/3 79/61/3 19/63/3
f 69/66/3 64/161/3 8/64/3
f 8/64/3 77/14/3 99/65/3
f 88/67/3 59/215/3 58/68/3
f 38/70/4 40/216/4 1/71/4
f 4/217/4 90/218/4 42/73/4
f 42/73/4 18/219/4 35/74/4
f 35/74/4 89/220/4 5/75/4
f 89/220/4 11/221/4 5/75/4
f 5/75/4 4/217/4 42/73/4
f 34/222/5 33/223/5 96/224/5
f 80/225/5 52/226/5 75/227/5
f 34/222/5 96/224/5 80/225/5
f 37/228/5 60/229/5 20/77/5
f 34/222/5 80/225/5 75/227/5
f 21/76/5 37/228/5 20/77/5
f 20/77/5 34/222/5 75/227/5
f 75/227/5 41/78/5 20/77/5
f 41/78/5 22/230/5 21/76/5
f 95/231/1 76/232/1 44/79/1
f 44/79/1 13/233/1 43/80/1
f 43/80/1 5/234/1 94/81/1
f 5/234/1 11/235/1 94/81/1
f 94/81/1 95/231/1 44/79/1
f 89/236/6 68/237/6 59/238/6
f 89/236/6 59/238/6 88/83/6
f 94/82/6 11/239/6 89/236/6
f 12/240/6 93/241/6 56/242/6
f 93/241/6 94/82/6 10/84/6
f 56/242/6 93/241/6 10/84/6
f 67/243/6 9/244/6 56/242/6
f 94/82/6 89/236/6 88/83/6
f 10/84/6 67/243/6 56/242/6
f 14/85/3 57/245/3 80/86/3
f 50/90/6 91/246/6 71/247/6
f 73/248/6 78/249/6 53/88/6
f 50/90/6 71/247/6 73/248/6
f 85/89/6 49/250/6 50/90/6
f 73/248/6 53/88/6 50/90/6
f 32/92/2 58/164/2 59/16/2
f 59/16/2 66/37/2 67/91/2
f 17/93/1 32/251/1 67/94/1
f 7/96/2 23/252/2 65/97/2
f 39/103/6 63/105/6 40/253/6
f 63/105/6 62/99/6 40/253/6
f 29/52/6 2/254/6 1/100/6
f 2/254/6 3/104/6 51/255/6
f 51/255/6 1/100/6 2/254/6
f 1/100/6 40/253/6 62/99/6
f 2/256/4 31/159/4 3/257/4
f 31/159/4 14/158/4 3/257/4
f 14/158/4 96/258/4 3/257/4
f 63/102/4 3/257/4 60/259/4
f 33/260/4 3/257/4 96/258/4
f 33/260/4 97/157/4 15/12/4
f 33/260/4 15/12/4 60/259/4
f 3/257/4 33/260/4 60/259/4
f 98/11/4 99/10/4 63/102/4
f 60/259/4 37/101/4 63/102/4
f 39/103/6 51/255/6 3/104/6
f 39/261/1 40/262/1 38/108/1
f 38/108/1 18/263/1 42/264/1
f 42/264/1 25/106/1 38/108/1
f 25/106/1 22/265/1 41/107/1
f 41/107/1 39/261/1 38/108/1
f 33/109/1 34/266/1 81/110/1
f 61/112/2 81/267/2 34/113/2
f 23/115/5 83/268/5 25/116/5
f 25/116/5 42/269/5 45/117/5
f 42/269/5 90/270/5 45/117/5
f 45/117/5 24/271/5 65/272/5
f 45/117/5 65/272/5 23/115/5
f 31/118/5 26/273/5 27/274/5
f 26/273/5 66/148/5 27/274/5
f 27/274/5 28/119/5 31/118/5
f 95/147/5 69/149/5 99/65/5
f 76/275/5 95/147/5 99/65/5
f 28/119/5 76/275/5 99/65/5
f 71/120/2 72/276/2 70/121/2
f 7/123/1 46/277/1 83/124/1
f 37/126/1 21/278/1 82/127/1
f 75/129/2 51/279/2 39/130/2
f 61/280/6 15/281/6 98/282/6
f 82/283/6 13/284/6 44/285/6
f 61/280/6 98/282/6 82/283/6
f 14/286/6 97/287/6 81/133/6
f 61/280/6 82/283/6 44/285/6
f 57/132/6 14/286/6 81/133/6
f 81/133/6 61/280/6 44/285/6
f 44/285/6 74/134/6 81/133/6
f 74/134/6 54/288/6 57/132/6
f 88/135/4 87/289/4 17/136/4
f 50/138/4 92/290/4 30/139/4
f 6/141/1 45/291/1 90/142/1
f 15/144/3 61/292/3 20/145/3
f 95/147/5 27/274/5 66/148/5
