# Blender v3.1.2 OBJ File: ''
# www.blender.org
mtllib Bush-01.mtl
o Bush-01
v -4.000000 0.200000 -2.000000
v -3.800000 -0.000000 1.800000
v 3.800000 -0.000000 1.800000
v 3.800000 0.000000 -1.800000
v 3.800000 0.200000 1.800000
v 3.800000 0.200000 -1.800000
v -4.000000 4.000000 2.000001
v -3.800000 0.200000 -1.800000
v -3.800000 0.000000 -1.800000
v -3.800000 0.200000 1.800000
v 4.000000 0.200000 2.000000
v -4.000000 0.200000 2.000000
v 4.000000 0.200000 -2.000000
v 4.000000 4.000000 2.000001
v -4.000000 4.000000 -1.999999
v 4.000000 4.000000 -1.999999
vt 0.000000 0.460938
vt 0.312500 0.312500
vt 0.000000 0.312500
vt 0.460938 0.453125
vt 0.312500 0.296875
vt 0.460938 0.296875
vt 0.460938 0.140625
vt 0.312500 0.296875
vt 0.460938 0.296875
vt 0.312500 0.609375
vt 0.000000 0.460938
vt 0.312500 0.460938
vt 0.304688 0.007812
vt 0.312500 0.156250
vt 0.304688 0.148438
vt 0.460938 0.140625
vt 0.468750 0.281250
vt 0.468750 0.140625
vt 0.312500 0.156250
vt 0.000000 0.312500
vt 0.312500 0.312500
vt 0.468750 0.281250
vt 0.460938 0.421875
vt 0.460938 0.281250
vt 0.609375 0.140625
vt 0.312500 0.000000
vt 0.609375 0.000000
vt 0.007812 0.148438
vt 0.000000 0.156250
vt 0.000000 0.000000
vt 0.609375 0.468750
vt 0.312500 0.460938
vt 0.312500 0.468750
vt 0.312500 0.460937
vt 0.609375 0.453125
vt 0.609375 0.460937
vt 0.312500 0.460938
vt 0.312500 0.453125
vt 0.312500 0.140625
vt 0.000000 0.609375
vt 0.312500 0.000000
vt 0.460938 0.281250
vt 0.000000 0.156250
vt 0.468750 0.421875
vt 0.312500 0.140625
vt 0.007812 0.007812
vt 0.609375 0.460938
vt 0.312500 0.453125
vn 0.0000 0.0000 -1.0000
vn 1.0000 0.0000 0.0000
vn -1.0000 0.0000 0.0000
vn 0.0000 -0.0000 1.0000
vn 0.0000 -1.0000 -0.0000
vn 0.0000 1.0000 0.0000
usemtl Bush-01_Material
s off
f 15/1/1 13/2/1 1/3/1
f 14/4/2 13/5/2 16/6/2
f 15/7/3 12/8/3 7/9/3
f 14/10/4 12/11/4 11/12/4
f 6/13/5 11/14/5 5/15/5
f 9/16/3 10/17/3 8/18/3
f 16/19/6 7/20/6 14/21/6
f 6/22/2 3/23/2 4/24/2
f 3/25/5 9/26/5 4/27/5
f 10/28/5 12/29/5 1/30/5
f 6/31/1 9/32/1 8/33/1
f 10/34/4 3/35/4 5/36/4
f 15/1/1 16/37/1 13/2/1
f 14/4/2 11/38/2 13/5/2
f 15/7/3 1/39/3 12/8/3
f 14/10/4 7/40/4 12/11/4
f 6/13/5 13/41/5 11/14/5
f 9/16/3 2/42/3 10/17/3
f 16/19/6 15/43/6 7/20/6
f 6/22/2 5/44/2 3/23/2
f 3/25/5 2/45/5 9/26/5
f 10/28/5 5/15/5 11/14/5
f 1/30/5 13/41/5 6/13/5
f 1/30/5 6/13/5 8/46/5
f 10/28/5 11/14/5 12/29/5
f 1/30/5 8/46/5 10/28/5
f 6/31/1 4/47/1 9/32/1
f 10/34/4 2/48/4 3/35/4
