# Blender v3.1.2 OBJ File: ''
# www.blender.org
mtllib Tree-02.mtl
o Tree-02
v 2.000000 12.000000 -1.999998
v 2.000000 12.000000 2.000002
v 0.400000 3.000000 -0.400000
v 0.400000 -0.000000 0.400000
v 0.400000 0.000000 -0.400000
v -0.400000 3.300000 -0.399999
v 0.400000 3.600000 -0.399999
v 0.400000 4.600000 0.400001
v 0.400000 4.700000 -0.399999
v -0.400000 3.000000 -0.400000
v -0.400000 3.000000 0.400000
v -2.000000 3.000000 -2.000000
v -2.000000 12.000000 2.000002
v 0.400000 3.300000 0.400001
v 0.400000 4.700000 0.400001
v 0.400000 3.300000 -0.399999
v 0.400000 4.600000 -0.399999
v -0.400000 4.700000 -0.399999
v -0.400000 0.000000 -0.400000
v -0.400000 -0.000000 0.400000
v 2.000000 3.000000 -2.000000
v 0.400000 3.000000 0.400000
v 2.000000 3.000000 2.000000
v -2.000000 3.000000 2.000000
v 0.400000 3.600000 0.400001
v -0.400000 3.600000 -0.399999
v -0.400000 3.600000 0.400001
v -0.400000 4.700000 0.400001
v -0.400000 3.300000 0.400001
v -0.400000 4.600000 -0.399999
v -0.400000 4.600000 0.400001
v -2.000000 12.000000 -1.999998
vt 0.382812 0.457031
vt 0.414062 0.445312
vt 0.414062 0.457031
vt 0.382812 0.457031
vt 0.351562 0.445312
vt 0.351562 0.457031
vt 0.414062 0.445312
vt 0.445312 0.414062
vt 0.414062 0.414062
vt 0.156250 0.468750
vt 0.250000 0.406250
vt 0.312500 0.468750
vt 0.351562 0.445312
vt 0.382812 0.414062
vt 0.351562 0.414062
vt 0.000000 0.664062
vt 0.351562 0.507812
vt 0.351562 0.664062
vt 0.457031 0.445312
vt 0.445312 0.445312
vt 0.312500 0.390625
vt 0.343750 0.421875
vt 0.312500 0.421875
vt 0.218750 0.375000
vt 0.156250 0.312500
vt 0.250000 0.375000
vt 0.156250 0.312500
vt 0.312500 0.156250
vt 0.156250 0.156250
vt 0.414062 0.449219
vt 0.445312 0.445312
vt 0.445312 0.449219
vt 0.468750 0.382812
vt 0.351562 0.351562
vt 0.351562 0.382812
vt 0.343750 0.187500
vt 0.347656 0.156250
vt 0.347656 0.187500
vt 0.312500 0.421875
vt 0.343750 0.453125
vt 0.312500 0.453125
vt 0.351562 0.156250
vt 0.000000 0.000000
vt 0.000000 0.156250
vt 0.382812 0.414062
vt 0.414062 0.445312
vt 0.382812 0.445312
vt 0.457031 0.445312
vt 0.468750 0.414062
vt 0.468750 0.445312
vt 0.000000 0.507812
vt 0.156250 0.156250
vt 0.156250 0.507812
vt 0.351562 0.000000
vt 0.507812 0.351562
vt 0.507812 0.000000
vt 0.312500 0.273437
vt 0.343750 0.156250
vt 0.343750 0.273437
vt 0.445312 0.453125
vt 0.414062 0.449219
vt 0.414062 0.453125
vt 0.351562 0.414062
vt 0.468750 0.382812
vt 0.468750 0.414062
vt 0.343750 0.390625
vt 0.312500 0.273437
vt 0.312500 0.390625
vt 0.347656 0.218750
vt 0.343750 0.187500
vt 0.343750 0.218750
vt 0.382812 0.445312
vt 0.382812 0.445312
vt 0.218750 0.406250
vt 0.312500 0.312500
vt 0.382812 0.445312
vt 0.000000 0.507812
vt 0.457031 0.414062
vt 0.343750 0.390625
vt 0.312500 0.312500
vt 0.414062 0.445312
vt 0.468750 0.351562
vt 0.343750 0.156250
vt 0.343750 0.421875
vt 0.351562 0.000000
vt 0.414062 0.414062
vt 0.457031 0.414062
vt 0.351562 0.351562
vt 0.312500 0.156250
vt 0.445312 0.449219
vt 0.351562 0.382812
vt 0.343750 0.273437
vt 0.347656 0.187500
vn 0.0000 -0.0000 1.0000
vn 0.0000 0.0000 -1.0000
vn 0.0000 1.0000 0.0000
vn 0.0000 -1.0000 -0.0000
vn 1.0000 0.0000 0.0000
vn -1.0000 -0.0000 0.0000
usemtl Tree-02_Material
s off
f 26/1/1 16/2/1 7/3/1
f 25/4/2 29/5/2 27/6/2
f 29/7/3 16/8/3 6/9/3
f 24/10/4 22/11/4 23/12/4
f 31/13/3 17/14/3 30/15/3
f 23/16/5 1/17/5 2/18/5
f 25/19/6 16/8/6 14/20/6
f 19/21/4 4/22/4 20/23/4
f 10/24/4 12/25/4 3/26/4
f 13/27/3 1/28/3 32/29/3
f 18/30/1 17/31/1 9/32/1
f 11/33/6 19/34/6 20/35/6
f 31/36/5 18/37/5 28/38/5
f 26/39/4 25/40/4 27/41/4
f 13/42/6 12/43/6 24/44/6
f 18/45/4 15/46/4 28/47/4
f 29/48/5 26/49/5 27/50/5
f 13/51/1 23/52/1 2/53/1
f 12/54/2 1/55/2 21/56/2
f 11/57/1 4/58/1 22/59/1
f 15/60/2 31/61/2 28/62/2
f 4/63/5 3/64/5 22/65/5
f 3/66/2 19/67/2 10/68/2
f 15/69/6 17/70/6 8/71/6
f 26/1/1 6/72/1 16/2/1
f 25/4/2 14/73/2 29/5/2
f 29/7/3 14/20/3 16/8/3
f 24/10/4 12/25/4 11/74/4
f 22/11/4 3/26/4 23/12/4
f 3/26/4 21/75/4 23/12/4
f 24/10/4 11/74/4 22/11/4
f 31/13/3 8/76/3 17/14/3
f 23/16/5 21/77/5 1/17/5
f 25/19/6 7/78/6 16/8/6
f 19/21/4 5/79/4 4/22/4
f 10/24/4 11/74/4 12/25/4
f 12/25/4 21/75/4 3/26/4
f 13/27/3 2/80/3 1/28/3
f 18/30/1 30/81/1 17/31/1
f 11/33/6 10/82/6 19/34/6
f 31/36/5 30/83/5 18/37/5
f 26/39/4 7/84/4 25/40/4
f 13/42/6 32/85/6 12/43/6
f 18/45/4 9/86/4 15/46/4
f 29/48/5 6/87/5 26/49/5
f 13/51/1 24/44/1 23/52/1
f 12/54/2 32/88/2 1/55/2
f 11/57/1 20/89/1 4/58/1
f 15/60/2 8/90/2 31/61/2
f 4/63/5 5/91/5 3/64/5
f 3/66/2 5/92/2 19/67/2
f 15/69/6 9/93/6 17/70/6
