# Blender v3.1.2 OBJ File: ''
# www.blender.org
mtllib Block-01.mtl
o Block-01
v -2.100000 -0.000000 2.000000
v -2.100000 4.000000 2.000001
v 1.900000 -0.000000 2.000000
v 1.900000 4.000000 2.000001
v -2.100000 0.000000 -2.000000
v 1.900000 0.000000 -2.000000
v -2.100000 4.000000 -1.999999
v 1.900000 4.000000 -1.999999
vt 0.330579 0.661157
vt 0.000000 0.991736
vt 0.330579 0.991736
vt 0.991736 0.330579
vt 0.661157 0.000000
vt 0.661157 0.330579
vt 0.330579 0.000000
vt 0.000000 0.330579
vt 0.000000 0.000000
vt 0.330579 0.330579
vt 0.661157 0.000000
vt 0.330579 0.000000
vt 0.330579 0.330579
vt 0.000000 0.661157
vt 0.000000 0.330579
vt 0.330579 0.661157
vt 0.661157 0.330579
vt 0.661157 0.661157
vt 0.000000 0.661157
vt 0.991736 0.000000
vt 0.330579 0.330579
vt 0.661157 0.330579
vt 0.330579 0.661157
vt 0.330579 0.330579
vn 0.0000 1.0000 0.0000
vn -1.0000 0.0000 0.0000
vn 1.0000 0.0000 0.0000
vn 0.0000 0.0000 -1.0000
vn 0.0000 -0.0000 1.0000
vn 0.0000 -1.0000 -0.0000
usemtl Block-01_Material
s off
f 8/1/1 2/2/1 4/3/1
f 2/4/2 5/5/2 1/6/2
f 8/7/3 3/8/3 6/9/3
f 7/10/4 6/11/4 5/12/4
f 3/13/5 2/14/5 1/15/5
f 1/16/6 6/17/6 3/18/6
f 8/1/1 7/19/1 2/2/1
f 2/4/2 7/20/2 5/5/2
f 8/7/3 4/21/3 3/8/3
f 7/10/4 8/22/4 6/11/4
f 3/13/5 4/23/5 2/14/5
f 1/16/6 5/24/6 6/17/6
