# MagicaVoxel @ Ephtracy

# group
o 

# material
mtllib Plane-block-04.mtl
usemtl palette

# normals
vn -1 0 0
vn 1 0 0
vn 0 0 1
vn 0 0 -1
vn 0 -1 0
vn 0 1 0

# texcoords
vt 0.751953 0.5
vt 0.783203 0.5
vt 0.814453 0.5
vt 0.845703 0.5
vt 0.904297 0.5

# verts
v -2 0 2
v -2 0 -2
v -2 1.2 0.8
v -2 1.2 0.2
v -2 1.2 -1.2
v -2 1.2 -2
v -2 1.3 1
v -2 1.3 0.8
v -2 1.3 0.2
v -2 1.3 -2.38419e-07
v -2 1.3 -1
v -2 1.3 -1.2
v -2 1.3 -2
v -2 1.4 1.2
v -2 1.4 1
v -2 1.4 0.8
v -2 1.4 0.2
v -2 1.4 -2.38419e-07
v -2 1.4 -0.2
v -2 1.4 -0.8
v -2 1.4 -1
v -2 1.4 -1.2
v -2 1.5 2
v -2 1.5 1.2
v -2 1.5 1
v -2 1.5 0.7
v -2 1.5 0.3
v -2 1.5 -2.38419e-07
v -2 1.5 -0.2
v -2 1.5 -0.8
v -2 1.5 -1
v -2 1.5 -1.3
v -2 1.5 -2
v -2 1.6 2
v -2 1.6 1.2
v -2 1.6 0.9
v -2 1.6 0.7
v -2 1.6 0.3
v -2 1.6 0.0999999
v -2 1.6 -0.2
v -2 1.6 -0.8
v -2 1.6 -1.1
v -2 1.6 -1.3
v -2 1.7 1.1
v -2 1.7 0.9
v -2 1.7 0.0999999
v -2 1.7 -0.1
v -2 1.7 -0.9
v -2 1.7 -1.1
v -2 1.8 2
v -2 1.8 1.1
v -2 1.8 -0.1
v -2 1.8 -0.9
v -2 1.9 2
v -2 1.9 -2
v -2 2 2
v -2 2 -2
v 2 0 2
v 2 0 -2
v 2 1.2 2
v 2 1.2 1.2
v 2 1.2 -0.2
v 2 1.2 -0.8
v 2 1.3 2
v 2 1.3 1.2
v 2 1.3 1
v 2 1.3 -2.38419e-07
v 2 1.3 -0.2
v 2 1.3 -0.8
v 2 1.3 -1
v 2 1.4 1.2
v 2 1.4 1
v 2 1.4 0.8
v 2 1.4 0.2
v 2 1.4 -2.38419e-07
v 2 1.4 -0.2
v 2 1.4 -0.8
v 2 1.4 -1
v 2 1.4 -1.2
v 2 1.5 2
v 2 1.5 1.3
v 2 1.5 1
v 2 1.5 0.8
v 2 1.5 0.2
v 2 1.5 -2.38419e-07
v 2 1.5 -0.3
v 2 1.5 -0.7
v 2 1.5 -1
v 2 1.5 -1.2
v 2 1.5 -2
v 2 1.6 1.3
v 2 1.6 1.1
v 2 1.6 0.8
v 2 1.6 0.2
v 2 1.6 -0.1
v 2 1.6 -0.3
v 2 1.6 -0.7
v 2 1.6 -0.9
v 2 1.6 -1.2
v 2 1.6 -2
v 2 1.7 1.1
v 2 1.7 0.9
v 2 1.7 0.0999999
v 2 1.7 -0.1
v 2 1.7 -0.9
v 2 1.7 -1.1
v 2 1.8 0.9
v 2 1.8 0.0999999
v 2 1.8 -1.1
v 2 1.8 -2
v 2 1.9 2
v 2 1.9 -2
v 2 2 2
v 2 2 -2
v -2 0 2
v -2 1.5 2
v -2 1.6 2
v -2 1.8 2
v -2 1.9 2
v -2 2 2
v -1.2 1.4 2
v -1.2 1.5 2
v -1.2 1.6 2
v -1.1 1.7 2
v -1.1 1.8 2
v -1 1.3 2
v -1 1.4 2
v -1 1.5 2
v -0.9 1.6 2
v -0.9 1.7 2
v -0.8 1.2 2
v -0.8 1.3 2
v -0.8 1.4 2
v -0.7 1.5 2
v -0.7 1.6 2
v -0.3 1.5 2
v -0.3 1.6 2
v -0.2 1.2 2
v -0.2 1.3 2
v -0.2 1.4 2
v -0.0999999 1.6 2
v -0.0999999 1.7 2
v 2.38419e-07 1.3 2
v 2.38419e-07 1.4 2
v 2.38419e-07 1.5 2
v 0.1 1.7 2
v 0.1 1.8 2
v 0.2 1.4 2
v 0.2 1.5 2
v 0.2 1.6 2
v 0.8 1.4 2
v 0.8 1.5 2
v 0.8 1.6 2
v 0.9 1.7 2
v 0.9 1.8 2
v 1 1.3 2
v 1 1.4 2
v 1 1.5 2
v 1.1 1.6 2
v 1.1 1.7 2
v 1.2 1.2 2
v 1.2 1.3 2
v 1.2 1.4 2
v 1.3 1.5 2
v 1.3 1.6 2
v 2 0 2
v 2 1.2 2
v 2 1.3 2
v 2 1.5 2
v 2 1.9 2
v 2 2 2
v -2 0 -2
v -2 1.2 -2
v -2 1.3 -2
v -2 1.5 -2
v -2 1.9 -2
v -2 2 -2
v -1.3 1.5 -2
v -1.3 1.6 -2
v -1.2 1.2 -2
v -1.2 1.3 -2
v -1.2 1.4 -2
v -1.1 1.6 -2
v -1.1 1.7 -2
v -1 1.3 -2
v -1 1.4 -2
v -1 1.5 -2
v -0.9 1.7 -2
v -0.9 1.8 -2
v -0.8 1.4 -2
v -0.8 1.5 -2
v -0.8 1.6 -2
v -0.2 1.4 -2
v -0.2 1.5 -2
v -0.2 1.6 -2
v -0.0999999 1.7 -2
v -0.0999999 1.8 -2
v 2.38419e-07 1.3 -2
v 2.38419e-07 1.4 -2
v 2.38419e-07 1.5 -2
v 0.1 1.6 -2
v 0.1 1.7 -2
v 0.2 1.2 -2
v 0.2 1.3 -2
v 0.2 1.4 -2
v 0.3 1.5 -2
v 0.3 1.6 -2
v 0.7 1.5 -2
v 0.7 1.6 -2
v 0.8 1.2 -2
v 0.8 1.3 -2
v 0.8 1.4 -2
v 0.9 1.6 -2
v 0.9 1.7 -2
v 1 1.3 -2
v 1 1.4 -2
v 1 1.5 -2
v 1.1 1.7 -2
v 1.1 1.8 -2
v 1.2 1.4 -2
v 1.2 1.5 -2
v 1.2 1.6 -2
v 2 0 -2
v 2 1.5 -2
v 2 1.6 -2
v 2 1.8 -2
v 2 1.9 -2
v 2 2 -2
v -2 0 2
v 2 0 2
v -2 0 -2
v 2 0 -2
v -2 2 2
v 2 2 2
v -1.9 2 1.9
v -1.8 2 1.9
v -1 2 1.9
v 1.9 2 1.9
v -0.6 2 1.8
v 1.5 2 1.8
v -1.8 2 1.7
v -1 2 1.7
v -0.6 2 1.7
v 1.5 2 1.7
v 1.1 2 1.6
v 1.9 2 1.6
v -1.5 2 1.4
v 0.7 2 1.4
v 1.1 2 1.4
v 1.9 2 1.4
v -1.5 2 1.3
v 0.7 2 1.3
v -1.9 2 1.2
v -0.0999999 2 1.2
v 0.2 2 1.2
v 0.4 2 1.2
v 1.8 2 1.2
v 1.9 2 1.2
v -1.9 2 1
v -0.0999999 2 1
v 0.2 2 1
v 0.4 2 1
v 1.8 2 1
v 1.9 2 1
v -0.5 2 0.7
v -0.2 2 0.7
v 0.4 2 0.7
v 1.9 2 0.7
v -1.9 2 0.6
v -1.8 2 0.6
v -0.5 2 0.6
v -0.2 2 0.6
v 0.4 2 0.6
v 1.9 2 0.6
v -1.9 2 0.4
v -1.8 2 0.4
v -0.8 2 0.4
v 1.4 2 0.4
v -1.9 2 0.3
v -1 2 0.3
v -1.9 2 0.2
v -1 2 0.2
v -0.8 2 0.2
v 1.4 2 0.2
v -1.2 2 0.0999999
v 0.8 2 0.0999999
v 1.8 2 0.0999999
v 1.9 2 0.0999999
v -1.2 2 -2.38419e-07
v 0.8 2 -2.38419e-07
v 1.8 2 -0.1
v 1.9 2 -0.1
v -1.9 2 -0.2
v -1.5 2 -0.2
v 0.3 2 -0.2
v 1.9 2 -0.2
v -1.9 2 -0.4
v -1.5 2 -0.4
v 0.3 2 -0.4
v 1.9 2 -0.4
v -1.9 2 -0.5
v -1.8 2 -0.5
v -1.7 2 -0.5
v 0.1 2 -0.5
v -1.9 2 -0.6
v -1.8 2 -0.6
v -1.7 2 -0.6
v 0.1 2 -0.6
v -0.5 2 -0.7
v 0.8 2 -0.7
v 1 2 -0.7
v 1.3 2 -0.7
v 1.7 2 -0.7
v 1.9 2 -0.7
v -0.5 2 -0.9
v 0.8 2 -0.9
v 1 2 -0.9
v 1.3 2 -0.9
v 1.7 2 -0.9
v 1.9 2 -0.9
v -1.1 2 -1.1
v -0.2 2 -1.1
v 2.38419e-07 2 -1.1
v 0.3 2 -1.1
v 0.7 2 -1.1
v 1.9 2 -1.1
v -1.1 2 -1.2
v -0.2 2 -1.2
v 2.38419e-07 2 -1.2
v 0.3 2 -1.2
v 0.7 2 -1.2
v 1.9 2 -1.2
v -1.9 2 -1.3
v -0.5 2 -1.3
v -1.9 2 -1.5
v -0.5 2 -1.5
v 1.6 2 -1.5
v 1.9 2 -1.5
v 1.6 2 -1.6
v 1.9 2 -1.6
v -1.7 2 -1.7
v 0.4 2 -1.7
v 0.6 2 -1.7
v 0.7 2 -1.7
v -1.7 2 -1.8
v 0.4 2 -1.8
v 0.6 2 -1.8
v 0.7 2 -1.8
v -1.9 2 -1.9
v 1.9 2 -1.9
v -2 2 -2
v 2 2 -2

# faces
f 3/1/1 2/1/1 1/1/1
f 4/1/1 2/1/1 3/1/1
f 5/1/1 2/1/1 4/1/1
f 6/1/1 2/1/1 5/1/1
f 7/1/1 3/1/1 1/1/1
f 8/2/1 4/2/1 3/2/1
f 8/1/1 3/1/1 7/1/1
f 9/1/1 5/1/1 4/1/1
f 9/2/1 4/2/1 8/2/1
f 10/1/1 5/1/1 9/1/1
f 11/1/1 5/1/1 10/1/1
f 12/2/1 6/2/1 5/2/1
f 12/1/1 5/1/1 11/1/1
f 13/2/1 6/2/1 12/2/1
f 14/1/1 7/1/1 1/1/1
f 15/2/1 8/2/1 7/2/1
f 15/1/1 7/1/1 14/1/1
f 16/3/1 9/3/1 8/3/1
f 16/2/1 8/2/1 15/2/1
f 17/2/1 10/2/1 9/2/1
f 17/3/1 9/3/1 16/3/1
f 18/1/1 11/1/1 10/1/1
f 18/2/1 10/2/1 17/2/1
f 19/1/1 11/1/1 18/1/1
f 20/1/1 11/1/1 19/1/1
f 21/2/1 12/2/1 11/2/1
f 21/1/1 11/1/1 20/1/1
f 22/3/1 13/3/1 12/3/1
f 22/2/1 12/2/1 21/2/1
f 23/1/1 14/1/1 1/1/1
f 24/2/1 15/2/1 14/2/1
f 24/1/1 14/1/1 23/1/1
f 25/3/1 17/3/1 16/3/1
f 25/2/1 15/2/1 24/2/1
f 25/3/1 16/3/1 15/3/1
f 25/3/1 18/3/1 17/3/1
f 26/3/1 18/3/1 25/3/1
f 27/3/1 18/3/1 26/3/1
f 28/2/1 19/2/1 18/2/1
f 28/3/1 18/3/1 27/3/1
f 29/1/1 20/1/1 19/1/1
f 29/2/1 19/2/1 28/2/1
f 30/2/1 21/2/1 20/2/1
f 30/1/1 20/1/1 29/1/1
f 31/3/1 22/3/1 21/3/1
f 31/2/1 21/2/1 30/2/1
f 32/3/1 13/3/1 22/3/1
f 32/3/1 22/3/1 31/3/1
f 33/3/1 13/3/1 32/3/1
f 34/2/1 24/2/1 23/2/1
f 35/3/1 25/3/1 24/3/1
f 35/2/1 24/2/1 34/2/1
f 35/3/1 26/3/1 25/3/1
f 36/3/1 26/3/1 35/3/1
f 37/4/1 27/4/1 26/4/1
f 37/3/1 26/3/1 36/3/1
f 38/3/1 28/3/1 27/3/1
f 38/4/1 27/4/1 37/4/1
f 38/3/1 29/3/1 28/3/1
f 39/3/1 29/3/1 38/3/1
f 40/2/1 30/2/1 29/2/1
f 40/3/1 29/3/1 39/3/1
f 41/3/1 31/3/1 30/3/1
f 41/2/1 30/2/1 40/2/1
f 41/3/1 32/3/1 31/3/1
f 42/3/1 32/3/1 41/3/1
f 43/4/1 33/4/1 32/4/1
f 43/3/1 32/3/1 42/3/1
f 44/3/1 35/3/1 34/3/1
f 44/3/1 36/3/1 35/3/1
f 45/4/1 39/4/1 38/4/1
f 45/3/1 36/3/1 44/3/1
f 45/4/1 37/4/1 36/4/1
f 45/4/1 38/4/1 37/4/1
f 46/3/1 40/3/1 39/3/1
f 46/4/1 39/4/1 45/4/1
f 46/3/1 41/3/1 40/3/1
f 46/3/1 42/3/1 41/3/1
f 47/3/1 42/3/1 46/3/1
f 48/3/1 42/3/1 47/3/1
f 49/4/1 43/4/1 42/4/1
f 49/3/1 42/3/1 48/3/1
f 50/3/1 44/3/1 34/3/1
f 51/4/1 45/4/1 44/4/1
f 51/3/1 44/3/1 50/3/1
f 51/4/1 46/4/1 45/4/1
f 51/4/1 47/4/1 46/4/1
f 52/3/1 48/3/1 47/3/1
f 52/4/1 47/4/1 51/4/1
f 53/4/1 49/4/1 48/4/1
f 53/3/1 48/3/1 52/3/1
f 54/4/1 51/4/1 50/4/1
f 54/4/1 52/4/1 51/4/1
f 54/4/1 53/4/1 52/4/1
f 55/4/1 43/4/1 49/4/1
f 55/4/1 53/4/1 54/4/1
f 55/4/1 33/4/1 43/4/1
f 55/4/1 49/4/1 53/4/1
f 56/5/1 55/5/1 54/5/1
f 57/5/1 55/5/1 56/5/1
f 58/1/2 59/1/2 60/1/2
f 60/1/2 59/1/2 61/1/2
f 61/1/2 59/1/2 62/1/2
f 62/1/2 59/1/2 63/1/2
f 60/2/2 61/2/2 64/2/2
f 61/1/2 62/1/2 65/1/2
f 64/2/2 61/2/2 65/2/2
f 65/1/2 62/1/2 66/1/2
f 66/1/2 62/1/2 67/1/2
f 62/2/2 63/2/2 68/2/2
f 67/1/2 62/1/2 68/1/2
f 63/1/2 59/1/2 69/1/2
f 68/2/2 63/2/2 69/2/2
f 69/1/2 59/1/2 70/1/2
f 64/3/2 65/3/2 71/3/2
f 65/2/2 66/2/2 71/2/2
f 66/1/2 67/1/2 72/1/2
f 71/2/2 66/2/2 72/2/2
f 72/1/2 67/1/2 73/1/2
f 73/1/2 67/1/2 74/1/2
f 67/2/2 68/2/2 75/2/2
f 74/1/2 67/1/2 75/1/2
f 68/3/2 69/3/2 76/3/2
f 75/2/2 68/2/2 76/2/2
f 69/2/2 70/2/2 77/2/2
f 76/3/2 69/3/2 77/3/2
f 70/1/2 59/1/2 78/1/2
f 77/2/2 70/2/2 78/2/2
f 78/1/2 59/1/2 79/1/2
f 64/3/2 71/3/2 80/3/2
f 71/3/2 72/3/2 80/3/2
f 80/3/2 72/3/2 81/3/2
f 72/2/2 73/2/2 82/2/2
f 81/3/2 72/3/2 82/3/2
f 73/1/2 74/1/2 83/1/2
f 82/2/2 73/2/2 83/2/2
f 74/2/2 75/2/2 84/2/2
f 83/1/2 74/1/2 84/1/2
f 76/3/2 77/3/2 85/3/2
f 84/2/2 75/2/2 85/2/2
f 75/3/2 76/3/2 85/3/2
f 77/3/2 78/3/2 85/3/2
f 85/3/2 78/3/2 86/3/2
f 86/3/2 78/3/2 87/3/2
f 78/2/2 79/2/2 88/2/2
f 87/3/2 78/3/2 88/3/2
f 79/1/2 59/1/2 89/1/2
f 88/2/2 79/2/2 89/2/2
f 89/1/2 59/1/2 90/1/2
f 81/3/2 82/3/2 91/3/2
f 82/3/2 83/3/2 91/3/2
f 80/4/2 81/4/2 91/4/2
f 91/3/2 83/3/2 92/3/2
f 83/2/2 84/2/2 93/2/2
f 92/3/2 83/3/2 93/3/2
f 84/3/2 85/3/2 94/3/2
f 93/2/2 84/2/2 94/2/2
f 85/3/2 86/3/2 94/3/2
f 94/3/2 86/3/2 95/3/2
f 86/4/2 87/4/2 96/4/2
f 95/3/2 86/3/2 96/3/2
f 87/3/2 88/3/2 97/3/2
f 96/4/2 87/4/2 97/4/2
f 88/3/2 89/3/2 97/3/2
f 97/3/2 89/3/2 98/3/2
f 89/2/2 90/2/2 99/2/2
f 98/3/2 89/3/2 99/3/2
f 99/2/2 90/2/2 100/2/2
f 91/4/2 92/4/2 101/4/2
f 94/3/2 95/3/2 101/3/2
f 93/3/2 94/3/2 101/3/2
f 92/3/2 93/3/2 101/3/2
f 101/3/2 95/3/2 102/3/2
f 102/3/2 95/3/2 103/3/2
f 95/4/2 96/4/2 104/4/2
f 103/3/2 95/3/2 104/3/2
f 97/4/2 98/4/2 104/4/2
f 96/4/2 97/4/2 104/4/2
f 99/3/2 100/3/2 105/3/2
f 104/4/2 98/4/2 105/4/2
f 98/3/2 99/3/2 105/3/2
f 105/3/2 100/3/2 106/3/2
f 102/3/2 103/3/2 107/3/2
f 101/4/2 102/4/2 107/4/2
f 105/4/2 106/4/2 108/4/2
f 107/3/2 103/3/2 108/3/2
f 103/4/2 104/4/2 108/4/2
f 104/4/2 105/4/2 108/4/2
f 106/3/2 100/3/2 109/3/2
f 108/4/2 106/4/2 109/4/2
f 109/3/2 100/3/2 110/3/2
f 107/4/2 108/4/2 111/4/2
f 101/4/2 107/4/2 111/4/2
f 109/4/2 110/4/2 111/4/2
f 108/4/2 109/4/2 111/4/2
f 80/4/2 91/4/2 111/4/2
f 91/4/2 101/4/2 111/4/2
f 111/4/2 110/4/2 112/4/2
f 111/5/2 112/5/2 113/5/2
f 113/5/2 112/5/2 114/5/2
f 121/1/3 116/1/3 115/1/3
f 122/2/3 117/2/3 116/2/3
f 122/1/3 116/1/3 121/1/3
f 123/3/3 118/3/3 117/3/3
f 123/2/3 117/2/3 122/2/3
f 124/3/3 123/3/3 122/3/3
f 124/3/3 118/3/3 123/3/3
f 125/4/3 119/4/3 118/4/3
f 125/3/3 118/3/3 124/3/3
f 126/1/3 121/1/3 115/1/3
f 127/2/3 122/2/3 121/2/3
f 127/1/3 121/1/3 126/1/3
f 128/3/3 124/3/3 122/3/3
f 128/2/3 122/2/3 127/2/3
f 129/3/3 128/3/3 127/3/3
f 129/3/3 124/3/3 128/3/3
f 130/4/3 125/4/3 124/4/3
f 130/3/3 124/3/3 129/3/3
f 131/1/3 126/1/3 115/1/3
f 132/2/3 127/2/3 126/2/3
f 132/1/3 126/1/3 131/1/3
f 133/3/3 129/3/3 127/3/3
f 133/2/3 127/2/3 132/2/3
f 134/3/3 133/3/3 132/3/3
f 134/3/3 129/3/3 133/3/3
f 135/4/3 130/4/3 129/4/3
f 135/3/3 129/3/3 134/3/3
f 136/3/3 134/3/3 132/3/3
f 136/4/3 135/4/3 134/4/3
f 137/4/3 130/4/3 135/4/3
f 137/4/3 135/4/3 136/4/3
f 138/1/3 131/1/3 115/1/3
f 138/2/3 132/2/3 131/2/3
f 139/3/3 137/3/3 136/3/3
f 139/2/3 132/2/3 138/2/3
f 139/3/3 136/3/3 132/3/3
f 140/3/3 137/3/3 139/3/3
f 141/4/3 130/4/3 137/4/3
f 141/3/3 137/3/3 140/3/3
f 142/4/3 125/4/3 130/4/3
f 142/4/3 130/4/3 141/4/3
f 143/2/3 140/2/3 139/2/3
f 143/1/3 139/1/3 138/1/3
f 144/3/3 141/3/3 140/3/3
f 144/2/3 140/2/3 143/2/3
f 144/3/3 142/3/3 141/3/3
f 145/3/3 142/3/3 144/3/3
f 146/4/3 125/4/3 142/4/3
f 146/3/3 142/3/3 145/3/3
f 147/4/3 119/4/3 125/4/3
f 147/4/3 125/4/3 146/4/3
f 148/2/3 145/2/3 144/2/3
f 148/1/3 144/1/3 143/1/3
f 149/3/3 146/3/3 145/3/3
f 149/2/3 145/2/3 148/2/3
f 149/3/3 147/3/3 146/3/3
f 150/3/3 147/3/3 149/3/3
f 151/1/3 148/1/3 143/1/3
f 151/1/3 149/1/3 148/1/3
f 152/2/3 150/2/3 149/2/3
f 152/1/3 149/1/3 151/1/3
f 153/3/3 147/3/3 150/3/3
f 153/2/3 150/2/3 152/2/3
f 154/3/3 153/3/3 152/3/3
f 154/3/3 147/3/3 153/3/3
f 155/4/3 119/4/3 147/4/3
f 155/3/3 147/3/3 154/3/3
f 156/1/3 143/1/3 138/1/3
f 156/1/3 151/1/3 143/1/3
f 157/2/3 152/2/3 151/2/3
f 157/1/3 151/1/3 156/1/3
f 158/3/3 154/3/3 152/3/3
f 158/2/3 152/2/3 157/2/3
f 159/3/3 158/3/3 157/3/3
f 159/3/3 154/3/3 158/3/3
f 160/4/3 155/4/3 154/4/3
f 160/3/3 154/3/3 159/3/3
f 161/1/3 156/1/3 138/1/3
f 161/1/3 138/1/3 115/1/3
f 162/2/3 157/2/3 156/2/3
f 162/1/3 156/1/3 161/1/3
f 163/3/3 159/3/3 157/3/3
f 163/2/3 157/2/3 162/2/3
f 164/3/3 163/3/3 162/3/3
f 164/3/3 159/3/3 163/3/3
f 165/4/3 160/4/3 159/4/3
f 165/3/3 159/3/3 164/3/3
f 166/1/3 161/1/3 115/1/3
f 167/2/3 162/2/3 161/2/3
f 167/1/3 161/1/3 166/1/3
f 168/3/3 164/3/3 162/3/3
f 168/2/3 162/2/3 167/2/3
f 169/4/3 165/4/3 164/4/3
f 169/3/3 164/3/3 168/3/3
f 170/5/3 120/5/3 119/5/3
f 170/4/3 165/4/3 169/4/3
f 170/4/3 155/4/3 160/4/3
f 170/4/3 119/4/3 155/4/3
f 170/4/3 160/4/3 165/4/3
f 171/5/3 120/5/3 170/5/3
f 174/3/4 175/3/4 178/3/4
f 175/4/4 176/4/4 178/4/4
f 178/4/4 176/4/4 179/4/4
f 172/1/4 173/1/4 180/1/4
f 173/2/4 174/2/4 180/2/4
f 178/3/4 179/3/4 181/3/4
f 180/2/4 174/2/4 181/2/4
f 174/3/4 178/3/4 181/3/4
f 181/3/4 179/3/4 182/3/4
f 179/4/4 176/4/4 183/4/4
f 182/3/4 179/3/4 183/3/4
f 183/4/4 176/4/4 184/4/4
f 181/2/4 182/2/4 185/2/4
f 180/1/4 181/1/4 185/1/4
f 183/3/4 184/3/4 186/3/4
f 185/2/4 182/2/4 186/2/4
f 182/3/4 183/3/4 186/3/4
f 186/3/4 184/3/4 187/3/4
f 184/4/4 176/4/4 188/4/4
f 187/3/4 184/3/4 188/3/4
f 188/4/4 176/4/4 189/4/4
f 186/2/4 187/2/4 190/2/4
f 185/1/4 186/1/4 190/1/4
f 188/3/4 189/3/4 191/3/4
f 190/2/4 187/2/4 191/2/4
f 187/3/4 188/3/4 191/3/4
f 191/3/4 189/3/4 192/3/4
f 185/1/4 190/1/4 193/1/4
f 190/1/4 191/1/4 193/1/4
f 191/2/4 192/2/4 194/2/4
f 193/1/4 191/1/4 194/1/4
f 192/3/4 189/3/4 195/3/4
f 194/2/4 192/2/4 195/2/4
f 194/3/4 195/3/4 196/3/4
f 195/3/4 189/3/4 196/3/4
f 189/4/4 176/4/4 197/4/4
f 196/3/4 189/3/4 197/3/4
f 180/1/4 185/1/4 198/1/4
f 185/1/4 193/1/4 198/1/4
f 193/2/4 194/2/4 199/2/4
f 198/1/4 193/1/4 199/1/4
f 194/3/4 196/3/4 200/3/4
f 199/2/4 194/2/4 200/2/4
f 199/3/4 200/3/4 201/3/4
f 200/3/4 196/3/4 201/3/4
f 196/4/4 197/4/4 202/4/4
f 201/3/4 196/3/4 202/3/4
f 172/1/4 180/1/4 203/1/4
f 180/1/4 198/1/4 203/1/4
f 198/2/4 199/2/4 204/2/4
f 203/1/4 198/1/4 204/1/4
f 199/3/4 201/3/4 205/3/4
f 204/2/4 199/2/4 205/2/4
f 204/3/4 205/3/4 206/3/4
f 205/3/4 201/3/4 206/3/4
f 201/4/4 202/4/4 207/4/4
f 206/3/4 201/3/4 207/3/4
f 204/3/4 206/3/4 208/3/4
f 206/4/4 207/4/4 208/4/4
f 207/4/4 202/4/4 209/4/4
f 208/4/4 207/4/4 209/4/4
f 172/1/4 203/1/4 210/1/4
f 203/2/4 204/2/4 210/2/4
f 204/3/4 208/3/4 211/3/4
f 210/2/4 204/2/4 211/2/4
f 208/3/4 209/3/4 211/3/4
f 211/3/4 209/3/4 212/3/4
f 209/4/4 202/4/4 213/4/4
f 212/3/4 209/3/4 213/3/4
f 202/4/4 197/4/4 214/4/4
f 213/4/4 202/4/4 214/4/4
f 211/2/4 212/2/4 215/2/4
f 210/1/4 211/1/4 215/1/4
f 212/3/4 213/3/4 216/3/4
f 215/2/4 212/2/4 216/2/4
f 213/3/4 214/3/4 216/3/4
f 216/3/4 214/3/4 217/3/4
f 214/4/4 197/4/4 218/4/4
f 217/3/4 214/3/4 218/3/4
f 197/4/4 176/4/4 219/4/4
f 218/4/4 197/4/4 219/4/4
f 216/2/4 217/2/4 220/2/4
f 215/1/4 216/1/4 220/1/4
f 217/3/4 218/3/4 221/3/4
f 220/2/4 217/2/4 221/2/4
f 218/3/4 219/3/4 221/3/4
f 221/3/4 219/3/4 222/3/4
f 210/1/4 215/1/4 223/1/4
f 215/1/4 220/1/4 223/1/4
f 172/1/4 210/1/4 223/1/4
f 220/1/4 221/1/4 223/1/4
f 221/2/4 222/2/4 224/2/4
f 223/1/4 221/1/4 224/1/4
f 222/3/4 219/3/4 225/3/4
f 224/2/4 222/2/4 225/2/4
f 219/4/4 176/4/4 226/4/4
f 225/3/4 219/3/4 226/3/4
f 176/5/4 177/5/4 227/5/4
f 226/4/4 176/4/4 227/4/4
f 227/5/4 177/5/4 228/5/4
f 231/1/5 230/1/5 229/1/5
f 232/1/5 230/1/5 231/1/5
f 233/5/6 234/5/6 235/5/6
f 235/5/6 234/5/6 236/5/6
f 236/5/6 234/5/6 237/5/6
f 237/5/6 234/5/6 238/5/6
f 237/4/6 238/4/6 239/4/6
f 239/4/6 238/4/6 240/4/6
f 235/4/6 236/4/6 241/4/6
f 236/5/6 237/5/6 241/5/6
f 237/4/6 239/4/6 242/4/6
f 241/5/6 237/5/6 242/5/6
f 239/5/6 240/5/6 243/5/6
f 242/4/6 239/4/6 243/4/6
f 240/4/6 238/4/6 244/4/6
f 243/5/6 240/5/6 244/5/6
f 242/4/6 243/4/6 245/4/6
f 241/4/6 242/4/6 245/4/6
f 243/4/6 244/4/6 245/4/6
f 244/4/6 238/4/6 246/4/6
f 245/4/6 244/4/6 246/4/6
f 238/5/6 234/5/6 246/5/6
f 241/4/6 245/4/6 247/4/6
f 247/4/6 245/4/6 248/4/6
f 245/5/6 246/5/6 249/5/6
f 248/4/6 245/4/6 249/4/6
f 246/5/6 234/5/6 250/5/6
f 249/5/6 246/5/6 250/5/6
f 247/5/6 248/5/6 251/5/6
f 241/4/6 247/4/6 251/4/6
f 248/4/6 249/4/6 252/4/6
f 251/5/6 248/5/6 252/5/6
f 249/4/6 250/4/6 252/4/6
f 233/5/6 235/5/6 253/5/6
f 241/4/6 251/4/6 253/4/6
f 251/4/6 252/4/6 253/4/6
f 235/4/6 241/4/6 253/4/6
f 253/4/6 252/4/6 254/4/6
f 254/4/6 252/4/6 255/4/6
f 255/4/6 252/4/6 256/4/6
f 252/4/6 250/4/6 257/4/6
f 256/4/6 252/4/6 257/4/6
f 250/5/6 234/5/6 258/5/6
f 257/4/6 250/4/6 258/4/6
f 233/5/6 253/5/6 259/5/6
f 253/5/6 254/5/6 259/5/6
f 254/4/6 255/4/6 260/4/6
f 259/5/6 254/5/6 260/5/6
f 255/5/6 256/5/6 261/5/6
f 260/4/6 255/4/6 261/4/6
f 256/4/6 257/4/6 262/4/6
f 261/5/6 256/5/6 262/5/6
f 257/5/6 258/5/6 263/5/6
f 262/4/6 257/4/6 263/4/6
f 258/5/6 234/5/6 264/5/6
f 263/5/6 258/5/6 264/5/6
f 259/4/6 260/4/6 265/4/6
f 260/4/6 261/4/6 265/4/6
f 263/4/6 264/4/6 265/4/6
f 262/4/6 263/4/6 265/4/6
f 261/4/6 262/4/6 265/4/6
f 265/4/6 264/4/6 266/4/6
f 266/4/6 264/4/6 267/4/6
f 264/5/6 234/5/6 268/5/6
f 267/4/6 264/4/6 268/4/6
f 233/5/6 259/5/6 269/5/6
f 259/4/6 265/4/6 269/4/6
f 269/4/6 265/4/6 270/4/6
f 265/5/6 266/5/6 271/5/6
f 270/4/6 265/4/6 271/4/6
f 266/4/6 267/4/6 272/4/6
f 271/5/6 266/5/6 272/5/6
f 267/5/6 268/5/6 273/5/6
f 272/4/6 267/4/6 273/4/6
f 268/5/6 234/5/6 274/5/6
f 273/5/6 268/5/6 274/5/6
f 269/5/6 270/5/6 275/5/6
f 233/5/6 269/5/6 275/5/6
f 270/4/6 271/4/6 276/4/6
f 275/5/6 270/5/6 276/5/6
f 272/4/6 273/4/6 276/4/6
f 273/4/6 274/4/6 276/4/6
f 271/4/6 272/4/6 276/4/6
f 276/4/6 274/4/6 277/4/6
f 277/4/6 274/4/6 278/4/6
f 233/5/6 275/5/6 279/5/6
f 275/4/6 276/4/6 279/4/6
f 276/4/6 277/4/6 279/4/6
f 279/4/6 277/4/6 280/4/6
f 233/5/6 279/5/6 281/5/6
f 279/5/6 280/5/6 281/5/6
f 280/4/6 277/4/6 282/4/6
f 281/5/6 280/5/6 282/5/6
f 277/5/6 278/5/6 283/5/6
f 282/4/6 277/4/6 283/4/6
f 278/4/6 274/4/6 284/4/6
f 283/5/6 278/5/6 284/5/6
f 282/4/6 283/4/6 285/4/6
f 281/4/6 282/4/6 285/4/6
f 283/4/6 284/4/6 285/4/6
f 285/4/6 284/4/6 286/4/6
f 284/4/6 274/4/6 287/4/6
f 286/4/6 284/4/6 287/4/6
f 274/5/6 234/5/6 288/5/6
f 287/4/6 274/4/6 288/4/6
f 285/5/6 286/5/6 289/5/6
f 281/4/6 285/4/6 289/4/6
f 286/4/6 287/4/6 290/4/6
f 289/5/6 286/5/6 290/5/6
f 287/5/6 288/5/6 291/5/6
f 290/4/6 287/4/6 291/4/6
f 289/4/6 290/4/6 291/4/6
f 288/5/6 234/5/6 292/5/6
f 291/5/6 288/5/6 292/5/6
f 289/4/6 291/4/6 293/4/6
f 281/4/6 289/4/6 293/4/6
f 291/4/6 292/4/6 293/4/6
f 233/5/6 281/5/6 293/5/6
f 293/4/6 292/4/6 294/4/6
f 294/4/6 292/4/6 295/4/6
f 292/5/6 234/5/6 296/5/6
f 295/4/6 292/4/6 296/4/6
f 233/5/6 293/5/6 297/5/6
f 293/5/6 294/5/6 297/5/6
f 294/4/6 295/4/6 298/4/6
f 297/5/6 294/5/6 298/5/6
f 295/5/6 296/5/6 299/5/6
f 298/4/6 295/4/6 299/4/6
f 296/5/6 234/5/6 300/5/6
f 299/5/6 296/5/6 300/5/6
f 233/5/6 297/5/6 301/5/6
f 298/4/6 299/4/6 301/4/6
f 299/4/6 300/4/6 301/4/6
f 297/4/6 298/4/6 301/4/6
f 301/4/6 300/4/6 302/4/6
f 302/4/6 300/4/6 303/4/6
f 303/4/6 300/4/6 304/4/6
f 233/5/6 301/5/6 305/5/6
f 301/5/6 302/5/6 305/5/6
f 302/4/6 303/4/6 306/4/6
f 305/5/6 302/5/6 306/5/6
f 303/5/6 304/5/6 307/5/6
f 306/4/6 303/4/6 307/4/6
f 304/4/6 300/4/6 308/4/6
f 307/5/6 304/5/6 308/5/6
f 306/4/6 307/4/6 309/4/6
f 305/4/6 306/4/6 309/4/6
f 307/4/6 308/4/6 309/4/6
f 308/4/6 300/4/6 310/4/6
f 309/4/6 308/4/6 310/4/6
f 310/4/6 300/4/6 311/4/6
f 311/4/6 300/4/6 312/4/6
f 312/4/6 300/4/6 313/4/6
f 300/5/6 234/5/6 314/5/6
f 313/4/6 300/4/6 314/4/6
f 305/4/6 309/4/6 315/4/6
f 309/5/6 310/5/6 315/5/6
f 310/4/6 311/4/6 316/4/6
f 315/5/6 310/5/6 316/5/6
f 311/5/6 312/5/6 317/5/6
f 316/4/6 311/4/6 317/4/6
f 312/4/6 313/4/6 318/4/6
f 317/5/6 312/5/6 318/5/6
f 313/5/6 314/5/6 319/5/6
f 318/4/6 313/4/6 319/4/6
f 314/5/6 234/5/6 320/5/6
f 319/5/6 314/5/6 320/5/6
f 316/4/6 317/4/6 321/4/6
f 318/4/6 319/4/6 321/4/6
f 319/4/6 320/4/6 321/4/6
f 315/4/6 316/4/6 321/4/6
f 305/4/6 315/4/6 321/4/6
f 317/4/6 318/4/6 321/4/6
f 321/4/6 320/4/6 322/4/6
f 322/4/6 320/4/6 323/4/6
f 323/4/6 320/4/6 324/4/6
f 324/4/6 320/4/6 325/4/6
f 320/5/6 234/5/6 326/5/6
f 325/4/6 320/4/6 326/4/6
f 305/4/6 321/4/6 327/4/6
f 321/5/6 322/5/6 327/5/6
f 322/4/6 323/4/6 328/4/6
f 327/5/6 322/5/6 328/5/6
f 323/5/6 324/5/6 329/5/6
f 328/4/6 323/4/6 329/4/6
f 324/4/6 325/4/6 330/4/6
f 329/5/6 324/5/6 330/5/6
f 325/5/6 326/5/6 331/5/6
f 330/4/6 325/4/6 331/4/6
f 326/5/6 234/5/6 332/5/6
f 331/5/6 326/5/6 332/5/6
f 328/4/6 329/4/6 333/4/6
f 233/5/6 305/5/6 333/5/6
f 331/4/6 332/4/6 333/4/6
f 327/4/6 328/4/6 333/4/6
f 305/4/6 327/4/6 333/4/6
f 329/4/6 330/4/6 333/4/6
f 330/4/6 331/4/6 333/4/6
f 333/4/6 332/4/6 334/4/6
f 233/5/6 333/5/6 335/5/6
f 333/5/6 334/5/6 335/5/6
f 334/4/6 332/4/6 336/4/6
f 335/5/6 334/5/6 336/5/6
f 336/4/6 332/4/6 337/4/6
f 332/5/6 234/5/6 338/5/6
f 337/4/6 332/4/6 338/4/6
f 336/4/6 337/4/6 339/4/6
f 335/4/6 336/4/6 339/4/6
f 337/5/6 338/5/6 339/5/6
f 338/5/6 234/5/6 340/5/6
f 339/5/6 338/5/6 340/5/6
f 335/4/6 339/4/6 341/4/6
f 339/4/6 340/4/6 341/4/6
f 341/4/6 340/4/6 342/4/6
f 342/4/6 340/4/6 343/4/6
f 343/4/6 340/4/6 344/4/6
f 335/4/6 341/4/6 345/4/6
f 341/5/6 342/5/6 345/5/6
f 342/4/6 343/4/6 346/4/6
f 345/5/6 342/5/6 346/5/6
f 343/5/6 344/5/6 347/5/6
f 346/4/6 343/4/6 347/4/6
f 344/4/6 340/4/6 348/4/6
f 347/5/6 344/5/6 348/5/6
f 233/5/6 335/5/6 349/5/6
f 346/4/6 347/4/6 349/4/6
f 347/4/6 348/4/6 349/4/6
f 335/4/6 345/4/6 349/4/6
f 345/4/6 346/4/6 349/4/6
f 340/5/6 234/5/6 350/5/6
f 349/4/6 348/4/6 350/4/6
f 348/4/6 340/4/6 350/4/6
f 233/5/6 349/5/6 351/5/6
f 349/5/6 350/5/6 351/5/6
f 350/5/6 234/5/6 352/5/6
f 351/5/6 350/5/6 352/5/6
