# MagicaVoxel @ Ephtracy

# group
o 

# material
mtllib Plane-block-03.mtl
usemtl palette

# normals
vn -1 0 0
vn 1 0 0
vn 0 0 1
vn 0 0 -1
vn 0 -1 0
vn 0 1 0

# texcoords
vt 0.908203 0.5
vt 0.916016 0.5
vt 0.939453 0.5
vt 0.947266 0.5
vt 0.970703 0.5
vt 0.978516 0.5

# verts
v -2 0 2
v -2 0 -2
v -2 0.4 1.1
v -2 0.4 0.8
v -2 0.4 -2.38419e-07
v -2 0.4 -0.1
v -2 0.4 -0.7
v -2 0.4 -1
v -2 0.5 2
v -2 0.5 1.1
v -2 0.5 0.8
v -2 0.5 -2.38419e-07
v -2 0.5 -0.1
v -2 0.5 -0.7
v -2 0.5 -1
v -2 0.5 -2
v -2 0.8 1.5
v -2 0.8 1.4
v -2 0.8 0.0999999
v -2 0.8 -0.2
v -2 0.8 -0.7
v -2 0.8 -0.9
v -2 0.8 -1.3
v -2 0.8 -1.4
v -2 0.9 2
v -2 0.9 1.5
v -2 0.9 1.4
v -2 0.9 0.0999999
v -2 0.9 -0.2
v -2 0.9 -0.7
v -2 0.9 -0.9
v -2 0.9 -1.3
v -2 0.9 -1.4
v -2 0.9 -2
v -2 1.3 1.6
v -2 1.3 1.5
v -2 1.3 0.2
v -2 1.3 0.0999999
v -2 1.3 -2.38419e-07
v -2 1.3 -0.1
v -2 1.3 -0.7
v -2 1.3 -1.5
v -2 1.4 2
v -2 1.4 1.6
v -2 1.4 1.5
v -2 1.4 0.2
v -2 1.4 0.0999999
v -2 1.4 -2.38419e-07
v -2 1.4 -0.1
v -2 1.4 -0.7
v -2 1.4 -1.5
v -2 1.4 -2
v -2 1.5 2
v -2 1.5 -2
v -2 1.6 2
v -2 1.6 1.9
v -2 1.6 0.9
v -2 1.6 0.8
v -2 1.6 -0.6
v -2 1.6 -0.9
v -2 1.6 -1.9
v -2 1.6 -2
v -2 1.7 1.2
v -2 1.7 1.1
v -2 1.7 0.9
v -2 1.7 0.8
v -2 1.7 -0.6
v -2 1.7 -0.9
v -2 1.8 1.2
v -2 1.8 1.1
v -2 1.9 1.9
v -2 1.9 -1.9
v -2 2 2
v -2 2 -2
v 2 0 2
v 2 0 -2
v 2 0.4 1.3
v 2 0.4 0.8
v 2 0.4 0.3
v 2 0.4 0.2
v 2 0.4 -1.2
v 2 0.4 -1.4
v 2 0.5 2
v 2 0.5 1.3
v 2 0.5 0.8
v 2 0.5 0.3
v 2 0.5 0.2
v 2 0.5 -1.2
v 2 0.5 -1.4
v 2 0.5 -2
v 2 0.8 1.6
v 2 0.8 1.5
v 2 0.8 0.0999999
v 2 0.8 -2.38419e-07
v 2 0.8 -0.5
v 2 0.8 -0.9
v 2 0.8 -1.7
v 2 0.8 -1.8
v 2 0.9 2
v 2 0.9 1.6
v 2 0.9 1.5
v 2 0.9 0.0999999
v 2 0.9 -2.38419e-07
v 2 0.9 -0.5
v 2 0.9 -0.9
v 2 0.9 -1.7
v 2 0.9 -1.8
v 2 0.9 -2
v 2 1.3 1.2
v 2 1.3 0.8
v 2 1.3 0.6
v 2 1.3 0.5
v 2 1.3 -1.2
v 2 1.3 -1.3
v 2 1.4 2
v 2 1.4 1.2
v 2 1.4 0.8
v 2 1.4 0.6
v 2 1.4 0.5
v 2 1.4 -1.2
v 2 1.4 -1.3
v 2 1.4 -2
v 2 1.5 2
v 2 1.5 -2
v 2 1.6 2
v 2 1.6 1.9
v 2 1.6 1.3
v 2 1.6 1.1
v 2 1.6 0.6
v 2 1.6 0.5
v 2 1.6 -1.1
v 2 1.6 -1.4
v 2 1.6 -1.9
v 2 1.6 -2
v 2 1.7 1.3
v 2 1.7 1.1
v 2 1.7 0.6
v 2 1.7 0.5
v 2 1.7 -0.9
v 2 1.7 -1
v 2 1.7 -1.1
v 2 1.7 -1.4
v 2 1.8 -0.9
v 2 1.8 -1
v 2 1.9 1.9
v 2 1.9 -1.9
v 2 2 2
v 2 2 -2
v -2 0 2
v -2 0.5 2
v -2 0.9 2
v -2 1.4 2
v -2 1.5 2
v -2 1.6 2
v -2 2 2
v -1.9 1.6 2
v -1.9 1.9 2
v -1.7 0.4 2
v -1.7 0.5 2
v -1.6 0.4 2
v -1.6 0.5 2
v -1.5 1.3 2
v -1.5 1.4 2
v -1.4 1.3 2
v -1.4 1.4 2
v -1.3 0.8 2
v -1.3 0.9 2
v -1.2 0.4 2
v -1.2 0.5 2
v -1.1 0.4 2
v -1.1 0.5 2
v -1 1.6 2
v -1 1.7 2
v -0.9 1.6 2
v -0.9 1.7 2
v -0.7 0.8 2
v -0.7 0.9 2
v -0.6 1.3 2
v -0.6 1.4 2
v -0.2 1.3 2
v -0.2 1.4 2
v -0.0999999 0.4 2
v -0.0999999 0.5 2
v 0.3 0.4 2
v 0.3 0.5 2
v 0.4 0.8 2
v 0.4 0.9 2
v 0.5 0.8 2
v 0.5 0.9 2
v 0.8 0.8 2
v 0.8 0.9 2
v 0.8 1.7 2
v 0.8 1.8 2
v 0.9 1.7 2
v 0.9 1.8 2
v 1 0.8 2
v 1 0.9 2
v 1 1.6 2
v 1 1.7 2
v 1.1 1.6 2
v 1.1 1.7 2
v 1.5 0.4 2
v 1.5 0.5 2
v 1.5 1.3 2
v 1.5 1.4 2
v 1.6 0.4 2
v 1.6 0.5 2
v 1.6 1.3 2
v 1.6 1.4 2
v 1.9 1.6 2
v 1.9 1.9 2
v 2 0 2
v 2 0.5 2
v 2 0.9 2
v 2 1.4 2
v 2 1.5 2
v 2 1.6 2
v 2 2 2
v -2 0 -2
v -2 0.5 -2
v -2 0.9 -2
v -2 1.4 -2
v -2 1.5 -2
v -2 1.6 -2
v -2 2 -2
v -1.9 1.6 -2
v -1.9 1.9 -2
v -1.8 0.8 -2
v -1.8 0.9 -2
v -1.7 0.8 -2
v -1.7 0.9 -2
v -1.7 1.3 -2
v -1.7 1.4 -2
v -1.6 1.3 -2
v -1.6 1.4 -2
v -1.5 1.6 -2
v -1.5 1.7 -2
v -1.4 1.6 -2
v -1.4 1.7 -2
v -1.3 0.4 -2
v -1.3 0.5 -2
v -1.1 1.3 -2
v -1.1 1.4 -2
v -0.9 0.4 -2
v -0.9 0.5 -2
v -0.5 0.8 -2
v -0.5 0.9 -2
v -0.5 1.3 -2
v -0.5 1.4 -2
v -0.4 0.8 -2
v -0.4 0.9 -2
v -0.0999999 1.6 -2
v -0.0999999 1.7 -2
v 2.38419e-07 1.6 -2
v 2.38419e-07 1.7 -2
v 0.2 1.7 -2
v 0.2 1.8 -2
v 0.3 1.7 -2
v 0.3 1.8 -2
v 0.4 0.4 -2
v 0.4 0.5 -2
v 0.5 0.4 -2
v 0.5 0.5 -2
v 0.6 0.8 -2
v 0.6 0.9 -2
v 0.6 1.3 -2
v 0.6 1.4 -2
v 1 0.8 -2
v 1 0.9 -2
v 1.4 0.4 -2
v 1.4 0.5 -2
v 1.4 1.3 -2
v 1.4 1.4 -2
v 1.5 0.4 -2
v 1.5 0.5 -2
v 1.7 1.3 -2
v 1.7 1.4 -2
v 1.8 1.3 -2
v 1.8 1.4 -2
v 1.9 1.6 -2
v 1.9 1.9 -2
v 2 0 -2
v 2 0.5 -2
v 2 0.9 -2
v 2 1.4 -2
v 2 1.5 -2
v 2 1.6 -2
v 2 2 -2
v -2 0 2
v 2 0 2
v -2 0 -2
v 2 0 -2
v -2 2 2
v 2 2 2
v -1.9 2 1.9
v -1.8 2 1.9
v -0.2 2 1.9
v -0.0999999 2 1.9
v 1.9 2 1.9
v -1.9 2 1.8
v -1.8 2 1.8
v -0.2 2 1.8
v -0.0999999 2 1.8
v -0.3 2 1.7
v -0.2 2 1.7
v -0.3 2 1.6
v -0.2 2 1.6
v 1.4 2 1.4
v 1.5 2 1.4
v 1.4 2 1.3
v 1.5 2 1.3
v -1.5 2 1
v -1.4 2 1
v -1.5 2 0.9
v -1.4 2 0.9
v 1.7 2 -2.38419e-07
v 1.8 2 -2.38419e-07
v 1.7 2 -0.1
v 1.8 2 -0.1
v -1.1 2 -1.5
v -1 2 -1.5
v 1.8 2 -1.5
v 1.9 2 -1.5
v -1.9 2 -1.6
v -1.8 2 -1.6
v -1.1 2 -1.6
v -1 2 -1.6
v 1.6 2 -1.6
v 1.7 2 -1.6
v 1.8 2 -1.6
v 1.9 2 -1.6
v -1.9 2 -1.7
v -1.8 2 -1.7
v 1.6 2 -1.7
v 1.7 2 -1.7
v -1.6 2 -1.8
v -1.5 2 -1.8
v 0.3 2 -1.8
v 0.4 2 -1.8
v -1.9 2 -1.9
v -1.6 2 -1.9
v -1.5 2 -1.9
v 0.3 2 -1.9
v 0.4 2 -1.9
v 1.9 2 -1.9
v -2 2 -2
v 2 2 -2

# faces
f 3/1/1 2/1/1 1/1/1
f 4/1/1 2/1/1 3/1/1
f 5/1/1 2/1/1 4/1/1
f 6/1/1 2/1/1 5/1/1
f 7/1/1 2/1/1 6/1/1
f 8/1/1 2/1/1 7/1/1
f 9/1/1 3/1/1 1/1/1
f 10/3/1 4/3/1 3/3/1
f 10/1/1 3/1/1 9/1/1
f 11/1/1 5/1/1 4/1/1
f 11/3/1 4/3/1 10/3/1
f 12/3/1 6/3/1 5/3/1
f 12/1/1 5/1/1 11/1/1
f 13/1/1 7/1/1 6/1/1
f 13/3/1 6/3/1 12/3/1
f 14/3/1 8/3/1 7/3/1
f 14/1/1 7/1/1 13/1/1
f 15/1/1 2/1/1 8/1/1
f 15/3/1 8/3/1 14/3/1
f 16/1/1 2/1/1 15/1/1
f 17/3/1 14/3/1 13/3/1
f 17/3/1 10/3/1 9/3/1
f 17/3/1 16/3/1 15/3/1
f 17/3/1 15/3/1 14/3/1
f 17/3/1 13/3/1 12/3/1
f 17/3/1 12/3/1 11/3/1
f 17/3/1 11/3/1 10/3/1
f 18/3/1 16/3/1 17/3/1
f 19/3/1 16/3/1 18/3/1
f 20/3/1 16/3/1 19/3/1
f 21/3/1 16/3/1 20/3/1
f 22/3/1 16/3/1 21/3/1
f 23/3/1 16/3/1 22/3/1
f 24/3/1 16/3/1 23/3/1
f 25/3/1 17/3/1 9/3/1
f 26/5/1 18/5/1 17/5/1
f 26/3/1 17/3/1 25/3/1
f 27/3/1 19/3/1 18/3/1
f 27/5/1 18/5/1 26/5/1
f 28/5/1 20/5/1 19/5/1
f 28/3/1 19/3/1 27/3/1
f 29/3/1 21/3/1 20/3/1
f 29/5/1 20/5/1 28/5/1
f 30/5/1 22/5/1 21/5/1
f 30/3/1 21/3/1 29/3/1
f 31/3/1 23/3/1 22/3/1
f 31/5/1 22/5/1 30/5/1
f 32/5/1 24/5/1 23/5/1
f 32/3/1 23/3/1 31/3/1
f 33/3/1 16/3/1 24/3/1
f 33/5/1 24/5/1 32/5/1
f 34/3/1 16/3/1 33/3/1
f 35/5/1 32/5/1 31/5/1
f 35/5/1 26/5/1 25/5/1
f 35/5/1 34/5/1 33/5/1
f 35/5/1 33/5/1 32/5/1
f 35/5/1 31/5/1 30/5/1
f 35/5/1 30/5/1 29/5/1
f 35/5/1 29/5/1 28/5/1
f 35/5/1 28/5/1 27/5/1
f 35/5/1 27/5/1 26/5/1
f 36/5/1 34/5/1 35/5/1
f 37/5/1 34/5/1 36/5/1
f 38/5/1 34/5/1 37/5/1
f 39/5/1 34/5/1 38/5/1
f 40/5/1 34/5/1 39/5/1
f 41/5/1 34/5/1 40/5/1
f 42/5/1 34/5/1 41/5/1
f 43/5/1 35/5/1 25/5/1
f 44/3/1 36/3/1 35/3/1
f 44/5/1 35/5/1 43/5/1
f 45/5/1 37/5/1 36/5/1
f 45/3/1 36/3/1 44/3/1
f 46/3/1 38/3/1 37/3/1
f 46/5/1 37/5/1 45/5/1
f 47/5/1 39/5/1 38/5/1
f 47/3/1 38/3/1 46/3/1
f 48/3/1 40/3/1 39/3/1
f 48/5/1 39/5/1 47/5/1
f 49/5/1 41/5/1 40/5/1
f 49/3/1 40/3/1 48/3/1
f 50/3/1 42/3/1 41/3/1
f 50/5/1 41/5/1 49/5/1
f 51/5/1 34/5/1 42/5/1
f 51/3/1 42/3/1 50/3/1
f 52/5/1 34/5/1 51/5/1
f 53/3/1 50/3/1 49/3/1
f 53/3/1 44/3/1 43/3/1
f 53/3/1 52/3/1 51/3/1
f 53/3/1 51/3/1 50/3/1
f 53/3/1 49/3/1 48/3/1
f 53/3/1 48/3/1 47/3/1
f 53/3/1 47/3/1 46/3/1
f 53/3/1 46/3/1 45/3/1
f 53/3/1 45/3/1 44/3/1
f 54/3/1 52/3/1 53/3/1
f 55/2/1 54/2/1 53/2/1
f 56/2/1 54/2/1 55/2/1
f 57/2/1 54/2/1 56/2/1
f 58/2/1 54/2/1 57/2/1
f 59/2/1 54/2/1 58/2/1
f 60/2/1 54/2/1 59/2/1
f 61/2/1 54/2/1 60/2/1
f 62/2/1 54/2/1 61/2/1
f 63/4/1 57/4/1 56/4/1
f 64/4/1 57/4/1 63/4/1
f 65/2/1 58/2/1 57/2/1
f 65/4/1 57/4/1 64/4/1
f 66/4/1 59/4/1 58/4/1
f 66/2/1 58/2/1 65/2/1
f 67/2/1 60/2/1 59/2/1
f 67/4/1 59/4/1 66/4/1
f 68/4/1 61/4/1 60/4/1
f 68/2/1 60/2/1 67/2/1
f 69/2/1 64/2/1 63/2/1
f 69/4/1 63/4/1 56/4/1
f 70/4/1 65/4/1 64/4/1
f 70/2/1 64/2/1 69/2/1
f 70/4/1 66/4/1 65/4/1
f 70/4/1 68/4/1 67/4/1
f 70/4/1 67/4/1 66/4/1
f 71/6/1 56/6/1 55/6/1
f 71/4/1 69/4/1 56/4/1
f 71/4/1 70/4/1 69/4/1
f 72/4/1 68/4/1 70/4/1
f 72/4/1 70/4/1 71/4/1
f 72/4/1 61/4/1 68/4/1
f 72/6/1 62/6/1 61/6/1
f 73/6/1 71/6/1 55/6/1
f 73/6/1 72/6/1 71/6/1
f 74/6/1 62/6/1 72/6/1
f 74/6/1 72/6/1 73/6/1
f 75/1/2 76/1/2 77/1/2
f 77/1/2 76/1/2 78/1/2
f 78/1/2 76/1/2 79/1/2
f 79/1/2 76/1/2 80/1/2
f 80/1/2 76/1/2 81/1/2
f 81/1/2 76/1/2 82/1/2
f 75/1/2 77/1/2 83/1/2
f 77/3/2 78/3/2 84/3/2
f 83/1/2 77/1/2 84/1/2
f 78/1/2 79/1/2 85/1/2
f 84/3/2 78/3/2 85/3/2
f 79/3/2 80/3/2 86/3/2
f 85/1/2 79/1/2 86/1/2
f 80/1/2 81/1/2 87/1/2
f 86/3/2 80/3/2 87/3/2
f 81/3/2 82/3/2 88/3/2
f 87/1/2 81/1/2 88/1/2
f 82/1/2 76/1/2 89/1/2
f 88/3/2 82/3/2 89/3/2
f 89/1/2 76/1/2 90/1/2
f 87/3/2 88/3/2 91/3/2
f 83/3/2 84/3/2 91/3/2
f 89/3/2 90/3/2 91/3/2
f 88/3/2 89/3/2 91/3/2
f 86/3/2 87/3/2 91/3/2
f 85/3/2 86/3/2 91/3/2
f 84/3/2 85/3/2 91/3/2
f 91/3/2 90/3/2 92/3/2
f 92/3/2 90/3/2 93/3/2
f 93/3/2 90/3/2 94/3/2
f 94/3/2 90/3/2 95/3/2
f 95/3/2 90/3/2 96/3/2
f 96/3/2 90/3/2 97/3/2
f 97/3/2 90/3/2 98/3/2
f 83/3/2 91/3/2 99/3/2
f 91/5/2 92/5/2 100/5/2
f 99/3/2 91/3/2 100/3/2
f 92/3/2 93/3/2 101/3/2
f 100/5/2 92/5/2 101/5/2
f 93/5/2 94/5/2 102/5/2
f 101/3/2 93/3/2 102/3/2
f 94/3/2 95/3/2 103/3/2
f 102/5/2 94/5/2 103/5/2
f 95/5/2 96/5/2 104/5/2
f 103/3/2 95/3/2 104/3/2
f 96/3/2 97/3/2 105/3/2
f 104/5/2 96/5/2 105/5/2
f 97/5/2 98/5/2 106/5/2
f 105/3/2 97/3/2 106/3/2
f 98/3/2 90/3/2 107/3/2
f 106/5/2 98/5/2 107/5/2
f 107/3/2 90/3/2 108/3/2
f 105/5/2 106/5/2 109/5/2
f 99/5/2 100/5/2 109/5/2
f 107/5/2 108/5/2 109/5/2
f 106/5/2 107/5/2 109/5/2
f 104/5/2 105/5/2 109/5/2
f 103/5/2 104/5/2 109/5/2
f 102/5/2 103/5/2 109/5/2
f 101/5/2 102/5/2 109/5/2
f 100/5/2 101/5/2 109/5/2
f 109/5/2 108/5/2 110/5/2
f 110/5/2 108/5/2 111/5/2
f 111/5/2 108/5/2 112/5/2
f 112/5/2 108/5/2 113/5/2
f 113/5/2 108/5/2 114/5/2
f 99/5/2 109/5/2 115/5/2
f 109/3/2 110/3/2 116/3/2
f 115/5/2 109/5/2 116/5/2
f 110/5/2 111/5/2 117/5/2
f 116/3/2 110/3/2 117/3/2
f 111/3/2 112/3/2 118/3/2
f 117/5/2 111/5/2 118/5/2
f 112/5/2 113/5/2 119/5/2
f 118/3/2 112/3/2 119/3/2
f 113/3/2 114/3/2 120/3/2
f 119/5/2 113/5/2 120/5/2
f 114/5/2 108/5/2 121/5/2
f 120/3/2 114/3/2 121/3/2
f 121/5/2 108/5/2 122/5/2
f 119/3/2 120/3/2 123/3/2
f 115/3/2 116/3/2 123/3/2
f 121/3/2 122/3/2 123/3/2
f 120/3/2 121/3/2 123/3/2
f 118/3/2 119/3/2 123/3/2
f 117/3/2 118/3/2 123/3/2
f 116/3/2 117/3/2 123/3/2
f 123/3/2 122/3/2 124/3/2
f 123/2/2 124/2/2 125/2/2
f 125/2/2 124/2/2 126/2/2
f 126/2/2 124/2/2 127/2/2
f 127/2/2 124/2/2 128/2/2
f 128/2/2 124/2/2 129/2/2
f 129/2/2 124/2/2 130/2/2
f 130/2/2 124/2/2 131/2/2
f 131/2/2 124/2/2 132/2/2
f 132/2/2 124/2/2 133/2/2
f 133/2/2 124/2/2 134/2/2
f 126/4/2 127/4/2 135/4/2
f 127/2/2 128/2/2 135/2/2
f 128/4/2 129/4/2 136/4/2
f 135/2/2 128/2/2 136/2/2
f 129/2/2 130/2/2 137/2/2
f 136/4/2 129/4/2 137/4/2
f 130/4/2 131/4/2 138/4/2
f 137/2/2 130/2/2 138/2/2
f 138/4/2 131/4/2 139/4/2
f 139/4/2 131/4/2 140/4/2
f 131/2/2 132/2/2 141/2/2
f 140/4/2 131/4/2 141/4/2
f 132/4/2 133/4/2 142/4/2
f 141/2/2 132/2/2 142/2/2
f 135/4/2 136/4/2 143/4/2
f 136/4/2 137/4/2 143/4/2
f 139/2/2 140/2/2 143/2/2
f 138/4/2 139/4/2 143/4/2
f 137/4/2 138/4/2 143/4/2
f 141/4/2 142/4/2 144/4/2
f 143/2/2 140/2/2 144/2/2
f 140/4/2 141/4/2 144/4/2
f 125/6/2 126/6/2 145/6/2
f 126/4/2 135/4/2 145/4/2
f 143/4/2 144/4/2 145/4/2
f 135/4/2 143/4/2 145/4/2
f 144/4/2 142/4/2 146/4/2
f 145/4/2 144/4/2 146/4/2
f 133/6/2 134/6/2 146/6/2
f 142/4/2 133/4/2 146/4/2
f 125/6/2 145/6/2 147/6/2
f 145/6/2 146/6/2 147/6/2
f 146/6/2 134/6/2 148/6/2
f 147/6/2 146/6/2 148/6/2
f 156/2/3 154/2/3 153/2/3
f 156/6/3 155/6/3 154/6/3
f 157/6/3 155/6/3 156/6/3
f 158/1/3 150/1/3 149/1/3
f 159/3/3 151/3/3 150/3/3
f 159/1/3 150/1/3 158/1/3
f 160/1/3 158/1/3 149/1/3
f 160/3/3 159/3/3 158/3/3
f 161/3/3 151/3/3 159/3/3
f 161/3/3 159/3/3 160/3/3
f 162/5/3 152/5/3 151/5/3
f 163/3/3 153/3/3 152/3/3
f 163/5/3 152/5/3 162/5/3
f 164/5/3 162/5/3 151/5/3
f 164/3/3 163/3/3 162/3/3
f 165/3/3 153/3/3 163/3/3
f 165/3/3 163/3/3 164/3/3
f 166/3/3 151/3/3 161/3/3
f 167/5/3 164/5/3 151/5/3
f 167/3/3 151/3/3 166/3/3
f 167/5/3 165/5/3 164/5/3
f 168/1/3 160/1/3 149/1/3
f 168/1/3 161/1/3 160/1/3
f 169/3/3 166/3/3 161/3/3
f 169/1/3 161/1/3 168/1/3
f 170/1/3 168/1/3 149/1/3
f 170/3/3 169/3/3 168/3/3
f 171/3/3 166/3/3 169/3/3
f 171/3/3 169/3/3 170/3/3
f 172/2/3 156/2/3 153/2/3
f 172/4/3 157/4/3 156/4/3
f 173/4/3 157/4/3 172/4/3
f 174/2/3 172/2/3 153/2/3
f 174/2/3 173/2/3 172/2/3
f 175/4/3 157/4/3 173/4/3
f 175/2/3 173/2/3 174/2/3
f 176/3/3 166/3/3 171/3/3
f 176/5/3 167/5/3 166/5/3
f 177/5/3 165/5/3 167/5/3
f 177/5/3 167/5/3 176/5/3
f 178/5/3 165/5/3 177/5/3
f 179/3/3 153/3/3 165/3/3
f 179/5/3 165/5/3 178/5/3
f 180/5/3 178/5/3 177/5/3
f 180/3/3 179/3/3 178/3/3
f 181/3/3 153/3/3 179/3/3
f 181/3/3 179/3/3 180/3/3
f 182/1/3 170/1/3 149/1/3
f 182/1/3 171/1/3 170/1/3
f 183/3/3 176/3/3 171/3/3
f 183/1/3 171/1/3 182/1/3
f 183/3/3 177/3/3 176/3/3
f 184/1/3 182/1/3 149/1/3
f 184/3/3 183/3/3 182/3/3
f 185/3/3 177/3/3 183/3/3
f 185/3/3 183/3/3 184/3/3
f 186/3/3 177/3/3 185/3/3
f 187/5/3 180/5/3 177/5/3
f 187/3/3 177/3/3 186/3/3
f 187/5/3 181/5/3 180/5/3
f 188/3/3 186/3/3 185/3/3
f 188/5/3 187/5/3 186/5/3
f 189/5/3 181/5/3 187/5/3
f 189/5/3 187/5/3 188/5/3
f 190/3/3 188/3/3 185/3/3
f 190/3/3 189/3/3 188/3/3
f 191/5/3 181/5/3 189/5/3
f 191/3/3 189/3/3 190/3/3
f 192/4/3 157/4/3 175/4/3
f 192/4/3 175/4/3 174/4/3
f 193/4/3 157/4/3 192/4/3
f 194/4/3 192/4/3 174/4/3
f 194/2/3 193/2/3 192/2/3
f 195/4/3 157/4/3 193/4/3
f 195/2/3 193/2/3 194/2/3
f 196/3/3 190/3/3 185/3/3
f 196/5/3 191/5/3 190/5/3
f 197/5/3 181/5/3 191/5/3
f 197/5/3 191/5/3 196/5/3
f 198/4/3 195/4/3 194/4/3
f 198/2/3 174/2/3 153/2/3
f 198/4/3 194/4/3 174/4/3
f 199/4/3 195/4/3 198/4/3
f 200/2/3 198/2/3 153/2/3
f 200/2/3 199/2/3 198/2/3
f 201/4/3 195/4/3 199/4/3
f 201/2/3 199/2/3 200/2/3
f 202/1/3 184/1/3 149/1/3
f 202/1/3 185/1/3 184/1/3
f 203/3/3 196/3/3 185/3/3
f 203/1/3 185/1/3 202/1/3
f 203/3/3 197/3/3 196/3/3
f 204/5/3 181/5/3 197/5/3
f 205/3/3 153/3/3 181/3/3
f 205/5/3 181/5/3 204/5/3
f 206/1/3 202/1/3 149/1/3
f 206/3/3 203/3/3 202/3/3
f 207/3/3 197/3/3 203/3/3
f 207/3/3 203/3/3 206/3/3
f 208/5/3 204/5/3 197/5/3
f 208/3/3 205/3/3 204/3/3
f 209/3/3 153/3/3 205/3/3
f 209/3/3 205/3/3 208/3/3
f 210/4/3 201/4/3 200/4/3
f 210/2/3 200/2/3 153/2/3
f 211/6/3 155/6/3 157/6/3
f 211/4/3 201/4/3 210/4/3
f 211/4/3 195/4/3 201/4/3
f 211/4/3 157/4/3 195/4/3
f 212/1/3 207/1/3 206/1/3
f 212/1/3 206/1/3 149/1/3
f 213/3/3 197/3/3 207/3/3
f 213/1/3 207/1/3 212/1/3
f 214/5/3 209/5/3 208/5/3
f 214/3/3 197/3/3 213/3/3
f 214/5/3 208/5/3 197/5/3
f 215/3/3 153/3/3 209/3/3
f 215/5/3 209/5/3 214/5/3
f 216/2/3 210/2/3 153/2/3
f 216/3/3 153/3/3 215/3/3
f 217/6/3 211/6/3 210/6/3
f 217/2/3 210/2/3 216/2/3
f 218/6/3 155/6/3 211/6/3
f 218/6/3 211/6/3 217/6/3
f 223/2/4 224/2/4 226/2/4
f 224/6/4 225/6/4 226/6/4
f 226/6/4 225/6/4 227/6/4
f 220/3/4 221/3/4 228/3/4
f 221/5/4 222/5/4 229/5/4
f 228/3/4 221/3/4 229/3/4
f 220/3/4 228/3/4 230/3/4
f 228/5/4 229/5/4 230/5/4
f 229/5/4 222/5/4 231/5/4
f 230/5/4 229/5/4 231/5/4
f 231/5/4 222/5/4 232/5/4
f 222/3/4 223/3/4 233/3/4
f 232/5/4 222/5/4 233/5/4
f 231/5/4 232/5/4 234/5/4
f 232/3/4 233/3/4 234/3/4
f 233/3/4 223/3/4 235/3/4
f 234/3/4 233/3/4 235/3/4
f 223/2/4 226/2/4 236/2/4
f 226/4/4 227/4/4 236/4/4
f 236/4/4 227/4/4 237/4/4
f 223/2/4 236/2/4 238/2/4
f 236/2/4 237/2/4 238/2/4
f 237/4/4 227/4/4 239/4/4
f 238/2/4 237/2/4 239/2/4
f 219/1/4 220/1/4 240/1/4
f 220/3/4 230/3/4 241/3/4
f 240/1/4 220/1/4 241/1/4
f 230/3/4 231/3/4 241/3/4
f 231/5/4 234/5/4 242/5/4
f 234/5/4 235/5/4 242/5/4
f 235/3/4 223/3/4 243/3/4
f 242/5/4 235/5/4 243/5/4
f 219/1/4 240/1/4 244/1/4
f 240/3/4 241/3/4 244/3/4
f 241/3/4 231/3/4 245/3/4
f 244/3/4 241/3/4 245/3/4
f 245/3/4 231/3/4 246/3/4
f 231/5/4 242/5/4 247/5/4
f 246/3/4 231/3/4 247/3/4
f 242/3/4 243/3/4 248/3/4
f 247/5/4 242/5/4 248/5/4
f 243/3/4 223/3/4 249/3/4
f 248/3/4 243/3/4 249/3/4
f 247/5/4 248/5/4 250/5/4
f 245/3/4 246/3/4 250/3/4
f 248/5/4 249/5/4 250/5/4
f 246/5/4 247/5/4 250/5/4
f 250/5/4 249/5/4 251/5/4
f 223/2/4 238/2/4 252/2/4
f 238/4/4 239/4/4 252/4/4
f 239/4/4 227/4/4 253/4/4
f 252/4/4 239/4/4 253/4/4
f 223/2/4 252/2/4 254/2/4
f 252/2/4 253/2/4 254/2/4
f 253/4/4 227/4/4 255/4/4
f 254/2/4 253/2/4 255/2/4
f 254/4/4 255/4/4 256/4/4
f 255/4/4 227/4/4 256/4/4
f 256/4/4 227/4/4 257/4/4
f 254/4/4 256/4/4 258/4/4
f 256/2/4 257/2/4 258/2/4
f 257/4/4 227/4/4 259/4/4
f 258/2/4 257/2/4 259/2/4
f 219/1/4 244/1/4 260/1/4
f 244/1/4 245/1/4 260/1/4
f 250/3/4 251/3/4 261/3/4
f 260/1/4 245/1/4 261/1/4
f 245/3/4 250/3/4 261/3/4
f 219/1/4 260/1/4 262/1/4
f 260/3/4 261/3/4 262/3/4
f 261/3/4 251/3/4 263/3/4
f 262/3/4 261/3/4 263/3/4
f 263/3/4 251/3/4 264/3/4
f 251/5/4 249/5/4 265/5/4
f 264/3/4 251/3/4 265/3/4
f 265/5/4 249/5/4 266/5/4
f 249/3/4 223/3/4 267/3/4
f 266/5/4 249/5/4 267/5/4
f 265/5/4 266/5/4 268/5/4
f 263/3/4 264/3/4 268/3/4
f 264/5/4 265/5/4 268/5/4
f 268/5/4 266/5/4 269/5/4
f 219/1/4 262/1/4 270/1/4
f 262/1/4 263/1/4 270/1/4
f 268/3/4 269/3/4 271/3/4
f 270/1/4 263/1/4 271/1/4
f 263/3/4 268/3/4 271/3/4
f 266/3/4 267/3/4 272/3/4
f 269/5/4 266/5/4 272/5/4
f 267/3/4 223/3/4 273/3/4
f 272/3/4 267/3/4 273/3/4
f 270/3/4 271/3/4 274/3/4
f 219/1/4 270/1/4 274/1/4
f 271/3/4 269/3/4 275/3/4
f 274/3/4 271/3/4 275/3/4
f 269/5/4 272/5/4 276/5/4
f 272/5/4 273/5/4 276/5/4
f 273/3/4 223/3/4 277/3/4
f 276/5/4 273/5/4 277/5/4
f 269/5/4 276/5/4 278/5/4
f 276/3/4 277/3/4 278/3/4
f 277/3/4 223/3/4 279/3/4
f 278/3/4 277/3/4 279/3/4
f 223/2/4 254/2/4 280/2/4
f 258/4/4 259/4/4 280/4/4
f 254/4/4 258/4/4 280/4/4
f 227/6/4 225/6/4 281/6/4
f 280/4/4 259/4/4 281/4/4
f 259/4/4 227/4/4 281/4/4
f 274/1/4 275/1/4 282/1/4
f 219/1/4 274/1/4 282/1/4
f 275/3/4 269/3/4 283/3/4
f 282/1/4 275/1/4 283/1/4
f 278/5/4 279/5/4 284/5/4
f 283/3/4 269/3/4 284/3/4
f 269/5/4 278/5/4 284/5/4
f 279/3/4 223/3/4 285/3/4
f 284/5/4 279/5/4 285/5/4
f 223/2/4 280/2/4 286/2/4
f 285/3/4 223/3/4 286/3/4
f 280/6/4 281/6/4 287/6/4
f 286/2/4 280/2/4 287/2/4
f 281/6/4 225/6/4 288/6/4
f 287/6/4 281/6/4 288/6/4
f 291/1/5 290/1/5 289/1/5
f 292/1/5 290/1/5 291/1/5
f 293/6/6 294/6/6 295/6/6
f 295/6/6 294/6/6 296/6/6
f 296/6/6 294/6/6 297/6/6
f 297/6/6 294/6/6 298/6/6
f 298/6/6 294/6/6 299/6/6
f 293/6/6 295/6/6 300/6/6
f 295/2/6 296/2/6 300/2/6
f 296/4/6 297/4/6 301/4/6
f 300/2/6 296/2/6 301/2/6
f 297/2/6 298/2/6 302/2/6
f 301/4/6 297/4/6 302/4/6
f 298/4/6 299/4/6 303/4/6
f 302/2/6 298/2/6 303/2/6
f 301/4/6 302/4/6 304/4/6
f 300/4/6 301/4/6 304/4/6
f 302/4/6 303/4/6 304/4/6
f 304/4/6 303/4/6 305/4/6
f 300/4/6 304/4/6 306/4/6
f 304/2/6 305/2/6 306/2/6
f 305/4/6 303/4/6 307/4/6
f 306/2/6 305/2/6 307/2/6
f 303/4/6 299/4/6 308/4/6
f 307/4/6 303/4/6 308/4/6
f 306/4/6 307/4/6 308/4/6
f 308/4/6 299/4/6 309/4/6
f 306/4/6 308/4/6 310/4/6
f 308/2/6 309/2/6 310/2/6
f 309/4/6 299/4/6 311/4/6
f 310/2/6 309/2/6 311/2/6
f 300/4/6 306/4/6 312/4/6
f 306/4/6 310/4/6 312/4/6
f 310/4/6 311/4/6 312/4/6
f 312/4/6 311/4/6 313/4/6
f 300/4/6 312/4/6 314/4/6
f 312/2/6 313/2/6 314/2/6
f 313/4/6 311/4/6 315/4/6
f 314/2/6 313/2/6 315/2/6
f 311/4/6 299/4/6 316/4/6
f 315/4/6 311/4/6 316/4/6
f 314/4/6 315/4/6 316/4/6
f 316/4/6 299/4/6 317/4/6
f 314/4/6 316/4/6 318/4/6
f 316/2/6 317/2/6 318/2/6
f 317/4/6 299/4/6 319/4/6
f 318/2/6 317/2/6 319/2/6
f 314/4/6 318/4/6 320/4/6
f 318/4/6 319/4/6 320/4/6
f 320/4/6 319/4/6 321/4/6
f 319/4/6 299/4/6 322/4/6
f 321/4/6 319/4/6 322/4/6
f 299/6/6 294/6/6 323/6/6
f 322/4/6 299/4/6 323/4/6
f 300/4/6 314/4/6 324/4/6
f 293/6/6 300/6/6 324/6/6
f 314/4/6 320/4/6 324/4/6
f 324/4/6 320/4/6 325/4/6
f 320/2/6 321/2/6 326/2/6
f 325/4/6 320/4/6 326/4/6
f 321/4/6 322/4/6 327/4/6
f 326/2/6 321/2/6 327/2/6
f 327/4/6 322/4/6 328/4/6
f 328/4/6 322/4/6 329/4/6
f 322/2/6 323/2/6 330/2/6
f 329/4/6 322/4/6 330/4/6
f 323/6/6 294/6/6 331/6/6
f 330/2/6 323/2/6 331/2/6
f 324/2/6 325/2/6 332/2/6
f 293/6/6 324/6/6 332/6/6
f 325/4/6 326/4/6 333/4/6
f 332/2/6 325/2/6 333/2/6
f 326/4/6 327/4/6 333/4/6
f 327/4/6 328/4/6 333/4/6
f 328/2/6 329/2/6 334/2/6
f 333/4/6 328/4/6 334/4/6
f 329/4/6 330/4/6 335/4/6
f 334/2/6 329/2/6 335/2/6
f 330/4/6 331/4/6 335/4/6
f 333/4/6 334/4/6 336/4/6
f 332/4/6 333/4/6 336/4/6
f 334/4/6 335/4/6 336/4/6
f 336/4/6 335/4/6 337/4/6
f 337/4/6 335/4/6 338/4/6
f 338/4/6 335/4/6 339/4/6
f 293/6/6 332/6/6 340/6/6
f 332/4/6 336/4/6 340/4/6
f 336/2/6 337/2/6 341/2/6
f 340/4/6 336/4/6 341/4/6
f 337/4/6 338/4/6 342/4/6
f 341/2/6 337/2/6 342/2/6
f 338/2/6 339/2/6 343/2/6
f 342/4/6 338/4/6 343/4/6
f 339/4/6 335/4/6 344/4/6
f 343/2/6 339/2/6 344/2/6
f 335/4/6 331/4/6 345/4/6
f 344/4/6 335/4/6 345/4/6
f 331/6/6 294/6/6 345/6/6
f 342/6/6 343/6/6 346/6/6
f 343/6/6 344/6/6 346/6/6
f 344/6/6 345/6/6 346/6/6
f 293/6/6 340/6/6 346/6/6
f 341/6/6 342/6/6 346/6/6
f 340/6/6 341/6/6 346/6/6
f 345/6/6 294/6/6 347/6/6
f 346/6/6 345/6/6 347/6/6
