# Blender v3.1.2 OBJ File: ''
# www.blender.org
mtllib Fence-01.mtl
o Fence-01
v -2.000000 -0.000000 0.300000
v 1.400000 0.300000 0.100000
v 1.400000 -0.000000 0.300000
v 1.400000 1.900000 0.100000
v 1.400000 1.900000 -0.100000
v 1.400000 2.100000 0.100000
v 1.400000 2.800000 -0.100000
v 1.400000 4.000000 0.300001
v 1.400000 4.000000 -0.299999
v -1.400000 0.300000 0.100000
v -1.400000 1.000000 0.100000
v -1.400000 1.200000 -0.100000
v -1.400000 2.800000 0.100000
v -1.400000 4.000000 0.300001
v -1.400000 4.000000 -0.299999
v 2.000000 -0.000000 0.300000
v 2.000000 0.000000 -0.300000
v 2.000000 4.000000 0.300001
v -1.400000 -0.000000 0.300000
v -1.400000 3.000000 0.100000
v 1.400000 1.200000 0.100000
v 1.400000 2.800000 0.100000
v 1.400000 3.000000 0.100000
v -1.400000 0.300000 -0.100000
v -1.400000 1.900000 -0.100000
v -1.400000 2.100000 -0.100000
v -1.400000 3.700000 -0.099999
v 1.400000 1.000000 -0.100000
v 1.400000 3.700000 -0.099999
v -2.000000 0.000000 -0.300000
v -2.000000 4.000000 -0.299999
v -1.400000 0.000000 -0.300000
v 1.400000 0.000000 -0.300000
v 1.400000 0.300000 -0.100000
v -1.400000 1.200000 0.100000
v 1.400000 1.200000 -0.100000
v -1.400000 2.100000 0.100000
v 1.400000 2.100000 -0.100000
v -1.400000 3.000000 -0.100000
v 1.400000 3.000000 -0.100000
v 1.400000 1.000000 0.100000
v -1.400000 1.000000 -0.100000
v -1.400000 1.900000 0.100000
v -1.400000 2.800000 -0.100000
v -1.400000 3.700000 0.100001
v 1.400000 3.700000 0.100001
v -2.000000 4.000000 0.300001
v 2.000000 4.000000 -0.299999
vt 0.437500 0.531250
vt 0.218750 0.515625
vt 0.437500 0.515625
vt 0.531250 0.421875
vt 0.312500 0.367188
vt 0.312500 0.421875
vt 0.046875 0.312500
vt 0.093750 0.000000
vt 0.093750 0.312500
vt 0.187500 0.054688
vt 0.406250 0.000000
vt 0.187500 0.000000
vt 0.218750 0.515625
vt 0.000000 0.500000
vt 0.218750 0.500000
vt 0.453125 0.093750
vt 0.406250 0.140625
vt 0.453125 0.140625
vt 0.000000 0.359375
vt 0.023438 0.390625
vt 0.000000 0.406250
vt 0.078125 0.390625
vt 0.093750 0.375000
vt 0.093750 0.390625
vt 0.000000 0.453125
vt 0.312500 0.500000
vt 0.312500 0.453125
vt 0.289062 0.390625
vt 0.312500 0.359375
vt 0.312500 0.406250
vt 0.093750 0.312500
vt 0.140625 0.000000
vt 0.140625 0.312500
vt 0.187500 0.312500
vt 0.140625 0.000000
vt 0.140625 0.312500
vt 0.187500 0.054688
vt 0.406250 0.109375
vt 0.187500 0.109375
vt 0.046875 0.312500
vt 0.000000 0.000000
vt 0.000000 0.312500
vt 0.289062 0.421875
vt 0.289062 0.437500
vt 0.312500 0.406250
vt 0.187500 0.164063
vt 0.406250 0.218750
vt 0.406250 0.164063
vt 0.406250 0.273437
vt 0.187500 0.289062
vt 0.406250 0.289062
vt 0.437500 0.515625
vt 0.218750 0.500000
vt 0.437500 0.500000
vt 0.148438 0.437500
vt 0.164062 0.437500
vt 0.148438 0.421875
vt 0.000000 0.453125
vt 0.078125 0.437500
vt 0.023438 0.437500
vt 0.187500 0.273437
vt 0.406250 0.218750
vt 0.406250 0.273437
vt 0.312500 0.312500
vt 0.531250 0.367188
vt 0.312500 0.367188
vt 0.312500 0.312500
vt 0.000000 0.359375
vt 0.000000 0.312500
vt 0.453125 0.000000
vt 0.406250 0.046875
vt 0.453125 0.046875
vt 0.453125 0.093750
vt 0.406250 0.046875
vt 0.453125 0.046875
vt 0.164062 0.390625
vt 0.148438 0.375000
vt 0.164062 0.375000
vt 0.531250 0.421875
vt 0.312500 0.476562
vt 0.312500 0.421875
vt 0.406250 0.289062
vt 0.187500 0.304687
vt 0.406250 0.304687
vt 0.218750 0.531250
vt 0.000000 0.546875
vt 0.218750 0.546875
vt 0.531250 0.476562
vt 0.312500 0.492187
vt 0.531250 0.492187
vt 0.453125 0.187500
vt 0.406250 0.140625
vt 0.453125 0.140625
vt 0.218750 0.531250
vt 0.000000 0.515625
vt 0.218750 0.515625
vt 0.406250 0.164062
vt 0.187500 0.109375
vt 0.187500 0.164062
vt 0.218750 0.531250
vt 0.531250 0.367188
vt 0.046875 0.000000
vt 0.406250 0.054688
vt 0.000000 0.515625
vt 0.406250 0.093750
vt 0.023438 0.375000
vt 0.078125 0.375000
vt 0.289062 0.375000
vt 0.234375 0.375000
vt 0.234375 0.390625
vt 0.218750 0.390625
vt 0.218750 0.375000
vt 0.148438 0.390625
vt 0.000000 0.500000
vt 0.093750 0.000000
vt 0.187500 0.000000
vt 0.406250 0.054688
vt 0.046875 0.000000
vt 0.234375 0.437500
vt 0.312500 0.453125
vt 0.164062 0.421875
vt 0.218750 0.421875
vt 0.234375 0.421875
vt 0.187500 0.218750
vt 0.187500 0.273437
vt 0.218750 0.515625
vt 0.093750 0.437500
vt 0.218750 0.437500
vt 0.078125 0.421875
vt 0.093750 0.421875
vt 0.000000 0.406250
vt 0.023438 0.421875
vt 0.187500 0.218750
vt 0.531250 0.312500
vt 0.312500 0.359375
vt 0.406250 0.000000
vt 0.406250 0.093750
vt 0.531250 0.476562
vt 0.187500 0.289062
vt 0.000000 0.531250
vt 0.312500 0.476562
vt 0.406250 0.187500
vt 0.000000 0.531250
vt 0.406250 0.109375
vn 0.0000 -1.0000 0.0000
vn 0.0000 0.0000 -1.0000
vn 0.0000 -0.0000 1.0000
vn 0.0000 1.0000 0.0000
vn 1.0000 -0.0000 0.0000
vn -1.0000 0.0000 0.0000
usemtl Fence-01_Material
s off
f 23/1/1 39/2/1 40/3/1
f 29/4/2 39/5/2 27/6/2
f 8/7/3 16/8/3 18/9/3
f 44/10/2 38/11/2 26/12/2
f 2/13/1 24/14/1 34/15/1
f 15/16/4 47/17/4 14/18/4
f 32/19/5 10/20/5 19/21/5
f 11/22/5 12/23/5 35/24/5
f 30/25/6 47/26/6 31/27/6
f 45/28/5 15/29/5 14/30/5
f 47/31/3 19/32/3 14/33/3
f 15/34/2 30/35/2 31/36/2
f 37/37/3 22/38/3 13/39/3
f 48/40/2 33/41/2 9/42/2
f 29/43/6 46/44/6 9/45/6
f 24/46/2 28/47/2 34/48/2
f 29/49/4 45/50/4 46/51/4
f 21/52/1 12/53/1 36/54/1
f 4/55/6 6/56/6 5/57/6
f 3/58/6 41/59/6 2/60/6
f 43/61/3 21/62/3 4/63/3
f 10/64/3 41/65/3 11/66/3
f 48/67/5 16/68/5 17/69/5
f 48/70/4 8/71/4 18/72/4
f 16/73/1 33/74/1 17/75/1
f 37/76/5 25/77/5 26/78/5
f 23/79/3 45/80/3 20/81/3
f 7/82/4 13/83/4 22/84/4
f 5/85/4 43/86/4 4/87/4
f 28/88/4 11/89/4 41/90/4
f 19/91/1 30/92/1 32/93/1
f 6/94/1 26/95/1 38/96/1
f 5/97/2 12/98/2 25/99/2
f 23/1/1 20/100/1 39/2/1
f 29/4/2 40/101/2 39/5/2
f 8/7/3 3/102/3 16/8/3
f 44/10/2 7/103/2 38/11/2
f 2/13/1 10/104/1 24/14/1
f 15/16/4 31/105/4 47/17/4
f 32/19/5 24/106/5 10/20/5
f 42/107/5 24/106/5 32/19/5
f 32/19/5 15/29/5 26/78/5
f 15/29/5 27/108/5 39/109/5
f 39/109/5 20/110/5 13/111/5
f 15/29/5 39/109/5 44/112/5
f 39/109/5 13/111/5 44/112/5
f 26/78/5 25/77/5 32/19/5
f 25/77/5 12/23/5 32/19/5
f 15/29/5 44/112/5 26/78/5
f 19/21/5 10/20/5 11/22/5
f 37/76/5 14/30/5 19/21/5
f 35/24/5 43/113/5 19/21/5
f 43/113/5 37/76/5 19/21/5
f 42/107/5 32/19/5 12/23/5
f 35/24/5 19/21/5 11/22/5
f 11/22/5 42/107/5 12/23/5
f 30/25/6 1/114/6 47/26/6
f 45/28/5 27/108/5 15/29/5
f 14/30/5 37/76/5 13/111/5
f 13/111/5 20/110/5 14/30/5
f 20/110/5 45/28/5 14/30/5
f 47/31/3 1/115/3 19/32/3
f 15/34/2 32/116/2 30/35/2
f 37/37/3 6/117/3 22/38/3
f 48/40/2 17/118/2 33/41/2
f 46/44/6 23/119/6 8/120/6
f 9/45/6 38/121/6 7/122/6
f 7/122/6 40/123/6 9/45/6
f 40/123/6 29/43/6 9/45/6
f 46/44/6 8/120/6 9/45/6
f 24/46/2 42/124/2 28/47/2
f 29/49/4 27/125/4 45/50/4
f 21/52/1 35/126/1 12/53/1
f 4/55/6 21/127/6 3/58/6
f 3/58/6 8/120/6 6/56/6
f 8/120/6 23/119/6 22/128/6
f 23/119/6 40/123/6 7/122/6
f 23/119/6 7/122/6 22/128/6
f 28/129/6 36/130/6 33/131/6
f 36/130/6 5/57/6 33/131/6
f 33/131/6 34/132/6 28/129/6
f 38/121/6 9/45/6 33/131/6
f 22/128/6 6/56/6 8/120/6
f 38/121/6 33/131/6 5/57/6
f 6/56/6 38/121/6 5/57/6
f 4/55/6 3/58/6 6/56/6
f 34/132/6 33/131/6 2/60/6
f 33/131/6 3/58/6 2/60/6
f 21/127/6 36/130/6 28/129/6
f 21/127/6 28/129/6 41/59/6
f 3/58/6 21/127/6 41/59/6
f 43/61/3 35/133/3 21/62/3
f 10/64/3 2/134/3 41/65/3
f 48/67/5 18/135/5 16/68/5
f 48/70/4 9/136/4 8/71/4
f 16/73/1 3/137/1 33/74/1
f 37/76/5 43/113/5 25/77/5
f 23/79/3 46/138/3 45/80/3
f 7/82/4 44/139/4 13/83/4
f 5/85/4 25/140/4 43/86/4
f 28/88/4 42/141/4 11/89/4
f 19/91/1 1/142/1 30/92/1
f 6/94/1 37/143/1 26/95/1
f 5/97/2 36/144/2 12/98/2
