# Blender v3.1.2 OBJ File: ''
# www.blender.org
mtllib Flower-03.mtl
o Flower-03
v -2.000000 2.500000 -0.600000
v -1.600000 0.400000 1.600000
v -1.200000 -0.000000 1.200000
v -1.200000 6.000000 -1.199999
v -1.000000 2.500000 0.500000
v -0.800000 0.800000 -0.800000
v -0.800000 1.100000 -0.800000
v -0.300000 5.900000 -0.299999
v 1.400000 0.800000 -1.400000
v 1.400000 0.800000 1.400000
v -1.400000 0.800000 1.400000
v -1.400000 1.000000 1.400000
v -0.500000 5.900000 0.500001
v -0.500000 6.000000 -0.499999
v 0.300000 5.900000 -0.299999
v 0.800000 0.800000 0.800000
v 0.800000 0.800000 -0.800000
v 0.800000 1.100000 -0.800000
v 1.000000 1.100000 1.000000
v 1.000000 3.800000 0.400001
v 1.000000 5.100000 1.000001
v 1.200000 -0.000000 1.200000
v 1.200000 0.000000 -1.200000
v 1.200000 5.100000 1.200001
v 1.200000 5.100000 -1.199999
v 1.200000 6.000000 1.200001
v 2.000000 1.800000 0.400000
v -1.600000 1.000000 1.600000
v 1.600000 0.400000 1.600000
v 1.600000 1.000000 1.600000
v -1.200000 6.000000 1.200001
v -1.000000 5.100000 1.000001
v -0.800000 1.100000 0.800000
v -0.800000 0.800000 0.800000
v 0.800000 1.100000 0.800000
v -1.000000 3.800000 0.500001
v 0.300000 5.900000 0.300001
v -0.300000 6.000000 0.300001
v -0.500000 5.900000 -0.499999
v -1.400000 0.800000 -1.400000
v 1.400000 1.000000 -1.400000
v 0.500000 5.900000 0.500001
v 0.300000 6.000000 -0.299999
v -1.000000 3.800000 -0.599999
v 1.000000 1.800000 -0.800000
v 1.000000 3.800000 -0.799999
v 2.000000 3.800000 -0.799999
v -1.000000 1.100000 -1.000000
v 1.000000 5.100000 -0.999999
v -1.200000 0.000000 -1.200000
v -1.200000 5.100000 -1.199999
v -1.600000 1.000000 -1.600000
v 1.600000 0.400000 -1.600000
v -1.200000 0.400000 1.200000
v 1.200000 0.400000 1.200000
v -1.200000 0.400000 -1.200000
v 1.200000 0.400000 -1.200000
v -1.600000 0.400000 -1.600000
v -1.000000 1.100000 1.000000
v 1.000000 1.100000 -1.000000
v 1.000000 1.800000 0.400000
v 2.000000 1.800000 -0.800000
v -2.000000 2.500000 0.500000
v -1.000000 2.500000 -0.600000
v -1.200000 5.100000 1.200001
v -1.000000 5.100000 -0.999999
v 1.400000 1.000000 1.400000
v -1.400000 1.000000 -1.400000
v 1.600000 1.000000 -1.600000
v -2.000000 3.800000 0.500001
v -2.000000 3.800000 -0.599999
v 2.000000 3.800000 0.400001
v -0.300000 5.900000 0.300001
v 0.500000 5.900000 -0.499999
v -0.500000 6.000000 0.500001
v 0.500000 6.000000 0.500001
v 0.300000 6.000000 0.300001
v -0.300000 6.000000 -0.299999
v 0.500000 6.000000 -0.499999
v 1.200000 6.000000 -1.199999
vt 0.343750 0.796875
vt 0.265625 0.882813
vt 0.343750 0.882813
vt 0.375000 0.750000
vt 0.187500 0.562500
vt 0.375000 0.562500
vt 0.843750 0.562500
vt 0.625000 0.546875
vt 0.625000 0.562500
vt 0.429688 0.617188
vt 0.562500 0.562500
vt 0.375000 0.562500
vt 0.171875 0.578125
vt 0.000000 0.562500
vt 0.187500 0.562500
vt 0.875000 0.000000
vt 0.843750 0.187500
vt 0.843750 0.000000
vt 0.765625 0.343750
vt 0.695313 0.531250
vt 0.695313 0.343750
vt 0.671875 0.171875
vt 0.500000 0.218750
vt 0.718750 0.218750
vt 0.703125 0.703125
vt 0.718750 0.562500
vt 0.718750 0.718750
vt 0.437500 0.750000
vt 0.539063 0.835938
vt 0.539063 0.750000
vt 0.562500 0.859375
vt 0.687500 0.835938
vt 0.687500 0.859375
vt 0.828125 0.500000
vt 0.781250 0.250000
vt 0.781250 0.500000
vt 0.796875 0.562500
vt 0.718750 0.718750
vt 0.718750 0.562500
vt 0.765625 0.421875
vt 0.773438 0.500000
vt 0.773438 0.421875
vt 0.796875 0.000000
vt 0.718750 0.156250
vt 0.796875 0.156250
vt 0.812500 0.867188
vt 0.875000 0.851563
vt 0.828125 0.851563
vt 0.828125 0.781250
vt 0.750000 0.773438
vt 0.750000 0.781250
vt 0.687500 0.250000
vt 0.500000 0.218750
vt 0.500000 0.250000
vt 0.773438 0.343750
vt 0.765625 0.421875
vt 0.765625 0.343750
vt 0.828125 0.484375
vt 0.835938 0.531250
vt 0.835938 0.484375
vt 0.265625 0.890625
vt 0.187500 0.796875
vt 0.265625 0.796875
vt 0.375000 0.750000
vt 0.562500 0.750000
vt 0.429688 0.695313
vt 0.765625 0.507812
vt 0.812500 0.500000
vt 0.812500 0.507812
vt 0.578125 0.578125
vt 0.562500 0.718750
vt 0.562500 0.562500
vt 0.835938 0.437500
vt 0.828125 0.484375
vt 0.828125 0.437500
vt 0.000000 0.851563
vt 0.187500 0.820313
vt 0.187500 0.851563
vt 0.500000 0.000000
vt 0.484375 0.015625
vt 0.500000 0.250000
vt 0.000000 0.820313
vt 0.187500 0.750000
vt 0.187500 0.820313
vt 0.187500 0.796875
vt 0.437500 0.750000
vt 0.187500 0.750000
vt 0.859375 0.250000
vt 0.875000 0.468750
vt 0.875000 0.250000
vt 0.625000 0.546875
vt 0.843750 0.531250
vt 0.843750 0.546875
vt 0.718750 0.250000
vt 0.796875 0.250000
vt 0.875000 0.664063
vt 0.796875 0.562500
vt 0.796875 0.664063
vt 0.898438 0.250000
vt 0.875000 0.375000
vt 0.875000 0.250000
vt 0.828125 0.250000
vt 0.859375 0.437500
vt 0.859375 0.250000
vt 0.890625 0.000000
vt 0.875000 0.218750
vt 0.875000 0.000000
vt 0.750000 0.773438
vt 0.828125 0.765625
vt 0.828125 0.773438
vt 0.312500 0.406250
vt 0.312500 0.250000
vt 0.367188 0.359375
vt 0.421875 0.882813
vt 0.343750 0.796875
vt 0.421875 0.796875
vt 0.523438 0.523438
vt 0.625000 0.562500
vt 0.625000 0.406250
vt 0.796875 0.664063
vt 0.875000 0.765625
vt 0.796875 0.765625
vt 0.796875 0.718750
vt 0.750000 0.765625
vt 0.796875 0.765625
vt 0.500000 0.000000
vt 0.546875 0.046875
vt 0.671875 0.046875
vt 0.125000 0.875000
vt 0.000000 0.851563
vt 0.000000 0.875000
vt 0.031250 0.218750
vt 0.250000 0.250000
vt 0.000000 0.250000
vt 0.843750 0.000000
vt 0.796875 0.250000
vt 0.796875 0.000000
vt 0.156250 0.562500
vt 0.000000 0.250000
vt 0.156250 0.250000
vt 0.250000 0.000000
vt 0.218750 0.218750
vt 0.218750 0.031250
vt 0.890625 0.789063
vt 0.812500 0.789063
vt 0.875000 0.804688
vt 0.781250 0.250000
vt 0.625000 0.343750
vt 0.625000 0.250000
vt 0.750000 0.789063
vt 0.562500 0.718750
vt 0.562500 0.789063
vt 0.539062 0.750000
vt 0.562500 0.875000
vt 0.562500 0.750000
vt 0.625000 0.343750
vt 0.695313 0.531250
vt 0.695313 0.343750
vt 0.265625 0.234375
vt 0.250000 0.250000
vt 0.484375 0.234375
vt 0.523438 0.265625
vt 0.367188 0.265625
vt 0.156250 0.562500
vt 0.312500 0.562500
vt 0.421875 0.437500
vt 0.312500 0.406250
vt 0.421875 0.523438
vt 0.562500 0.835938
vt 0.812500 0.789063
vt 0.812500 0.835938
vt 0.000000 0.750000
vt 0.015625 0.734375
vt 0.171875 0.734375
vt 0.812500 0.515625
vt 0.765625 0.507813
vt 0.765625 0.515625
vt 0.265625 0.796875
vt 0.187500 0.750000
vt 0.843750 0.546875
vt 0.507813 0.617188
vt 0.015625 0.578125
vt 0.875000 0.187500
vt 0.765625 0.531250
vt 0.546875 0.171875
vt 0.718750 0.000000
vt 0.578125 0.703125
vt 0.703125 0.578125
vt 0.437500 0.835938
vt 0.562500 0.835938
vt 0.828125 0.250000
vt 0.796875 0.718750
vt 0.765625 0.500000
vt 0.718750 0.000000
vt 0.890625 0.867188
vt 0.828125 0.804688
vt 0.828125 0.773438
vt 0.687500 0.218750
vt 0.773438 0.421875
vt 0.828125 0.531250
vt 0.187500 0.890625
vt 0.507813 0.695313
vt 0.765625 0.500000
vt 0.835938 0.484375
vt 0.000000 0.820313
vt 0.250000 0.000000
vt 0.265625 0.015625
vt 0.437500 0.796875
vt 0.859375 0.468750
vt 0.625000 0.531250
vt 0.875000 0.562500
vt 0.898438 0.375000
vt 0.828125 0.437500
vt 0.890625 0.218750
vt 0.750000 0.765625
vt 0.523438 0.359375
vt 0.625000 0.406250
vt 0.343750 0.882813
vt 0.312500 0.562500
vt 0.523438 0.437500
vt 0.875000 0.664063
vt 0.750000 0.718750
vt 0.125000 0.851563
vt 0.000000 0.000000
vt 0.031250 0.031250
vt 0.843750 0.250000
vt 0.000000 0.562500
vt 0.781250 0.343750
vt 0.750000 0.718750
vt 0.539062 0.875000
vt 0.625000 0.531250
vt 0.625000 0.250000
vt 0.156250 0.250000
vt 0.562500 0.789063
vt 0.812500 0.507813
vn 0.0000 1.0000 0.0000
vn 0.0000 -1.0000 -0.0000
vn 0.0000 0.0000 -1.0000
vn 1.0000 -0.0000 0.0000
vn -1.0000 -0.0000 0.0000
vn 0.0000 -0.0000 1.0000
usemtl Flower-03_Material
s off
f 44/1/1 70/2/1 36/3/1
f 22/4/2 50/5/2 23/6/2
f 67/7/3 11/8/3 12/9/3
f 14/10/1 80/11/1 4/12/1
f 49/13/2 51/14/2 25/15/2
f 57/16/4 22/17/4 23/18/4
f 80/19/4 24/20/4 25/21/4
f 16/22/1 11/23/1 10/24/1
f 35/25/2 60/26/2 19/27/2
f 1/28/5 70/29/5 71/30/5
f 33/31/6 16/32/6 35/33/6
f 28/34/5 58/35/5 2/36/5
f 27/37/6 20/38/6 61/39/6
f 74/40/5 76/41/5 79/42/5
f 62/43/3 46/44/3 47/45/3
f 13/46/1 37/47/1 73/48/1
f 76/49/3 13/50/3 75/51/3
f 57/52/3 50/53/3 56/54/3
f 14/55/4 13/56/4 39/57/4
f 8/58/5 38/59/5 78/60/5
f 27/61/2 45/62/2 62/63/2
f 31/64/1 26/65/1 75/66/1
f 38/67/6 37/68/6 77/69/6
f 7/70/2 59/71/2 48/72/2
f 43/73/4 37/74/4 15/75/4
f 54/76/6 22/77/6 55/78/6
f 69/79/1 41/80/1 30/81/1
f 31/82/6 24/83/6 26/84/6
f 52/85/3 53/86/3 58/87/3
f 9/88/5 67/89/5 41/90/5
f 68/91/6 9/92/6 41/93/6
f 47/45/1 20/94/1 72/95/1
f 44/96/3 1/97/3 71/98/3
f 18/99/4 16/100/4 17/101/4
f 50/102/5 54/103/5 56/104/5
f 68/105/4 11/106/4 40/107/4
f 14/108/6 74/109/6 79/110/6
f 19/111/4 60/112/4 61/113/4
f 5/114/2 1/115/2 64/116/2
f 36/117/5 32/118/5 66/119/5
f 63/120/6 36/121/6 70/122/6
f 43/123/1 38/124/1 77/125/1
f 40/126/1 6/127/1 17/128/1
f 18/129/3 6/130/3 7/131/3
f 54/132/2 29/133/2 2/134/2
f 69/135/4 29/136/4 53/137/4
f 21/138/6 59/139/6 19/140/6
f 53/141/2 55/142/2 57/143/2
f 74/144/1 39/145/1 15/146/1
f 47/147/4 27/148/4 62/149/4
f 80/150/3 51/151/3 4/152/3
f 6/153/5 33/154/5 7/155/5
f 51/156/5 31/157/5 4/158/5
f 12/159/1 28/160/1 67/161/1
f 46/162/4 45/163/4 60/112/4
f 60/112/3 66/164/3 49/165/3
f 64/166/5 48/167/5 5/168/5
f 28/169/6 29/170/6 30/171/6
f 65/172/2 32/173/2 21/174/2
f 43/175/3 8/176/3 78/177/3
f 44/1/1 71/178/1 70/2/1
f 22/4/2 3/179/2 50/5/2
f 67/7/3 10/180/3 11/8/3
f 14/10/1 79/181/1 80/11/1
f 66/182/2 32/173/2 51/14/2
f 25/15/2 24/83/2 21/174/2
f 49/13/2 66/182/2 51/14/2
f 25/15/2 21/174/2 49/13/2
f 57/16/4 55/183/4 22/17/4
f 80/19/4 26/184/4 24/20/4
f 34/185/1 6/127/1 11/23/1
f 10/24/1 9/186/1 17/128/1
f 16/22/1 34/185/1 11/23/1
f 10/24/1 17/128/1 16/22/1
f 59/71/2 7/70/2 33/187/2
f 35/25/2 18/188/2 60/26/2
f 59/71/2 33/187/2 19/27/2
f 33/187/2 35/25/2 19/27/2
f 1/28/5 63/189/5 70/29/5
f 33/31/6 34/190/6 16/32/6
f 28/34/5 52/191/5 58/35/5
f 27/37/6 72/192/6 20/38/6
f 74/40/5 42/193/5 76/41/5
f 62/43/3 45/194/3 46/44/3
f 13/46/1 42/195/1 37/47/1
f 73/48/1 8/196/1 13/46/1
f 76/49/3 42/197/3 13/50/3
f 57/52/3 23/198/3 50/53/3
f 14/55/4 75/199/4 13/56/4
f 8/58/5 73/200/5 38/59/5
f 27/61/2 61/201/2 45/62/2
f 26/65/1 80/11/1 79/181/1
f 26/65/1 79/181/1 76/202/1
f 14/10/1 4/12/1 75/66/1
f 4/12/1 31/64/1 75/66/1
f 26/65/1 76/202/1 75/66/1
f 38/67/6 73/203/6 37/68/6
f 60/26/2 18/188/2 48/72/2
f 18/188/2 7/70/2 48/72/2
f 43/73/4 77/204/4 37/74/4
f 54/76/6 3/205/6 22/77/6
f 52/206/1 12/159/1 68/207/1
f 52/206/1 68/207/1 41/80/1
f 67/161/1 28/160/1 30/81/1
f 69/79/1 52/206/1 41/80/1
f 41/80/1 67/161/1 30/81/1
f 31/82/6 65/172/6 24/83/6
f 52/85/3 69/208/3 53/86/3
f 9/88/5 10/209/5 67/89/5
f 68/91/6 40/210/6 9/92/6
f 47/45/1 46/44/1 20/94/1
f 44/96/3 64/211/3 1/97/3
f 18/99/4 35/212/4 16/100/4
f 50/102/5 3/213/5 54/103/5
f 68/105/4 12/214/4 11/106/4
f 14/108/6 39/215/6 74/109/6
f 61/113/4 20/216/4 19/111/4
f 20/216/4 21/217/4 19/111/4
f 5/114/2 63/218/2 1/115/2
f 5/168/5 48/167/5 59/219/5
f 66/119/5 64/166/5 44/220/5
f 36/117/5 5/168/5 32/118/5
f 5/168/5 59/219/5 32/118/5
f 66/119/5 44/220/5 36/117/5
f 63/120/6 5/221/6 36/121/6
f 43/123/1 78/222/1 38/124/1
f 17/128/1 9/186/1 40/126/1
f 40/126/1 11/23/1 6/127/1
f 18/129/3 17/223/3 6/130/3
f 58/224/2 56/225/2 54/132/2
f 54/132/2 55/142/2 29/133/2
f 2/134/2 58/224/2 54/132/2
f 69/135/4 30/226/4 29/136/4
f 21/138/6 32/227/6 59/139/6
f 56/225/2 58/224/2 53/141/2
f 53/141/2 29/133/2 55/142/2
f 57/143/2 56/225/2 53/141/2
f 39/145/1 13/46/1 8/196/1
f 15/146/1 37/47/1 42/195/1
f 39/145/1 8/196/1 15/146/1
f 15/146/1 42/195/1 74/144/1
f 47/147/4 72/228/4 27/148/4
f 80/150/3 25/229/3 51/151/3
f 6/153/5 34/230/5 33/154/5
f 51/156/5 65/231/5 31/157/5
f 12/159/1 52/206/1 28/160/1
f 49/232/4 21/217/4 20/216/4
f 49/232/4 20/216/4 46/162/4
f 45/163/4 61/113/4 60/112/4
f 49/232/4 46/162/4 60/112/4
f 60/112/3 48/233/3 66/164/3
f 64/166/5 66/119/5 48/167/5
f 28/169/6 2/234/6 29/170/6
f 21/174/2 24/83/2 65/172/2
f 65/172/2 51/14/2 32/173/2
f 43/175/3 15/235/3 8/176/3
