# Blender v3.1.2 OBJ File: ''
# www.blender.org
mtllib Flower-04.mtl
o Flower-04
v -1.600000 0.400000 1.600000
v -1.600000 2.600000 0.400000
v -1.600000 6.000000 0.400001
v -1.200000 0.400000 -1.200000
v -1.000000 2.600000 0.400000
v -1.000000 5.400000 1.700001
v -0.600000 2.400000 0.100000
v -0.600000 2.400000 -0.100000
v -0.200000 0.800000 -0.200000
v -0.200000 0.800000 0.200000
v -0.200000 2.400000 -0.200000
v -0.100000 2.000000 -0.200000
v -0.100000 2.200000 -0.600000
v 0.500000 2.000000 -0.100000
v 1.400000 0.800000 -1.400000
v 1.400000 1.000000 -1.400000
v -1.400000 1.000000 1.400000
v -1.400000 1.000000 -1.400000
v 0.100000 2.000000 -0.200000
v 0.200000 2.000000 0.100000
v 0.200000 2.400000 0.200000
v 0.200000 2.400000 -0.200000
v 0.600000 3.000000 -1.100000
v 0.600000 4.900000 -0.399999
v 0.600000 5.400000 0.400001
v 0.700000 1.800000 -0.100000
v 0.900000 2.400000 -0.400000
v 0.900000 5.400000 1.700001
v 1.200000 0.000000 -1.200000
v 1.600000 0.400000 1.600000
v -1.000000 2.400000 1.700000
v 0.900000 2.400000 1.700000
v 1.600000 1.000000 1.600000
v 1.200000 0.400000 1.200000
v 1.800000 4.900000 0.600001
v -0.600000 1.900000 0.100000
v -0.200000 1.900000 0.100000
v 0.700000 2.400000 0.100000
v -1.400000 0.800000 -1.400000
v -0.400000 2.100000 -0.100000
v -0.400000 2.400000 -0.100000
v -0.200000 2.100000 -0.100000
v 0.200000 1.800000 -0.100000
v 0.500000 2.400000 -0.100000
v 0.100000 2.200000 -0.200000
v -1.000000 2.600000 -0.400000
v 0.600000 2.600000 -0.400000
v 0.600000 3.000000 -0.400000
v 0.900000 3.000000 -0.400000
v 0.900000 5.400000 -0.399999
v -0.100000 2.000000 -0.800000
v -0.100000 2.600000 -0.800000
v 0.100000 2.600000 -0.800000
v 1.800000 4.900000 -1.099999
v 1.600000 0.400000 -1.600000
v 1.600000 1.000000 -1.600000
v -1.600000 2.600000 -1.700000
v -1.200000 0.000000 -1.200000
v 1.200000 -0.000000 1.200000
v -1.200000 -0.000000 1.200000
v -1.200000 0.400000 1.200000
v 1.200000 0.400000 -1.200000
v -1.600000 0.400000 -1.600000
v 0.700000 1.800000 0.100000
v 0.200000 1.800000 0.100000
v -0.600000 1.900000 -0.100000
v -0.200000 1.900000 -0.100000
v 0.100000 2.000000 -0.800000
v -0.200000 2.400000 0.200000
v -0.400000 2.400000 0.100000
v 0.500000 2.400000 0.100000
v 0.700000 2.400000 -0.100000
v -1.000000 2.400000 -0.400000
v -0.100000 2.600000 -0.600000
v 0.100000 2.600000 -0.600000
v 0.600000 2.600000 -1.700000
v 1.800000 3.000000 0.600001
v 0.900000 3.000000 0.600001
v 1.800000 3.000000 -1.100000
v -1.400000 0.800000 1.400000
v 1.400000 0.800000 1.400000
v 0.200000 0.800000 0.200000
v 0.200000 0.800000 -0.200000
v -1.600000 1.000000 1.600000
v 1.400000 1.000000 1.400000
v -1.600000 1.000000 -1.600000
v 0.500000 2.000000 0.100000
v 0.200000 2.000000 -0.100000
v -0.400000 2.100000 0.100000
v -0.200000 2.100000 0.100000
v -0.100000 2.200000 -0.200000
v 0.100000 2.200000 -0.600000
v 0.900000 4.900000 0.600001
v 0.900000 4.900000 -0.399999
v 0.600000 4.900000 -1.099999
v -1.000000 5.400000 0.400001
v 0.600000 5.400000 -0.399999
v 0.600000 6.000000 0.400001
v -1.600000 6.000000 -1.699999
v 0.600000 6.000000 -1.699999
vt 0.742187 0.929687
vt 0.812500 0.781250
vt 0.812500 0.929687
vt 0.250000 0.546875
vt 0.234375 0.500000
vt 0.250000 0.500000
vt 0.242188 0.812500
vt 0.148438 0.664062
vt 0.148438 0.812500
vt 0.812500 0.187500
vt 0.843750 0.164062
vt 0.843750 0.195312
vt 0.843750 0.617187
vt 0.773437 0.617187
vt 0.773437 0.539062
vt 0.398437 0.648438
vt 0.250000 0.882812
vt 0.250000 0.648438
vt 0.398437 0.812500
vt 0.398437 0.828125
vt 0.523437 0.828125
vt 0.125000 0.859375
vt 0.101562 0.851562
vt 0.085938 0.851562
vt 0.546875 0.843750
vt 0.734375 0.812500
vt 0.734375 0.843750
vt 0.679688 0.859375
vt 0.695312 0.843750
vt 0.664062 0.843750
vt 0.234375 0.664062
vt 0.234375 0.562500
vt 0.015625 0.562500
vt 0.234375 0.015625
vt 0.250000 0.250000
vt 0.250000 0.000000
vt 0.781250 0.218750
vt 0.781250 0.273438
vt 0.804687 0.273438
vt 0.000000 0.000000
vt 0.000000 0.250000
vt 0.015625 0.015625
vt 0.742187 0.648438
vt 0.570312 0.812500
vt 0.742187 0.812500
vt 0.843750 0.906250
vt 0.851562 0.875000
vt 0.843750 0.781250
vt 0.937500 0.367188
vt 0.921875 0.585938
vt 0.921875 0.367188
vt 0.812500 0.906250
vt 0.843750 0.781250
vt 0.843750 0.906250
vt 0.250000 0.218750
vt 0.343750 0.093750
vt 0.250000 0.000000
vt 0.000000 0.500000
vt 0.218750 0.468750
vt 0.250000 0.500000
vt 0.421875 0.484375
vt 0.250000 0.218750
vt 0.250000 0.484375
vt 0.531250 0.718750
vt 0.570312 0.648438
vt 0.570312 0.750000
vt 0.117187 0.703125
vt 0.093750 0.679688
vt 0.117187 0.687500
vt 0.929687 0.000000
vt 0.882812 0.250000
vt 0.882812 0.000000
vt 0.085938 0.835937
vt 0.000000 0.828125
vt 0.000000 0.859375
vt 0.593750 0.406250
vt 0.843750 0.453125
vt 0.843750 0.406250
vt 0.234375 0.656250
vt 0.250000 0.625000
vt 0.250000 0.656250
vt 0.468750 0.000000
vt 0.375000 0.125000
vt 0.468750 0.218750
vt 0.890625 0.554688
vt 0.921875 0.742188
vt 0.921875 0.554688
vt 0.445312 0.750000
vt 0.398437 0.812500
vt 0.398437 0.648438
vt 0.796875 0.367187
vt 0.828125 0.351562
vt 0.781250 0.351562
vt 0.000000 0.250000
vt 0.250000 0.250000
vt 0.031250 0.281250
vt 0.218750 0.875000
vt 0.000000 0.859375
vt 0.000000 0.875000
vt 0.765625 0.195312
vt 0.718750 0.210937
vt 0.718750 0.195312
vt 0.250000 0.593750
vt 0.234375 0.546875
vt 0.234375 0.593750
vt 0.765625 0.195312
vt 0.796875 0.210937
vt 0.796875 0.195312
vt 0.804688 0.632812
vt 0.789062 0.648438
vt 0.804688 0.648438
vt 0.250000 0.648438
vt 0.515625 0.484375
vt 0.250000 0.484375
vt 0.734375 0.000000
vt 0.687500 0.101562
vt 0.648438 0.046875
vt 0.921875 0.367188
vt 0.890625 0.554688
vt 0.890625 0.367188
vt 0.890625 0.781250
vt 0.742187 0.648438
vt 0.890625 0.648438
vt 0.867187 0.875000
vt 0.867187 0.890625
vt 0.875000 0.906250
vt 0.718750 0.195312
vt 0.718750 0.164062
vt 0.796875 0.187500
vt 0.812500 0.617188
vt 0.789062 0.632812
vt 0.812500 0.632812
vt 0.804688 0.468750
vt 0.781250 0.484375
vt 0.781250 0.468750
vt 0.859375 0.179687
vt 0.843750 0.203125
vt 0.843750 0.164062
vt 0.789062 0.648438
vt 0.750000 0.632812
vt 0.789062 0.632812
vt 0.062500 0.679688
vt 0.000000 0.664062
vt 0.148437 0.664062
vt 0.664062 0.882812
vt 0.640625 0.843750
vt 0.640625 0.882812
vt 0.093750 0.710937
vt 0.132812 0.703125
vt 0.148437 0.828125
vt 0.921875 0.585938
vt 0.937500 0.804688
vt 0.937500 0.585938
vt 0.218750 0.828125
vt 0.234375 0.859375
vt 0.234375 0.812500
vt 0.718750 0.859375
vt 0.695312 0.843750
vt 0.734375 0.843750
vt 0.781250 0.406250
vt 0.593750 0.218750
vt 0.781250 0.218750
vt 0.750000 0.617188
vt 0.789062 0.632812
vt 0.789062 0.617188
vt 0.882812 0.000000
vt 0.859375 0.000000
vt 0.859375 0.062500
vt 0.468750 0.437500
vt 0.593750 0.484375
vt 0.421875 0.484375
vt 0.468750 0.164062
vt 0.718750 0.210937
vt 0.468750 0.210937
vt 0.562500 0.562500
vt 0.710937 0.562500
vt 0.750000 0.648438
vt 0.164063 0.828125
vt 0.148438 0.859375
vt 0.148438 0.812500
vt 0.250000 0.593750
vt 0.234375 0.625000
vt 0.250000 0.625000
vt 0.398437 0.875000
vt 0.617187 0.859375
vt 0.617187 0.875000
vt 0.812500 0.468750
vt 0.781250 0.453125
vt 0.812500 0.453125
vt 0.781250 0.484375
vt 0.593750 0.453125
vt 0.593750 0.484375
vt 0.843750 0.617187
vt 0.890625 0.367188
vt 0.843750 0.367188
vt 0.742187 0.781250
vt 0.234375 0.546875
vt 0.242188 0.664062
vt 0.812500 0.171875
vt 0.796875 0.171875
vt 0.750000 0.539062
vt 0.750000 0.484375
vt 0.843750 0.484375
vt 0.398437 0.882812
vt 0.523437 0.859375
vt 0.546875 0.859375
vt 0.546875 0.812500
vt 0.125000 0.828125
vt 0.546875 0.812500
vt 0.664062 0.882812
vt 0.679688 0.882812
vt 0.695312 0.859375
vt 0.015625 0.500000
vt 0.000000 0.500000
vt 0.000000 0.664062
vt 0.234375 0.234375
vt 0.804687 0.351562
vt 0.875000 0.351562
vt 0.875000 0.218750
vt 0.015625 0.234375
vt 0.570312 0.648438
vt 0.851562 0.890625
vt 0.937500 0.585938
vt 0.812500 0.781250
vt 0.343750 0.125000
vt 0.375000 0.093750
vt 0.031250 0.468750
vt 0.218750 0.281250
vt 0.421875 0.218750
vt 0.515625 0.718750
vt 0.515625 0.734375
vt 0.531250 0.734375
vt 0.929687 0.250000
vt 0.101562 0.835937
vt 0.593750 0.453125
vt 0.234375 0.625000
vt 0.890625 0.742188
vt 0.445312 0.812500
vt 0.828125 0.367187
vt 0.781250 0.398438
vt 0.796875 0.398438
vt 0.218750 0.859375
vt 0.765625 0.210937
vt 0.250000 0.546875
vt 0.765625 0.210937
vt 0.789062 0.632812
vt 0.515625 0.648438
vt 0.648438 0.101562
vt 0.500000 0.046875
vt 0.500000 0.101562
vt 0.468750 0.101562
vt 0.468750 0.000000
vt 0.734375 0.164062
vt 0.687500 0.164062
vt 0.921875 0.554688
vt 0.742187 0.781250
vt 0.875000 0.781250
vt 0.789062 0.617188
vt 0.804688 0.484375
vt 0.875000 0.164062
vt 0.875000 0.179687
vt 0.859375 0.203125
vt 0.750000 0.648438
vt 0.046875 0.703125
vt 0.046875 0.687500
vt 0.031250 0.687500
vt 0.031250 0.703125
vt 0.664062 0.843750
vt 0.062500 0.710937
vt 0.000000 0.828125
vt 0.132812 0.687500
vt 0.921875 0.804688
vt 0.195312 0.812500
vt 0.195312 0.828125
vt 0.218750 0.859375
vt 0.734375 0.890625
vt 0.718750 0.890625
vt 0.695312 0.859375
vt 0.593750 0.406250
vt 0.750000 0.632812
vt 0.734375 0.062500
vt 0.734375 0.164062
vt 0.882812 0.164062
vt 0.421875 0.218750
vt 0.468750 0.218750
vt 0.593750 0.437500
vt 0.718750 0.164062
vt 0.515625 0.648438
vt 0.515625 0.484375
vt 0.562500 0.484375
vt 0.710937 0.484375
vt 0.750000 0.484375
vt 0.195312 0.812500
vt 0.195312 0.828125
vt 0.164063 0.859375
vt 0.234375 0.593750
vt 0.398437 0.859375
vt 0.781250 0.468750
vt 0.781250 0.453125
vt 0.890625 0.617187
vn 0.0000 -0.0000 1.0000
vn 0.0000 -1.0000 -0.0000
vn 0.0000 0.0000 -1.0000
vn 1.0000 -0.0000 0.0000
vn -1.0000 -0.0000 0.0000
vn 0.0000 1.0000 0.0000
usemtl Flower-04_Material
s off
f 93/1/1 77/2/1 35/3/1
f 19/4/2 51/5/2 68/6/2
f 54/7/3 23/8/3 95/9/3
f 20/10/4 22/11/4 21/12/4
f 77/13/2 78/14/2 49/15/2
f 32/16/1 6/17/1 31/18/1
f 73/19/3 46/20/3 47/21/3
f 69/22/5 90/23/5 37/24/5
f 61/25/1 59/26/1 34/27/1
f 40/28/3 67/29/3 66/30/3
f 6/31/5 96/32/5 5/33/5
f 16/34/6 33/35/6 56/36/6
f 95/37/6 24/38/6 94/39/6
f 86/40/6 84/41/6 18/42/6
f 100/43/6 3/44/6 98/45/6
f 11/46/3 12/47/3 9/48/3
f 18/49/4 80/50/4 39/51/4
f 69/52/1 82/53/1 21/54/1
f 80/55/6 9/56/6 39/57/6
f 1/58/2 34/59/2 30/60/2
f 100/61/3 57/62/3 99/63/3
f 53/64/2 76/65/2 47/66/2
f 71/67/2 22/68/2 44/69/2
f 56/70/4 30/71/4 55/72/4
f 67/73/5 9/74/5 10/75/5
f 63/76/3 56/77/3 55/78/3
f 74/79/1 92/80/1 75/81/1
f 15/82/6 82/83/6 81/84/6
f 58/85/5 61/86/5 4/87/5
f 46/88/2 2/89/2 57/90/2
f 13/91/5 52/92/5 51/93/5
f 63/94/2 55/95/2 4/96/2
f 85/97/3 80/98/3 17/99/3
f 72/100/4 64/101/4 26/102/4
f 53/103/3 51/104/3 52/105/3
f 14/106/5 71/107/5 44/108/5
f 42/109/6 89/110/6 90/111/6
f 2/112/5 99/113/5 57/114/5
f 100/115/4 97/116/4 95/117/4
f 62/118/4 59/119/4 29/120/4
f 35/121/4 79/122/4 54/123/4
f 19/124/3 45/125/3 22/126/3
f 82/127/4 83/128/4 65/129/4
f 14/130/6 20/131/6 87/132/6
f 41/133/4 89/134/4 40/135/4
f 89/136/1 7/137/1 36/138/1
f 64/139/2 43/140/2 26/141/2
f 11/142/2 73/143/2 27/144/2
f 50/145/3 24/146/3 97/147/3
f 21/148/2 38/149/2 32/150/2
f 15/151/5 85/152/5 16/153/5
f 14/154/3 72/155/3 26/156/3
f 87/157/1 65/158/1 64/159/1
f 59/160/2 58/161/2 29/162/2
f 66/163/5 7/164/5 8/165/5
f 50/166/6 97/167/6 25/168/6
f 96/169/1 98/170/1 3/171/1
f 1/172/1 33/173/1 84/174/1
f 78/175/4 93/176/4 28/177/4
f 92/178/4 19/179/4 68/180/4
f 92/181/6 91/182/6 45/183/6
f 18/184/1 15/185/1 16/186/1
f 37/187/2 66/188/2 67/189/2
f 62/190/3 58/191/3 4/192/3
f 1/193/5 86/194/5 63/195/5
f 93/1/1 78/196/1 77/2/1
f 19/4/2 12/197/2 51/5/2
f 54/7/3 79/198/3 23/8/3
f 88/199/4 43/200/4 22/11/4
f 21/12/4 65/129/4 20/10/4
f 20/10/4 88/199/4 22/11/4
f 49/15/2 48/201/2 23/202/2
f 23/202/2 79/203/2 49/15/2
f 79/203/2 77/13/2 49/15/2
f 32/16/1 28/204/1 6/17/1
f 48/205/3 49/206/3 47/21/3
f 49/206/3 27/207/3 47/21/3
f 27/207/3 73/19/3 47/21/3
f 69/22/5 11/208/5 90/23/5
f 61/25/1 60/209/1 59/26/1
f 66/30/3 8/210/3 40/28/3
f 8/210/3 41/211/3 40/28/3
f 40/28/3 42/212/3 67/29/3
f 46/213/5 73/214/5 5/33/5
f 73/214/5 31/215/5 5/33/5
f 31/215/5 6/31/5 5/33/5
f 16/34/6 85/216/6 33/35/6
f 56/36/6 86/40/6 16/34/6
f 93/217/6 35/218/6 94/39/6
f 35/218/6 54/219/6 94/39/6
f 54/219/6 95/37/6 94/39/6
f 84/41/6 33/35/6 85/216/6
f 84/41/6 85/216/6 17/220/6
f 18/42/6 16/34/6 86/40/6
f 84/41/6 17/220/6 18/42/6
f 100/43/6 99/221/6 3/44/6
f 11/46/3 91/222/3 12/47/3
f 18/49/4 17/223/4 80/50/4
f 69/52/1 10/224/1 82/53/1
f 80/55/6 81/84/6 10/225/6
f 81/84/6 82/83/6 10/225/6
f 83/226/6 15/82/6 39/57/6
f 80/55/6 10/225/6 9/56/6
f 9/56/6 83/226/6 39/57/6
f 1/58/2 63/94/2 61/227/2
f 34/59/2 62/228/2 30/60/2
f 1/58/2 61/227/2 34/59/2
f 100/61/3 76/229/3 57/62/3
f 53/64/2 52/230/2 76/65/2
f 52/230/2 57/90/2 76/65/2
f 47/66/2 46/88/2 74/231/2
f 47/66/2 74/231/2 75/232/2
f 47/66/2 75/232/2 53/64/2
f 71/67/2 21/148/2 22/68/2
f 56/70/4 33/233/4 30/71/4
f 42/234/5 90/23/5 11/208/5
f 10/75/5 69/22/5 37/24/5
f 67/73/5 42/234/5 11/208/5
f 10/75/5 37/24/5 67/73/5
f 67/73/5 11/208/5 9/74/5
f 63/76/3 86/235/3 56/77/3
f 74/79/1 13/236/1 92/80/1
f 15/82/6 83/226/6 82/83/6
f 58/85/5 60/237/5 61/86/5
f 57/90/2 52/230/2 46/88/2
f 52/230/2 74/231/2 46/88/2
f 46/88/2 5/238/2 2/89/2
f 13/91/5 74/239/5 52/92/5
f 51/93/5 12/240/5 13/91/5
f 12/240/5 91/241/5 13/91/5
f 55/95/2 30/60/2 62/228/2
f 4/96/2 61/227/2 63/94/2
f 55/95/2 62/228/2 4/96/2
f 85/97/3 81/242/3 80/98/3
f 72/100/4 38/243/4 64/101/4
f 53/103/3 68/244/3 51/104/3
f 14/106/5 87/245/5 71/107/5
f 42/109/6 40/246/6 89/110/6
f 2/112/5 3/247/5 99/113/5
f 97/116/4 24/248/4 95/117/4
f 23/249/4 48/250/4 47/251/4
f 23/249/4 47/251/4 76/252/4
f 100/115/4 98/253/4 97/116/4
f 98/253/4 25/254/4 97/116/4
f 23/249/4 76/252/4 95/117/4
f 76/252/4 100/115/4 95/117/4
f 62/118/4 34/255/4 59/119/4
f 35/121/4 77/256/4 79/122/4
f 45/125/3 91/222/3 11/46/3
f 83/257/3 9/48/3 12/47/3
f 83/257/3 12/47/3 19/124/3
f 45/125/3 11/46/3 22/126/3
f 83/257/3 19/124/3 22/126/3
f 83/128/4 22/11/4 43/200/4
f 65/129/4 21/12/4 82/127/4
f 83/128/4 43/200/4 65/129/4
f 14/130/6 88/258/6 20/131/6
f 41/133/4 70/259/4 89/134/4
f 36/138/1 37/260/1 89/136/1
f 37/260/1 90/261/1 89/136/1
f 89/136/1 70/262/1 7/137/1
f 64/139/2 65/263/2 43/140/2
f 11/142/2 70/264/2 41/265/2
f 8/266/2 7/267/2 73/143/2
f 11/142/2 41/265/2 8/266/2
f 27/144/2 22/68/2 11/142/2
f 11/142/2 8/266/2 73/143/2
f 50/145/3 94/268/3 24/146/3
f 70/264/2 11/142/2 69/269/2
f 21/148/2 71/67/2 38/149/2
f 7/267/2 70/264/2 69/269/2
f 31/270/2 73/143/2 7/267/2
f 44/69/2 22/68/2 27/144/2
f 72/271/2 44/69/2 27/144/2
f 32/150/2 31/270/2 69/269/2
f 31/270/2 7/267/2 69/269/2
f 72/271/2 27/144/2 38/149/2
f 27/144/2 32/150/2 38/149/2
f 32/150/2 69/269/2 21/148/2
f 15/151/5 81/272/5 85/152/5
f 26/156/3 43/273/3 14/154/3
f 43/273/3 88/274/3 14/154/3
f 14/154/3 44/275/3 72/155/3
f 64/159/1 38/276/1 87/157/1
f 38/276/1 71/277/1 87/157/1
f 87/157/1 20/278/1 65/158/1
f 59/160/2 60/279/2 58/161/2
f 66/163/5 36/280/5 7/164/5
f 96/281/6 6/282/6 25/168/6
f 6/282/6 28/283/6 25/168/6
f 28/283/6 50/166/6 25/168/6
f 3/171/1 2/284/1 96/169/1
f 2/284/1 5/285/1 96/169/1
f 96/169/1 25/286/1 98/170/1
f 1/172/1 30/287/1 33/173/1
f 32/288/4 27/289/4 78/175/4
f 27/289/4 49/290/4 78/175/4
f 94/291/4 50/292/4 93/176/4
f 50/292/4 28/177/4 93/176/4
f 32/288/4 78/175/4 28/177/4
f 68/180/4 53/293/4 92/178/4
f 53/293/4 75/294/4 92/178/4
f 92/178/4 45/295/4 19/179/4
f 92/181/6 13/296/6 91/182/6
f 18/184/1 39/297/1 15/185/1
f 37/187/2 36/298/2 66/188/2
f 62/190/3 29/299/3 58/191/3
f 1/193/5 84/300/5 86/194/5
