# MagicaVoxel @ Ephtracy

# group
o 

# material
mtllib Fence-02.mtl
usemtl palette

# normals
vn -1 0 0
vn 1 0 0
vn 0 0 1
vn 0 0 -1
vn 0 -1 0
vn 0 1 0

# texcoords
vt 0.892578 0.5
vt 0.923828 0.5
vt 0.986328 0.5

# verts
v -4 0 0.3
v -4 0 -0.3
v -4 4 0.3
v -4 4 -0.3
v -0.3 0 0.3
v -0.3 0 -0.3
v -0.3 0.3 0.1
v -0.3 0.3 -0.1
v -0.3 1 0.1
v -0.3 1 -0.1
v -0.3 1.2 0.1
v -0.3 1.2 -0.1
v -0.3 1.9 0.1
v -0.3 1.9 -0.1
v -0.3 2.1 0.1
v -0.3 2.1 -0.1
v -0.3 2.8 0.1
v -0.3 2.8 -0.1
v -0.3 3 0.1
v -0.3 3 -0.1
v -0.3 3.7 0.1
v -0.3 3.7 -0.1
v -0.3 4 0.3
v -0.3 4 -0.3
v 3.4 0 0.3
v 3.4 0 -0.3
v 3.4 0.3 0.1
v 3.4 0.3 -0.1
v 3.4 1 0.1
v 3.4 1 -0.1
v 3.4 1.2 0.1
v 3.4 1.2 -0.1
v 3.4 1.9 0.1
v 3.4 1.9 -0.1
v 3.4 2.1 0.1
v 3.4 2.1 -0.1
v 3.4 2.8 0.1
v 3.4 2.8 -0.1
v 3.4 3 0.1
v 3.4 3 -0.1
v 3.4 3.7 0.1
v 3.4 3.7 -0.1
v 3.4 4 0.3
v 3.4 4 -0.3
v -3.4 0 0.3
v -3.4 0 -0.3
v -3.4 0.3 0.1
v -3.4 0.3 -0.1
v -3.4 1 0.1
v -3.4 1 -0.1
v -3.4 1.2 0.1
v -3.4 1.2 -0.1
v -3.4 1.9 0.1
v -3.4 1.9 -0.1
v -3.4 2.1 0.1
v -3.4 2.1 -0.1
v -3.4 2.8 0.1
v -3.4 2.8 -0.1
v -3.4 3 0.1
v -3.4 3 -0.1
v -3.4 3.7 0.1
v -3.4 3.7 -0.1
v -3.4 4 0.3
v -3.4 4 -0.3
v 0.3 0 0.3
v 0.3 0 -0.3
v 0.3 0.3 0.1
v 0.3 0.3 -0.1
v 0.3 1 0.1
v 0.3 1 -0.1
v 0.3 1.2 0.1
v 0.3 1.2 -0.1
v 0.3 1.9 0.1
v 0.3 1.9 -0.1
v 0.3 2.1 0.1
v 0.3 2.1 -0.1
v 0.3 2.8 0.1
v 0.3 2.8 -0.1
v 0.3 3 0.1
v 0.3 3 -0.1
v 0.3 3.7 0.1
v 0.3 3.7 -0.1
v 0.3 4 0.3
v 0.3 4 -0.3
v 4 0 0.3
v 4 0 -0.3
v 4 4 0.3
v 4 4 -0.3
v -4 0 0.3
v -4 4 0.3
v -3.4 0 0.3
v -3.4 4 0.3
v -0.3 0 0.3
v -0.3 4 0.3
v 0.3 0 0.3
v 0.3 4 0.3
v 3.4 0 0.3
v 3.4 4 0.3
v 4 0 0.3
v 4 4 0.3
v -3.4 0.3 0.1
v -3.4 1 0.1
v -3.4 1.2 0.1
v -3.4 1.9 0.1
v -3.4 2.1 0.1
v -3.4 2.8 0.1
v -3.4 3 0.1
v -3.4 3.7 0.1
v -3.3 0.6 0.1
v -3.3 0.7 0.1
v -3.3 1.5 0.1
v -3.3 1.6 0.1
v -3.3 2.4 0.1
v -3.3 2.5 0.1
v -3.3 3.3 0.1
v -3.3 3.4 0.1
v -3.2 0.6 0.1
v -3.2 0.7 0.1
v -3.2 1.5 0.1
v -3.2 1.6 0.1
v -3.2 2.4 0.1
v -3.2 2.5 0.1
v -3.2 3.3 0.1
v -3.2 3.4 0.1
v -0.5 0.6 0.1
v -0.5 0.7 0.1
v -0.5 1.5 0.1
v -0.5 1.6 0.1
v -0.5 2.4 0.1
v -0.5 2.5 0.1
v -0.5 3.3 0.1
v -0.5 3.4 0.1
v -0.4 0.6 0.1
v -0.4 0.7 0.1
v -0.4 1.5 0.1
v -0.4 1.6 0.1
v -0.4 2.4 0.1
v -0.4 2.5 0.1
v -0.4 3.3 0.1
v -0.4 3.4 0.1
v -0.3 0.3 0.1
v -0.3 1 0.1
v -0.3 1.2 0.1
v -0.3 1.9 0.1
v -0.3 2.1 0.1
v -0.3 2.8 0.1
v -0.3 3 0.1
v -0.3 3.7 0.1
v 0.3 0.3 0.1
v 0.3 1 0.1
v 0.3 1.2 0.1
v 0.3 1.9 0.1
v 0.3 2.1 0.1
v 0.3 2.8 0.1
v 0.3 3 0.1
v 0.3 3.7 0.1
v 0.4 0.6 0.1
v 0.4 0.7 0.1
v 0.4 1.5 0.1
v 0.4 1.6 0.1
v 0.4 2.4 0.1
v 0.4 2.5 0.1
v 0.4 3.3 0.1
v 0.4 3.4 0.1
v 0.5 0.6 0.1
v 0.5 0.7 0.1
v 0.5 1.5 0.1
v 0.5 1.6 0.1
v 0.5 2.4 0.1
v 0.5 2.5 0.1
v 0.5 3.3 0.1
v 0.5 3.4 0.1
v 3.2 0.6 0.1
v 3.2 0.7 0.1
v 3.2 1.5 0.1
v 3.2 1.6 0.1
v 3.2 2.4 0.1
v 3.2 2.5 0.1
v 3.2 3.3 0.1
v 3.2 3.4 0.1
v 3.3 0.6 0.1
v 3.3 0.7 0.1
v 3.3 1.5 0.1
v 3.3 1.6 0.1
v 3.3 2.4 0.1
v 3.3 2.5 0.1
v 3.3 3.3 0.1
v 3.3 3.4 0.1
v 3.4 0.3 0.1
v 3.4 1 0.1
v 3.4 1.2 0.1
v 3.4 1.9 0.1
v 3.4 2.1 0.1
v 3.4 2.8 0.1
v 3.4 3 0.1
v 3.4 3.7 0.1
v -3.4 0.3 -0.1
v -3.4 1 -0.1
v -3.4 1.2 -0.1
v -3.4 1.9 -0.1
v -3.4 2.1 -0.1
v -3.4 2.8 -0.1
v -3.4 3 -0.1
v -3.4 3.7 -0.1
v -3.3 0.6 -0.1
v -3.3 0.7 -0.1
v -3.3 1.5 -0.1
v -3.3 1.6 -0.1
v -3.3 2.4 -0.1
v -3.3 2.5 -0.1
v -3.3 3.3 -0.1
v -3.3 3.4 -0.1
v -3.2 0.6 -0.1
v -3.2 0.7 -0.1
v -3.2 1.5 -0.1
v -3.2 1.6 -0.1
v -3.2 2.4 -0.1
v -3.2 2.5 -0.1
v -3.2 3.3 -0.1
v -3.2 3.4 -0.1
v -0.5 0.6 -0.1
v -0.5 0.7 -0.1
v -0.5 1.5 -0.1
v -0.5 1.6 -0.1
v -0.5 2.4 -0.1
v -0.5 2.5 -0.1
v -0.5 3.3 -0.1
v -0.5 3.4 -0.1
v -0.4 0.6 -0.1
v -0.4 0.7 -0.1
v -0.4 1.5 -0.1
v -0.4 1.6 -0.1
v -0.4 2.4 -0.1
v -0.4 2.5 -0.1
v -0.4 3.3 -0.1
v -0.4 3.4 -0.1
v -0.3 0.3 -0.1
v -0.3 1 -0.1
v -0.3 1.2 -0.1
v -0.3 1.9 -0.1
v -0.3 2.1 -0.1
v -0.3 2.8 -0.1
v -0.3 3 -0.1
v -0.3 3.7 -0.1
v 0.3 0.3 -0.1
v 0.3 1 -0.1
v 0.3 1.2 -0.1
v 0.3 1.9 -0.1
v 0.3 2.1 -0.1
v 0.3 2.8 -0.1
v 0.3 3 -0.1
v 0.3 3.7 -0.1
v 0.4 0.6 -0.1
v 0.4 0.7 -0.1
v 0.4 1.5 -0.1
v 0.4 1.6 -0.1
v 0.4 2.4 -0.1
v 0.4 2.5 -0.1
v 0.4 3.3 -0.1
v 0.4 3.4 -0.1
v 0.5 0.6 -0.1
v 0.5 0.7 -0.1
v 0.5 1.5 -0.1
v 0.5 1.6 -0.1
v 0.5 2.4 -0.1
v 0.5 2.5 -0.1
v 0.5 3.3 -0.1
v 0.5 3.4 -0.1
v 3.2 0.6 -0.1
v 3.2 0.7 -0.1
v 3.2 1.5 -0.1
v 3.2 1.6 -0.1
v 3.2 2.4 -0.1
v 3.2 2.5 -0.1
v 3.2 3.3 -0.1
v 3.2 3.4 -0.1
v 3.3 0.6 -0.1
v 3.3 0.7 -0.1
v 3.3 1.5 -0.1
v 3.3 1.6 -0.1
v 3.3 2.4 -0.1
v 3.3 2.5 -0.1
v 3.3 3.3 -0.1
v 3.3 3.4 -0.1
v 3.4 0.3 -0.1
v 3.4 1 -0.1
v 3.4 1.2 -0.1
v 3.4 1.9 -0.1
v 3.4 2.1 -0.1
v 3.4 2.8 -0.1
v 3.4 3 -0.1
v 3.4 3.7 -0.1
v -4 0 -0.3
v -4 4 -0.3
v -3.4 0 -0.3
v -3.4 4 -0.3
v -0.3 0 -0.3
v -0.3 4 -0.3
v 0.3 0 -0.3
v 0.3 4 -0.3
v 3.4 0 -0.3
v 3.4 4 -0.3
v 4 0 -0.3
v 4 4 -0.3
v -4 0 0.3
v -3.4 0 0.3
v -0.3 0 0.3
v 0.3 0 0.3
v 3.4 0 0.3
v 4 0 0.3
v -4 0 -0.3
v -3.4 0 -0.3
v -0.3 0 -0.3
v 0.3 0 -0.3
v 3.4 0 -0.3
v 4 0 -0.3
v -3.4 0.3 0.1
v -0.3 0.3 0.1
v 0.3 0.3 0.1
v 3.4 0.3 0.1
v -3.4 0.3 -0.1
v -0.3 0.3 -0.1
v 0.3 0.3 -0.1
v 3.4 0.3 -0.1
v -3.4 1.2 0.1
v -0.3 1.2 0.1
v 0.3 1.2 0.1
v 3.4 1.2 0.1
v -3.4 1.2 -0.1
v -0.3 1.2 -0.1
v 0.3 1.2 -0.1
v 3.4 1.2 -0.1
v -3.4 2.1 0.1
v -0.3 2.1 0.1
v 0.3 2.1 0.1
v 3.4 2.1 0.1
v -3.4 2.1 -0.1
v -0.3 2.1 -0.1
v 0.3 2.1 -0.1
v 3.4 2.1 -0.1
v -3.4 3 0.1
v -0.3 3 0.1
v 0.3 3 0.1
v 3.4 3 0.1
v -3.4 3 -0.1
v -0.3 3 -0.1
v 0.3 3 -0.1
v 3.4 3 -0.1
v -3.4 1 0.1
v -0.3 1 0.1
v 0.3 1 0.1
v 3.4 1 0.1
v -3.4 1 -0.1
v -0.3 1 -0.1
v 0.3 1 -0.1
v 3.4 1 -0.1
v -3.4 1.9 0.1
v -0.3 1.9 0.1
v 0.3 1.9 0.1
v 3.4 1.9 0.1
v -3.4 1.9 -0.1
v -0.3 1.9 -0.1
v 0.3 1.9 -0.1
v 3.4 1.9 -0.1
v -3.4 2.8 0.1
v -0.3 2.8 0.1
v 0.3 2.8 0.1
v 3.4 2.8 0.1
v -3.4 2.8 -0.1
v -0.3 2.8 -0.1
v 0.3 2.8 -0.1
v 3.4 2.8 -0.1
v -3.4 3.7 0.1
v -0.3 3.7 0.1
v 0.3 3.7 0.1
v 3.4 3.7 0.1
v -3.4 3.7 -0.1
v -0.3 3.7 -0.1
v 0.3 3.7 -0.1
v 3.4 3.7 -0.1
v -4 4 0.3
v -3.4 4 0.3
v -0.3 4 0.3
v 0.3 4 0.3
v 3.4 4 0.3
v 4 4 0.3
v -4 4 -0.3
v -3.4 4 -0.3
v -0.3 4 -0.3
v 0.3 4 -0.3
v 3.4 4 -0.3
v 4 4 -0.3

# faces
f 3/2/1 2/2/1 1/2/1
f 4/2/1 2/2/1 3/2/1
f 7/2/1 6/2/1 5/2/1
f 8/2/1 6/2/1 7/2/1
f 9/2/1 7/2/1 5/2/1
f 10/2/1 6/2/1 8/2/1
f 11/2/1 9/2/1 5/2/1
f 11/2/1 10/2/1 9/2/1
f 12/2/1 6/2/1 10/2/1
f 12/2/1 10/2/1 11/2/1
f 13/2/1 11/2/1 5/2/1
f 14/2/1 6/2/1 12/2/1
f 15/2/1 13/2/1 5/2/1
f 15/2/1 14/2/1 13/2/1
f 16/2/1 6/2/1 14/2/1
f 16/2/1 14/2/1 15/2/1
f 17/2/1 15/2/1 5/2/1
f 18/2/1 6/2/1 16/2/1
f 19/2/1 17/2/1 5/2/1
f 19/2/1 18/2/1 17/2/1
f 20/2/1 6/2/1 18/2/1
f 20/2/1 18/2/1 19/2/1
f 21/2/1 19/2/1 5/2/1
f 22/2/1 6/2/1 20/2/1
f 23/2/1 21/2/1 5/2/1
f 23/2/1 22/2/1 21/2/1
f 24/2/1 6/2/1 22/2/1
f 24/2/1 22/2/1 23/2/1
f 27/2/1 26/2/1 25/2/1
f 28/2/1 26/2/1 27/2/1
f 29/2/1 27/2/1 25/2/1
f 30/2/1 26/2/1 28/2/1
f 31/2/1 29/2/1 25/2/1
f 31/2/1 30/2/1 29/2/1
f 32/2/1 26/2/1 30/2/1
f 32/2/1 30/2/1 31/2/1
f 33/2/1 31/2/1 25/2/1
f 34/2/1 26/2/1 32/2/1
f 35/2/1 33/2/1 25/2/1
f 35/2/1 34/2/1 33/2/1
f 36/2/1 26/2/1 34/2/1
f 36/2/1 34/2/1 35/2/1
f 37/2/1 35/2/1 25/2/1
f 38/2/1 26/2/1 36/2/1
f 39/2/1 37/2/1 25/2/1
f 39/2/1 38/2/1 37/2/1
f 40/2/1 26/2/1 38/2/1
f 40/2/1 38/2/1 39/2/1
f 41/2/1 39/2/1 25/2/1
f 42/2/1 26/2/1 40/2/1
f 43/2/1 41/2/1 25/2/1
f 43/2/1 42/2/1 41/2/1
f 44/2/1 26/2/1 42/2/1
f 44/2/1 42/2/1 43/2/1
f 45/2/2 46/2/2 47/2/2
f 47/2/2 46/2/2 48/2/2
f 45/2/2 47/2/2 49/2/2
f 48/2/2 46/2/2 50/2/2
f 45/2/2 49/2/2 51/2/2
f 49/2/2 50/2/2 51/2/2
f 50/2/2 46/2/2 52/2/2
f 51/2/2 50/2/2 52/2/2
f 45/2/2 51/2/2 53/2/2
f 52/2/2 46/2/2 54/2/2
f 45/2/2 53/2/2 55/2/2
f 53/2/2 54/2/2 55/2/2
f 54/2/2 46/2/2 56/2/2
f 55/2/2 54/2/2 56/2/2
f 45/2/2 55/2/2 57/2/2
f 56/2/2 46/2/2 58/2/2
f 45/2/2 57/2/2 59/2/2
f 57/2/2 58/2/2 59/2/2
f 58/2/2 46/2/2 60/2/2
f 59/2/2 58/2/2 60/2/2
f 45/2/2 59/2/2 61/2/2
f 60/2/2 46/2/2 62/2/2
f 45/2/2 61/2/2 63/2/2
f 61/2/2 62/2/2 63/2/2
f 62/2/2 46/2/2 64/2/2
f 63/2/2 62/2/2 64/2/2
f 65/2/2 66/2/2 67/2/2
f 67/2/2 66/2/2 68/2/2
f 65/2/2 67/2/2 69/2/2
f 68/2/2 66/2/2 70/2/2
f 65/2/2 69/2/2 71/2/2
f 69/2/2 70/2/2 71/2/2
f 70/2/2 66/2/2 72/2/2
f 71/2/2 70/2/2 72/2/2
f 65/2/2 71/2/2 73/2/2
f 72/2/2 66/2/2 74/2/2
f 65/2/2 73/2/2 75/2/2
f 73/2/2 74/2/2 75/2/2
f 74/2/2 66/2/2 76/2/2
f 75/2/2 74/2/2 76/2/2
f 65/2/2 75/2/2 77/2/2
f 76/2/2 66/2/2 78/2/2
f 65/2/2 77/2/2 79/2/2
f 77/2/2 78/2/2 79/2/2
f 78/2/2 66/2/2 80/2/2
f 79/2/2 78/2/2 80/2/2
f 65/2/2 79/2/2 81/2/2
f 80/2/2 66/2/2 82/2/2
f 65/2/2 81/2/2 83/2/2
f 81/2/2 82/2/2 83/2/2
f 82/2/2 66/2/2 84/2/2
f 83/2/2 82/2/2 84/2/2
f 85/2/2 86/2/2 87/2/2
f 87/2/2 86/2/2 88/2/2
f 91/2/3 90/2/3 89/2/3
f 92/2/3 90/2/3 91/2/3
f 95/2/3 94/2/3 93/2/3
f 96/2/3 94/2/3 95/2/3
f 99/2/3 98/2/3 97/2/3
f 100/2/3 98/2/3 99/2/3
f 109/3/3 102/3/3 101/3/3
f 110/3/3 102/3/3 109/3/3
f 111/3/3 104/3/3 103/3/3
f 112/3/3 104/3/3 111/3/3
f 113/3/3 106/3/3 105/3/3
f 114/3/3 106/3/3 113/3/3
f 115/3/3 108/3/3 107/3/3
f 116/3/3 108/3/3 115/3/3
f 117/3/3 109/3/3 101/3/3
f 117/1/3 110/1/3 109/1/3
f 118/3/3 102/3/3 110/3/3
f 118/1/3 110/1/3 117/1/3
f 119/3/3 111/3/3 103/3/3
f 119/1/3 112/1/3 111/1/3
f 120/3/3 104/3/3 112/3/3
f 120/1/3 112/1/3 119/1/3
f 121/3/3 113/3/3 105/3/3
f 121/1/3 114/1/3 113/1/3
f 122/3/3 106/3/3 114/3/3
f 122/1/3 114/1/3 121/1/3
f 123/1/3 116/1/3 115/1/3
f 123/3/3 115/3/3 107/3/3
f 124/3/3 108/3/3 116/3/3
f 124/1/3 116/1/3 123/1/3
f 125/3/3 117/3/3 101/3/3
f 125/3/3 118/3/3 117/3/3
f 126/3/3 102/3/3 118/3/3
f 126/3/3 118/3/3 125/3/3
f 127/3/3 119/3/3 103/3/3
f 127/3/3 120/3/3 119/3/3
f 128/3/3 104/3/3 120/3/3
f 128/3/3 120/3/3 127/3/3
f 129/3/3 121/3/3 105/3/3
f 129/3/3 122/3/3 121/3/3
f 130/3/3 106/3/3 122/3/3
f 130/3/3 122/3/3 129/3/3
f 131/3/3 123/3/3 107/3/3
f 131/3/3 124/3/3 123/3/3
f 132/3/3 108/3/3 124/3/3
f 132/3/3 124/3/3 131/3/3
f 133/3/3 125/3/3 101/3/3
f 133/1/3 126/1/3 125/1/3
f 134/3/3 102/3/3 126/3/3
f 134/1/3 126/1/3 133/1/3
f 135/3/3 127/3/3 103/3/3
f 135/1/3 128/1/3 127/1/3
f 136/3/3 104/3/3 128/3/3
f 136/1/3 128/1/3 135/1/3
f 137/3/3 129/3/3 105/3/3
f 137/1/3 130/1/3 129/1/3
f 138/3/3 106/3/3 130/3/3
f 138/1/3 130/1/3 137/1/3
f 139/3/3 131/3/3 107/3/3
f 139/1/3 132/1/3 131/1/3
f 140/3/3 108/3/3 132/3/3
f 140/1/3 132/1/3 139/1/3
f 141/3/3 133/3/3 101/3/3
f 141/3/3 134/3/3 133/3/3
f 142/3/3 102/3/3 134/3/3
f 142/3/3 134/3/3 141/3/3
f 143/3/3 135/3/3 103/3/3
f 143/3/3 136/3/3 135/3/3
f 144/3/3 104/3/3 136/3/3
f 144/3/3 136/3/3 143/3/3
f 145/3/3 137/3/3 105/3/3
f 145/3/3 138/3/3 137/3/3
f 146/3/3 106/3/3 138/3/3
f 146/3/3 138/3/3 145/3/3
f 147/3/3 139/3/3 107/3/3
f 147/3/3 140/3/3 139/3/3
f 148/3/3 108/3/3 140/3/3
f 148/3/3 140/3/3 147/3/3
f 157/3/3 150/3/3 149/3/3
f 158/3/3 150/3/3 157/3/3
f 159/3/3 152/3/3 151/3/3
f 160/3/3 152/3/3 159/3/3
f 161/3/3 154/3/3 153/3/3
f 162/3/3 154/3/3 161/3/3
f 163/3/3 156/3/3 155/3/3
f 164/3/3 156/3/3 163/3/3
f 165/3/3 157/3/3 149/3/3
f 165/1/3 158/1/3 157/1/3
f 166/3/3 150/3/3 158/3/3
f 166/1/3 158/1/3 165/1/3
f 167/3/3 159/3/3 151/3/3
f 167/1/3 160/1/3 159/1/3
f 168/3/3 152/3/3 160/3/3
f 168/1/3 160/1/3 167/1/3
f 169/3/3 161/3/3 153/3/3
f 169/1/3 162/1/3 161/1/3
f 170/3/3 154/3/3 162/3/3
f 170/1/3 162/1/3 169/1/3
f 171/1/3 164/1/3 163/1/3
f 171/3/3 163/3/3 155/3/3
f 172/3/3 156/3/3 164/3/3
f 172/1/3 164/1/3 171/1/3
f 173/3/3 165/3/3 149/3/3
f 173/3/3 166/3/3 165/3/3
f 174/3/3 150/3/3 166/3/3
f 174/3/3 166/3/3 173/3/3
f 175/3/3 167/3/3 151/3/3
f 175/3/3 168/3/3 167/3/3
f 176/3/3 152/3/3 168/3/3
f 176/3/3 168/3/3 175/3/3
f 177/3/3 169/3/3 153/3/3
f 177/3/3 170/3/3 169/3/3
f 178/3/3 154/3/3 170/3/3
f 178/3/3 170/3/3 177/3/3
f 179/3/3 171/3/3 155/3/3
f 179/3/3 172/3/3 171/3/3
f 180/3/3 156/3/3 172/3/3
f 180/3/3 172/3/3 179/3/3
f 181/3/3 173/3/3 149/3/3
f 181/1/3 174/1/3 173/1/3
f 182/3/3 150/3/3 174/3/3
f 182/1/3 174/1/3 181/1/3
f 183/3/3 175/3/3 151/3/3
f 183/1/3 176/1/3 175/1/3
f 184/3/3 152/3/3 176/3/3
f 184/1/3 176/1/3 183/1/3
f 185/3/3 177/3/3 153/3/3
f 185/1/3 178/1/3 177/1/3
f 186/3/3 154/3/3 178/3/3
f 186/1/3 178/1/3 185/1/3
f 187/3/3 179/3/3 155/3/3
f 187/1/3 180/1/3 179/1/3
f 188/3/3 156/3/3 180/3/3
f 188/1/3 180/1/3 187/1/3
f 189/3/3 181/3/3 149/3/3
f 189/3/3 182/3/3 181/3/3
f 190/3/3 150/3/3 182/3/3
f 190/3/3 182/3/3 189/3/3
f 191/3/3 183/3/3 151/3/3
f 191/3/3 184/3/3 183/3/3
f 192/3/3 152/3/3 184/3/3
f 192/3/3 184/3/3 191/3/3
f 193/3/3 185/3/3 153/3/3
f 193/3/3 186/3/3 185/3/3
f 194/3/3 154/3/3 186/3/3
f 194/3/3 186/3/3 193/3/3
f 195/3/3 187/3/3 155/3/3
f 195/3/3 188/3/3 187/3/3
f 196/3/3 156/3/3 188/3/3
f 196/3/3 188/3/3 195/3/3
f 197/3/4 198/3/4 205/3/4
f 205/3/4 198/3/4 206/3/4
f 199/3/4 200/3/4 207/3/4
f 207/3/4 200/3/4 208/3/4
f 201/3/4 202/3/4 209/3/4
f 209/3/4 202/3/4 210/3/4
f 203/3/4 204/3/4 211/3/4
f 211/3/4 204/3/4 212/3/4
f 197/3/4 205/3/4 213/3/4
f 205/1/4 206/1/4 213/1/4
f 206/3/4 198/3/4 214/3/4
f 213/1/4 206/1/4 214/1/4
f 199/3/4 207/3/4 215/3/4
f 207/1/4 208/1/4 215/1/4
f 208/3/4 200/3/4 216/3/4
f 215/1/4 208/1/4 216/1/4
f 201/3/4 209/3/4 217/3/4
f 209/1/4 210/1/4 217/1/4
f 210/3/4 202/3/4 218/3/4
f 217/1/4 210/1/4 218/1/4
f 211/1/4 212/1/4 219/1/4
f 203/3/4 211/3/4 219/3/4
f 212/3/4 204/3/4 220/3/4
f 219/1/4 212/1/4 220/1/4
f 197/3/4 213/3/4 221/3/4
f 213/3/4 214/3/4 221/3/4
f 214/3/4 198/3/4 222/3/4
f 221/3/4 214/3/4 222/3/4
f 199/3/4 215/3/4 223/3/4
f 215/3/4 216/3/4 223/3/4
f 216/3/4 200/3/4 224/3/4
f 223/3/4 216/3/4 224/3/4
f 201/3/4 217/3/4 225/3/4
f 217/3/4 218/3/4 225/3/4
f 218/3/4 202/3/4 226/3/4
f 225/3/4 218/3/4 226/3/4
f 203/3/4 219/3/4 227/3/4
f 219/3/4 220/3/4 227/3/4
f 220/3/4 204/3/4 228/3/4
f 227/3/4 220/3/4 228/3/4
f 197/3/4 221/3/4 229/3/4
f 221/1/4 222/1/4 229/1/4
f 222/3/4 198/3/4 230/3/4
f 229/1/4 222/1/4 230/1/4
f 199/3/4 223/3/4 231/3/4
f 223/1/4 224/1/4 231/1/4
f 224/3/4 200/3/4 232/3/4
f 231/1/4 224/1/4 232/1/4
f 201/3/4 225/3/4 233/3/4
f 225/1/4 226/1/4 233/1/4
f 226/3/4 202/3/4 234/3/4
f 233/1/4 226/1/4 234/1/4
f 203/3/4 227/3/4 235/3/4
f 227/1/4 228/1/4 235/1/4
f 228/3/4 204/3/4 236/3/4
f 235/1/4 228/1/4 236/1/4
f 197/3/4 229/3/4 237/3/4
f 229/3/4 230/3/4 237/3/4
f 230/3/4 198/3/4 238/3/4
f 237/3/4 230/3/4 238/3/4
f 199/3/4 231/3/4 239/3/4
f 231/3/4 232/3/4 239/3/4
f 232/3/4 200/3/4 240/3/4
f 239/3/4 232/3/4 240/3/4
f 201/3/4 233/3/4 241/3/4
f 233/3/4 234/3/4 241/3/4
f 234/3/4 202/3/4 242/3/4
f 241/3/4 234/3/4 242/3/4
f 203/3/4 235/3/4 243/3/4
f 235/3/4 236/3/4 243/3/4
f 236/3/4 204/3/4 244/3/4
f 243/3/4 236/3/4 244/3/4
f 245/3/4 246/3/4 253/3/4
f 253/3/4 246/3/4 254/3/4
f 247/3/4 248/3/4 255/3/4
f 255/3/4 248/3/4 256/3/4
f 249/3/4 250/3/4 257/3/4
f 257/3/4 250/3/4 258/3/4
f 251/3/4 252/3/4 259/3/4
f 259/3/4 252/3/4 260/3/4
f 245/3/4 253/3/4 261/3/4
f 253/1/4 254/1/4 261/1/4
f 254/3/4 246/3/4 262/3/4
f 261/1/4 254/1/4 262/1/4
f 247/3/4 255/3/4 263/3/4
f 255/1/4 256/1/4 263/1/4
f 256/3/4 248/3/4 264/3/4
f 263/1/4 256/1/4 264/1/4
f 249/3/4 257/3/4 265/3/4
f 257/1/4 258/1/4 265/1/4
f 258/3/4 250/3/4 266/3/4
f 265/1/4 258/1/4 266/1/4
f 259/1/4 260/1/4 267/1/4
f 251/3/4 259/3/4 267/3/4
f 260/3/4 252/3/4 268/3/4
f 267/1/4 260/1/4 268/1/4
f 245/3/4 261/3/4 269/3/4
f 261/3/4 262/3/4 269/3/4
f 262/3/4 246/3/4 270/3/4
f 269/3/4 262/3/4 270/3/4
f 247/3/4 263/3/4 271/3/4
f 263/3/4 264/3/4 271/3/4
f 264/3/4 248/3/4 272/3/4
f 271/3/4 264/3/4 272/3/4
f 249/3/4 265/3/4 273/3/4
f 265/3/4 266/3/4 273/3/4
f 266/3/4 250/3/4 274/3/4
f 273/3/4 266/3/4 274/3/4
f 251/3/4 267/3/4 275/3/4
f 267/3/4 268/3/4 275/3/4
f 268/3/4 252/3/4 276/3/4
f 275/3/4 268/3/4 276/3/4
f 245/3/4 269/3/4 277/3/4
f 269/1/4 270/1/4 277/1/4
f 270/3/4 246/3/4 278/3/4
f 277/1/4 270/1/4 278/1/4
f 247/3/4 271/3/4 279/3/4
f 271/1/4 272/1/4 279/1/4
f 272/3/4 248/3/4 280/3/4
f 279/1/4 272/1/4 280/1/4
f 249/3/4 273/3/4 281/3/4
f 273/1/4 274/1/4 281/1/4
f 274/3/4 250/3/4 282/3/4
f 281/1/4 274/1/4 282/1/4
f 251/3/4 275/3/4 283/3/4
f 275/1/4 276/1/4 283/1/4
f 276/3/4 252/3/4 284/3/4
f 283/1/4 276/1/4 284/1/4
f 245/3/4 277/3/4 285/3/4
f 277/3/4 278/3/4 285/3/4
f 278/3/4 246/3/4 286/3/4
f 285/3/4 278/3/4 286/3/4
f 247/3/4 279/3/4 287/3/4
f 279/3/4 280/3/4 287/3/4
f 280/3/4 248/3/4 288/3/4
f 287/3/4 280/3/4 288/3/4
f 249/3/4 281/3/4 289/3/4
f 281/3/4 282/3/4 289/3/4
f 282/3/4 250/3/4 290/3/4
f 289/3/4 282/3/4 290/3/4
f 251/3/4 283/3/4 291/3/4
f 283/3/4 284/3/4 291/3/4
f 284/3/4 252/3/4 292/3/4
f 291/3/4 284/3/4 292/3/4
f 293/2/4 294/2/4 295/2/4
f 295/2/4 294/2/4 296/2/4
f 297/2/4 298/2/4 299/2/4
f 299/2/4 298/2/4 300/2/4
f 301/2/4 302/2/4 303/2/4
f 303/2/4 302/2/4 304/2/4
f 311/2/5 306/2/5 305/2/5
f 312/2/5 306/2/5 311/2/5
f 313/2/5 308/2/5 307/2/5
f 314/2/5 308/2/5 313/2/5
f 315/2/5 310/2/5 309/2/5
f 316/2/5 310/2/5 315/2/5
f 321/3/5 318/3/5 317/3/5
f 322/3/5 318/3/5 321/3/5
f 323/3/5 320/3/5 319/3/5
f 324/3/5 320/3/5 323/3/5
f 329/3/5 326/3/5 325/3/5
f 330/3/5 326/3/5 329/3/5
f 331/3/5 328/3/5 327/3/5
f 332/3/5 328/3/5 331/3/5
f 337/3/5 334/3/5 333/3/5
f 338/3/5 334/3/5 337/3/5
f 339/3/5 336/3/5 335/3/5
f 340/3/5 336/3/5 339/3/5
f 345/3/5 342/3/5 341/3/5
f 346/3/5 342/3/5 345/3/5
f 347/3/5 344/3/5 343/3/5
f 348/3/5 344/3/5 347/3/5
f 349/3/6 350/3/6 353/3/6
f 353/3/6 350/3/6 354/3/6
f 351/3/6 352/3/6 355/3/6
f 355/3/6 352/3/6 356/3/6
f 357/3/6 358/3/6 361/3/6
f 361/3/6 358/3/6 362/3/6
f 359/3/6 360/3/6 363/3/6
f 363/3/6 360/3/6 364/3/6
f 365/3/6 366/3/6 369/3/6
f 369/3/6 366/3/6 370/3/6
f 367/3/6 368/3/6 371/3/6
f 371/3/6 368/3/6 372/3/6
f 373/3/6 374/3/6 377/3/6
f 377/3/6 374/3/6 378/3/6
f 375/3/6 376/3/6 379/3/6
f 379/3/6 376/3/6 380/3/6
f 381/2/6 382/2/6 387/2/6
f 387/2/6 382/2/6 388/2/6
f 383/2/6 384/2/6 389/2/6
f 389/2/6 384/2/6 390/2/6
f 385/2/6 386/2/6 391/2/6
f 391/2/6 386/2/6 392/2/6
