# MagicaVoxel @ Ephtracy

# group
o 

# material
mtllib pattern.mtl
usemtl palette

# normals
vn -1 0 0
vn 1 0 0
vn 0 0 1
vn 0 0 -1
vn 0 -1 0
vn 0 1 0

# texcoords
vt 0.978516 0.5
vt 0.982422 0.5
vt 0.986328 0.5
vt 0.990234 0.5
vt 0.994141 0.5

# verts
v -0.5 0 0.5
v -0.5 0 0.4
v -0.5 0 0.2
v -0.5 0 -0.2
v -0.5 0 -0.5
v -0.5 0.1 0.5
v -0.5 0.1 0.4
v -0.5 0.1 0.2
v -0.5 0.1 -0.2
v -0.5 0.1 -0.5
v 0.5 0 0.5
v 0.5 0 -0.5
v 0.5 0.1 0.5
v 0.5 0.1 -0.5
v -0.5 0 0.5
v -0.5 0.1 0.5
v 0.2 0 0.5
v 0.2 0.1 0.5
v 0.3 0 0.5
v 0.3 0.1 0.5
v 0.5 0 0.5
v 0.5 0.1 0.5
v -0.5 0 -0.5
v -0.5 0.1 -0.5
v -0.2 0 -0.5
v -0.2 0.1 -0.5
v 0.5 0 -0.5
v 0.5 0.1 -0.5
v -0.5 0 0.5
v 0.2 0 0.5
v 0.3 0 0.5
v 0.5 0 0.5
v -0.5 0 0.4
v -0.2 0 0.4
v 0.2 0 0.3
v 0.3 0 0.3
v -0.5 0 0.2
v -0.2 0 0.2
v 0.1 0 0.1
v 0.3 0 0.1
v 0 0 0
v 0.1 0 0
v 0.3 0 0
v 0.4 0 0
v 0 0 -0.1
v 0.1 0 -0.1
v -0.5 0 -0.2
v -0.2 0 -0.2
v 0.1 0 -0.2
v 0.2 0 -0.2
v 0.3 0 -0.2
v 0.4 0 -0.2
v 0.2 0 -0.3
v 0.3 0 -0.3
v -0.5 0 -0.5
v -0.2 0 -0.5
v 0.5 0 -0.5
v -0.5 0.1 0.5
v 0.2 0.1 0.5
v 0.3 0.1 0.5
v 0.5 0.1 0.5
v -0.5 0.1 0.4
v -0.2 0.1 0.4
v 0.2 0.1 0.3
v 0.3 0.1 0.3
v -0.5 0.1 0.2
v -0.2 0.1 0.2
v 0.1 0.1 0.1
v 0.3 0.1 0.1
v 0 0.1 0
v 0.1 0.1 0
v 0.3 0.1 0
v 0.4 0.1 0
v 0 0.1 -0.1
v 0.1 0.1 -0.1
v -0.5 0.1 -0.2
v -0.2 0.1 -0.2
v 0.1 0.1 -0.2
v 0.2 0.1 -0.2
v 0.3 0.1 -0.2
v 0.4 0.1 -0.2
v 0.2 0.1 -0.3
v 0.3 0.1 -0.3
v -0.5 0.1 -0.5
v -0.2 0.1 -0.5
v 0.5 0.1 -0.5

# faces
f 6/3/1 2/3/1 1/3/1
f 7/2/1 3/2/1 2/2/1
f 7/3/1 2/3/1 6/3/1
f 8/3/1 4/3/1 3/3/1
f 8/2/1 3/2/1 7/2/1
f 9/1/1 5/1/1 4/1/1
f 9/3/1 4/3/1 8/3/1
f 10/1/1 5/1/1 9/1/1
f 11/3/2 12/3/2 13/3/2
f 13/3/2 12/3/2 14/3/2
f 17/3/3 16/3/3 15/3/3
f 18/3/3 16/3/3 17/3/3
f 19/4/3 18/4/3 17/4/3
f 20/4/3 18/4/3 19/4/3
f 21/3/3 20/3/3 19/3/3
f 22/3/3 20/3/3 21/3/3
f 23/1/4 24/1/4 25/1/4
f 25/1/4 24/1/4 26/1/4
f 25/3/4 26/3/4 27/3/4
f 27/3/4 26/3/4 28/3/4
f 33/3/5 30/3/5 29/3/5
f 34/3/5 30/3/5 33/3/5
f 35/4/5 31/4/5 30/4/5
f 35/3/5 30/3/5 34/3/5
f 36/3/5 32/3/5 31/3/5
f 36/4/5 31/4/5 35/4/5
f 37/2/5 34/2/5 33/2/5
f 38/3/5 35/3/5 34/3/5
f 38/2/5 34/2/5 37/2/5
f 38/3/5 36/3/5 35/3/5
f 39/3/5 38/3/5 37/3/5
f 39/3/5 36/3/5 38/3/5
f 40/3/5 32/3/5 36/3/5
f 40/3/5 36/3/5 39/3/5
f 41/3/5 39/3/5 37/3/5
f 42/5/5 40/5/5 39/5/5
f 42/3/5 39/3/5 41/3/5
f 43/3/5 32/3/5 40/3/5
f 43/5/5 40/5/5 42/5/5
f 44/3/5 32/3/5 43/3/5
f 45/5/5 42/5/5 41/5/5
f 45/3/5 41/3/5 37/3/5
f 45/5/5 44/5/5 43/5/5
f 45/5/5 43/5/5 42/5/5
f 46/5/5 44/5/5 45/5/5
f 47/3/5 45/3/5 37/3/5
f 47/3/5 46/3/5 45/3/5
f 48/3/5 46/3/5 47/3/5
f 49/5/5 44/5/5 46/5/5
f 49/3/5 46/3/5 48/3/5
f 50/5/5 44/5/5 49/5/5
f 51/5/5 44/5/5 50/5/5
f 52/3/5 32/3/5 44/3/5
f 52/5/5 44/5/5 51/5/5
f 53/5/5 51/5/5 50/5/5
f 53/3/5 49/3/5 48/3/5
f 53/3/5 50/3/5 49/3/5
f 54/3/5 52/3/5 51/3/5
f 54/5/5 51/5/5 53/5/5
f 55/1/5 48/1/5 47/1/5
f 56/3/5 53/3/5 48/3/5
f 56/1/5 48/1/5 55/1/5
f 56/3/5 54/3/5 53/3/5
f 57/3/5 32/3/5 52/3/5
f 57/3/5 54/3/5 56/3/5
f 57/3/5 52/3/5 54/3/5
f 58/3/6 59/3/6 62/3/6
f 62/3/6 59/3/6 63/3/6
f 59/4/6 60/4/6 64/4/6
f 63/3/6 59/3/6 64/3/6
f 60/3/6 61/3/6 65/3/6
f 64/4/6 60/4/6 65/4/6
f 62/2/6 63/2/6 66/2/6
f 63/3/6 64/3/6 67/3/6
f 66/2/6 63/2/6 67/2/6
f 64/3/6 65/3/6 67/3/6
f 66/3/6 67/3/6 68/3/6
f 67/3/6 65/3/6 68/3/6
f 65/3/6 61/3/6 69/3/6
f 68/3/6 65/3/6 69/3/6
f 66/3/6 68/3/6 70/3/6
f 68/5/6 69/5/6 71/5/6
f 70/3/6 68/3/6 71/3/6
f 69/3/6 61/3/6 72/3/6
f 71/5/6 69/5/6 72/5/6
f 72/3/6 61/3/6 73/3/6
f 70/5/6 71/5/6 74/5/6
f 66/3/6 70/3/6 74/3/6
f 72/5/6 73/5/6 74/5/6
f 71/5/6 72/5/6 74/5/6
f 74/5/6 73/5/6 75/5/6
f 66/3/6 74/3/6 76/3/6
f 74/3/6 75/3/6 76/3/6
f 76/3/6 75/3/6 77/3/6
f 75/5/6 73/5/6 78/5/6
f 77/3/6 75/3/6 78/3/6
f 78/5/6 73/5/6 79/5/6
f 79/5/6 73/5/6 80/5/6
f 73/3/6 61/3/6 81/3/6
f 80/5/6 73/5/6 81/5/6
f 79/5/6 80/5/6 82/5/6
f 77/3/6 78/3/6 82/3/6
f 78/3/6 79/3/6 82/3/6
f 80/3/6 81/3/6 83/3/6
f 82/5/6 80/5/6 83/5/6
f 76/1/6 77/1/6 84/1/6
f 77/3/6 82/3/6 85/3/6
f 84/1/6 77/1/6 85/1/6
f 82/3/6 83/3/6 85/3/6
f 81/3/6 61/3/6 86/3/6
f 85/3/6 83/3/6 86/3/6
f 83/3/6 81/3/6 86/3/6
